Garage_Gothic-Black.ufo
<glyph name="exclam" format="1">
  <advance width="224"/>
  <unicode hex="0021"/>
  <outline>
    <contour>
      <point x="187" y="227" type="curve" smooth="yes"/>
      <point x="187" y="211"/>
      <point x="186" y="210"/>
      <point x="109" y="210" type="curve" smooth="yes"/>
      <point x="37" y="210"/>
      <point x="37" y="211"/>
      <point x="37" y="225" type="curve" smooth="yes"/>
      <point x="37" y="476"/>
      <point x="37" y="441"/>
      <point x="37" y="681" type="curve" smooth="yes"/>
      <point x="37" y="699"/>
      <point x="38" y="699"/>
      <point x="109" y="699" type="curve" smooth="yes"/>
      <point x="187" y="699"/>
      <point x="187" y="698"/>
      <point x="187" y="680" type="curve" smooth="yes"/>
      <point x="187" y="598"/>
      <point x="187" y="486"/>
    </contour>
    <contour>
      <point x="189" y="73" type="curve" smooth="yes"/>
      <point x="186" y="30"/>
      <point x="157" y="-4"/>
      <point x="115" y="-7" type="curve" smooth="yes"/>
      <point x="52" y="-11"/>
      <point x="41" y="29"/>
      <point x="37" y="68" type="curve" smooth="yes"/>
      <point x="31" y="117"/>
      <point x="69" y="167"/>
      <point x="115" y="161" type="curve" smooth="yes"/>
      <point x="180" y="153"/>
      <point x="192" y="118"/>
    </contour>
  </outline>
</glyph>
<glyph name="quotedbl" format="1">
  <advance width="263"/>
  <unicode hex="0022"/>
  <outline>
    <contour>
      <point x="242" y="683" type="curve" smooth="yes"/>
      <point x="242" y="614"/>
      <point x="241" y="615"/>
      <point x="241" y="559" type="curve" smooth="yes"/>
      <point x="241" y="554"/>
      <point x="237" y="533"/>
      <point x="222" y="536" type="curve" smooth="yes"/>
      <point x="212" y="538"/>
      <point x="176" y="537"/>
      <point x="164" y="536" type="curve" smooth="yes"/>
      <point x="152" y="535"/>
      <point x="149" y="545"/>
      <point x="149" y="567" type="curve" smooth="yes"/>
      <point x="149" y="601"/>
      <point x="150" y="620"/>
      <point x="149" y="653" type="curve" smooth="yes"/>
      <point x="148" y="680"/>
      <point x="154" y="699"/>
      <point x="165" y="699" type="curve" smooth="yes"/>
      <point x="176" y="699"/>
      <point x="215" y="699"/>
      <point x="226" y="702" type="curve" smooth="yes"/>
      <point x="234" y="704"/>
      <point x="242" y="703"/>
    </contour>
    <contour>
      <point x="114" y="683" type="curve" smooth="yes"/>
      <point x="114" y="614"/>
      <point x="113" y="615"/>
      <point x="113" y="559" type="curve" smooth="yes"/>
      <point x="113" y="554"/>
      <point x="109" y="533"/>
      <point x="94" y="536" type="curve" smooth="yes"/>
      <point x="84" y="538"/>
      <point x="48" y="537"/>
      <point x="36" y="536" type="curve" smooth="yes"/>
      <point x="24" y="535"/>
      <point x="21" y="545"/>
      <point x="21" y="567" type="curve" smooth="yes"/>
      <point x="21" y="601"/>
      <point x="22" y="620"/>
      <point x="21" y="653" type="curve" smooth="yes"/>
      <point x="20" y="680"/>
      <point x="26" y="697"/>
      <point x="37" y="699" type="curve" smooth="yes"/>
      <point x="48" y="701"/>
      <point x="86" y="702"/>
      <point x="98" y="702" type="curve" smooth="yes"/>
      <point x="106" y="702"/>
      <point x="114" y="703"/>
    </contour>
  </outline>
</glyph>
<glyph name="numbersign" format="1">
  <advance width="551"/>
  <unicode hex="0023"/>
  <outline>
    <contour>
      <point x="528" y="549" type="curve"/>
      <point x="499" y="544"/>
      <point x="456" y="548"/>
      <point x="449" y="539" type="curve"/>
      <point x="442" y="534"/>
      <point x="426" y="431"/>
      <point x="430" y="421" type="curve" smooth="yes"/>
      <point x="432" y="415"/>
      <point x="465" y="420"/>
      <point x="500" y="420" type="curve" smooth="yes"/>
      <point x="510" y="420"/>
      <point x="519" y="343"/>
      <point x="509" y="342" type="curve"/>
      <point x="479" y="336"/>
      <point x="425" y="336"/>
      <point x="419" y="332" type="curve" smooth="yes"/>
      <point x="409" y="326"/>
      <point x="410" y="260"/>
      <point x="398" y="228" type="curve" smooth="yes"/>
      <point x="394" y="218"/>
      <point x="296" y="220"/>
      <point x="293" y="231" type="curve"/>
      <point x="292" y="248"/>
      <point x="309" y="322"/>
      <point x="305" y="328" type="curve"/>
      <point x="302" y="336"/>
      <point x="196" y="337"/>
      <point x="189" y="328" type="curve" smooth="yes"/>
      <point x="184" y="322"/>
      <point x="187" y="270"/>
      <point x="173" y="238" type="curve" smooth="yes"/>
      <point x="169" y="228"/>
      <point x="70" y="225"/>
      <point x="70" y="238" type="curve"/>
      <point x="67" y="267"/>
      <point x="82" y="322"/>
      <point x="78" y="328" type="curve"/>
      <point x="69" y="339"/>
      <point x="52" y="328"/>
      <point x="19" y="336" type="curve"/>
      <point x="8" y="337"/>
      <point x="9" y="415"/>
      <point x="20" y="420" type="curve"/>
      <point x="50" y="427"/>
      <point x="76" y="411"/>
      <point x="89" y="424" type="curve"/>
      <point x="97" y="429"/>
      <point x="117" y="530"/>
      <point x="111" y="538" type="curve" smooth="yes"/>
      <point x="103" y="548"/>
      <point x="72" y="537"/>
      <point x="38" y="545" type="curve" smooth="yes"/>
      <point x="27" y="547"/>
      <point x="29" y="623"/>
      <point x="40" y="627" type="curve" smooth="yes"/>
      <point x="69" y="636"/>
      <point x="104" y="622"/>
      <point x="118" y="631" type="curve"/>
      <point x="128" y="640"/>
      <point x="128" y="669"/>
      <point x="135" y="704" type="curve"/>
      <point x="136" y="714"/>
      <point x="238" y="714"/>
      <point x="238" y="701" type="curve"/>
      <point x="235" y="675"/>
      <point x="229" y="637"/>
      <point x="234" y="631" type="curve" smooth="yes"/>
      <point x="241" y="623"/>
      <point x="343" y="626"/>
      <point x="351" y="631" type="curve"/>
      <point x="358" y="637"/>
      <point x="358" y="669"/>
      <point x="363" y="704" type="curve" smooth="yes"/>
      <point x="365" y="714"/>
      <point x="464" y="714"/>
      <point x="465" y="701" type="curve" smooth="yes"/>
      <point x="466" y="675"/>
      <point x="454" y="633"/>
      <point x="460" y="630" type="curve"/>
      <point x="468" y="623"/>
      <point x="495" y="626"/>
      <point x="520" y="627" type="curve" smooth="yes"/>
      <point x="530" y="627"/>
      <point x="538" y="552"/>
    </contour>
    <contour>
      <point x="337" y="542" type="curve" smooth="yes"/>
      <point x="334" y="549"/>
      <point x="224" y="549"/>
      <point x="216" y="542" type="curve" smooth="yes"/>
      <point x="209" y="535"/>
      <point x="196" y="427"/>
      <point x="203" y="417" type="curve"/>
      <point x="206" y="410"/>
      <point x="315" y="410"/>
      <point x="322" y="417" type="curve"/>
      <point x="329" y="431"/>
      <point x="341" y="534"/>
    </contour>
  </outline>
</glyph>
<glyph name="dollar" format="1">
  <advance width="410"/>
  <unicode hex="0024"/>
  <outline>
    <contour>
      <point x="384" y="164" type="curve" smooth="yes"/>
      <point x="384" y="90"/>
      <point x="350" y="40"/>
      <point x="289" y="14" type="curve" smooth="yes"/>
      <point x="285" y="12"/>
      <point x="284" y="4"/>
      <point x="284" y="0" type="curve" smooth="yes"/>
      <point x="284" y="-22"/>
      <point x="284" y="-37"/>
      <point x="284" y="-54" type="curve" smooth="yes"/>
      <point x="284" y="-65"/>
      <point x="230" y="-67"/>
      <point x="205" y="-67" type="curve" smooth="yes"/>
      <point x="182" y="-67"/>
      <point x="135" y="-64"/>
      <point x="135" y="-54" type="curve" smooth="yes"/>
      <point x="135" y="-40"/>
      <point x="135" y="-23"/>
      <point x="135" y="-2" type="curve" smooth="yes"/>
      <point x="135" y="2"/>
      <point x="135" y="13"/>
      <point x="127" y="16" type="curve" smooth="yes"/>
      <point x="75" y="35"/>
      <point x="34" y="93"/>
      <point x="34" y="164" type="curve" smooth="yes"/>
      <point x="34" y="183"/>
      <point x="34" y="198"/>
      <point x="34" y="220" type="curve" smooth="yes"/>
      <point x="34" y="227"/>
      <point x="45" y="227"/>
      <point x="101" y="227" type="curve" smooth="yes"/>
      <point x="157" y="227"/>
      <point x="184" y="228"/>
      <point x="184" y="222" type="curve" smooth="yes"/>
      <point x="184" y="203"/>
      <point x="184" y="207"/>
      <point x="184" y="194" type="curve" smooth="yes"/>
      <point x="184" y="144"/>
      <point x="186" y="128"/>
      <point x="209" y="128" type="curve" smooth="yes"/>
      <point x="230" y="128"/>
      <point x="234" y="152"/>
      <point x="234" y="177" type="curve" smooth="yes"/>
      <point x="234" y="271"/>
      <point x="166" y="302"/>
      <point x="111" y="357" type="curve" smooth="yes"/>
      <point x="50" y="418"/>
      <point x="34" y="449"/>
      <point x="34" y="546" type="curve" smooth="yes"/>
      <point x="34" y="612"/>
      <point x="72" y="661"/>
      <point x="129" y="685" type="curve" smooth="yes"/>
      <point x="133" y="687"/>
      <point x="135" y="691"/>
      <point x="135" y="700" type="curve" smooth="yes"/>
      <point x="135" y="722"/>
      <point x="135" y="746"/>
      <point x="135" y="760" type="curve" smooth="yes"/>
      <point x="135" y="771"/>
      <point x="182" y="771"/>
      <point x="205" y="771" type="curve" smooth="yes"/>
      <point x="229" y="771"/>
      <point x="285" y="770"/>
      <point x="285" y="763" type="curve" smooth="yes"/>
      <point x="285" y="747"/>
      <point x="285" y="710"/>
      <point x="285" y="695" type="curve" smooth="yes"/>
      <point x="285" y="690"/>
      <point x="285" y="684"/>
      <point x="293" y="680" type="curve" smooth="yes"/>
      <point x="341" y="656"/>
      <point x="374" y="608"/>
      <point x="374" y="546" type="curve" smooth="yes"/>
      <point x="374" y="521"/>
      <point x="374" y="521"/>
      <point x="374" y="494" type="curve" smooth="yes"/>
      <point x="374" y="488"/>
      <point x="359" y="490"/>
      <point x="313" y="490" type="curve" smooth="yes"/>
      <point x="256" y="490"/>
      <point x="229" y="490"/>
      <point x="229" y="495" type="curve" smooth="yes"/>
      <point x="229" y="514"/>
      <point x="229" y="527"/>
      <point x="229" y="540" type="curve" smooth="yes"/>
      <point x="229" y="563"/>
      <point x="217" y="575"/>
      <point x="204" y="575" type="curve" smooth="yes"/>
      <point x="191" y="575"/>
      <point x="179" y="563"/>
      <point x="179" y="541" type="curve" smooth="yes"/>
      <point x="179" y="474"/>
      <point x="184" y="468"/>
      <point x="260" y="404" type="curve" smooth="yes"/>
      <point x="317" y="356"/>
      <point x="384" y="304"/>
    </contour>
  </outline>
</glyph>
<glyph name="ampersand" format="1">
  <advance width="500"/>
  <unicode hex="0026"/>
  <outline>
    <contour>
      <point x="471" y="13" type="curve" smooth="yes"/>
      <point x="484" y="-2"/>
      <point x="469" y="0"/>
      <point x="416" y="0" type="curve" smooth="yes"/>
      <point x="369" y="0"/>
      <point x="360" y="3"/>
      <point x="349" y="12" type="curve" smooth="yes"/>
      <point x="344" y="16"/>
      <point x="338" y="22"/>
      <point x="331" y="29" type="curve" smooth="yes"/>
      <point x="327" y="33"/>
      <point x="323" y="37"/>
      <point x="320" y="37" type="curve" smooth="yes"/>
      <point x="315" y="37"/>
      <point x="312" y="35"/>
      <point x="303" y="30" type="curve" smooth="yes"/>
      <point x="268" y="10"/>
      <point x="233" y="0"/>
      <point x="207" y="0" type="curve" smooth="yes"/>
      <point x="102" y="0"/>
      <point x="32" y="61"/>
      <point x="32" y="164" type="curve" smooth="yes"/>
      <point x="32" y="249"/>
      <point x="58" y="295"/>
      <point x="98" y="339" type="curve"/>
      <point x="101" y="343"/>
      <point x="102" y="344"/>
      <point x="103" y="346" type="curve"/>
      <point x="103" y="349"/>
      <point x="103" y="350"/>
      <point x="101" y="354" type="curve" smooth="yes"/>
      <point x="63" y="426"/>
      <point x="42" y="475"/>
      <point x="42" y="508" type="curve" smooth="yes"/>
      <point x="42" y="535"/>
      <point x="42" y="521"/>
      <point x="42" y="546" type="curve" smooth="yes"/>
      <point x="42" y="641"/>
      <point x="112" y="700"/>
      <point x="207" y="700" type="curve" smooth="yes"/>
      <point x="300" y="700"/>
      <point x="372" y="639"/>
      <point x="372" y="546" type="curve" smooth="yes"/>
      <point x="372" y="464"/>
      <point x="317" y="412"/>
      <point x="253" y="353" type="curve" smooth="yes"/>
      <point x="250" y="350"/>
      <point x="249" y="350"/>
      <point x="249" y="347" type="curve" smooth="yes"/>
      <point x="249" y="344"/>
      <point x="249" y="343"/>
      <point x="251" y="339" type="curve" smooth="yes"/>
      <point x="267" y="310"/>
      <point x="287" y="277"/>
      <point x="307" y="244" type="curve" smooth="yes"/>
      <point x="311" y="238"/>
      <point x="310" y="237"/>
      <point x="315" y="237" type="curve" smooth="yes"/>
      <point x="319" y="237"/>
      <point x="319" y="239"/>
      <point x="320" y="246" type="curve" smooth="yes"/>
      <point x="321" y="255"/>
      <point x="322" y="265"/>
      <point x="322" y="276" type="curve" smooth="yes"/>
      <point x="322" y="289"/>
      <point x="322" y="295"/>
      <point x="322" y="314" type="curve" smooth="yes"/>
      <point x="322" y="320"/>
      <point x="319" y="319"/>
      <point x="375" y="319" type="curve" smooth="yes"/>
      <point x="431" y="319"/>
      <point x="442" y="319"/>
      <point x="442" y="312" type="curve" smooth="yes"/>
      <point x="442" y="290"/>
      <point x="442" y="275"/>
      <point x="442" y="256" type="curve" smooth="yes"/>
      <point x="442" y="205"/>
      <point x="427" y="160"/>
      <point x="404" y="124" type="curve" smooth="yes"/>
      <point x="402" y="121"/>
      <point x="399" y="117"/>
      <point x="399" y="113" type="curve" smooth="yes"/>
      <point x="399" y="109"/>
      <point x="399" y="107"/>
      <point x="402" y="103" type="curve" smooth="yes"/>
      <point x="426" y="71"/>
      <point x="449" y="39"/>
    </contour>
    <contour>
      <point x="227" y="551" type="curve" smooth="yes"/>
      <point x="227" y="573"/>
      <point x="220" y="585"/>
      <point x="207" y="585" type="curve" smooth="yes"/>
      <point x="194" y="585"/>
      <point x="182" y="573"/>
      <point x="182" y="550" type="curve" smooth="yes"/>
      <point x="182" y="537"/>
      <point x="182" y="514"/>
      <point x="182" y="495" type="curve" smooth="yes"/>
      <point x="182" y="486"/>
      <point x="185" y="474"/>
      <point x="193" y="454" type="curve" smooth="yes"/>
      <point x="195" y="449"/>
      <point x="194" y="446"/>
      <point x="198" y="446" type="curve" smooth="yes"/>
      <point x="202" y="446"/>
      <point x="204" y="450"/>
      <point x="206" y="455" type="curve" smooth="yes"/>
      <point x="218" y="484"/>
      <point x="227" y="511"/>
    </contour>
    <contour>
      <point x="243" y="134" type="curve" smooth="yes"/>
      <point x="243" y="138"/>
      <point x="241" y="140"/>
      <point x="239" y="143" type="curve" smooth="yes"/>
      <point x="218" y="173"/>
      <point x="198" y="201"/>
      <point x="183" y="221" type="curve"/>
      <point x="181" y="223"/>
      <point x="181" y="225"/>
      <point x="178" y="226" type="curve" smooth="yes"/>
      <point x="174" y="227"/>
      <point x="174" y="225"/>
      <point x="172" y="216" type="curve" smooth="yes"/>
      <point x="169" y="201"/>
      <point x="168" y="185"/>
      <point x="168" y="167" type="curve" smooth="yes"/>
      <point x="168" y="142"/>
      <point x="186" y="118"/>
      <point x="207" y="118" type="curve" smooth="yes"/>
      <point x="214" y="118"/>
      <point x="224" y="120"/>
      <point x="238" y="127" type="curve" smooth="yes"/>
      <point x="242" y="129"/>
      <point x="243" y="131"/>
    </contour>
  </outline>
</glyph>
<glyph name="quotesingle" format="1">
  <advance width="135"/>
  <unicode hex="0027"/>
  <outline>
    <contour>
      <point x="114" y="683" type="curve" smooth="yes"/>
      <point x="114" y="614"/>
      <point x="113" y="615"/>
      <point x="113" y="559" type="curve" smooth="yes"/>
      <point x="113" y="554"/>
      <point x="109" y="533"/>
      <point x="94" y="536" type="curve" smooth="yes"/>
      <point x="84" y="538"/>
      <point x="48" y="537"/>
      <point x="36" y="536" type="curve" smooth="yes"/>
      <point x="24" y="535"/>
      <point x="21" y="545"/>
      <point x="21" y="567" type="curve" smooth="yes"/>
      <point x="21" y="601"/>
      <point x="22" y="620"/>
      <point x="21" y="653" type="curve" smooth="yes"/>
      <point x="20" y="680"/>
      <point x="26" y="699"/>
      <point x="37" y="699" type="curve" smooth="yes"/>
      <point x="48" y="699"/>
      <point x="87" y="699"/>
      <point x="98" y="702" type="curve" smooth="yes"/>
      <point x="106" y="704"/>
      <point x="114" y="703"/>
    </contour>
  </outline>
</glyph>
<glyph name="parenleft" format="1">
  <advance width="266"/>
  <unicode hex="0028"/>
  <outline>
    <contour>
      <point x="236" y="-11" type="curve" smooth="yes"/>
      <point x="236" y="-28"/>
      <point x="238" y="-70"/>
      <point x="231" y="-70" type="curve" smooth="yes"/>
      <point x="106" y="-70"/>
      <point x="30" y="-34"/>
      <point x="30" y="101" type="curve" smooth="yes"/>
      <point x="30" y="293"/>
      <point x="29" y="410"/>
      <point x="29" y="599" type="curve" smooth="yes"/>
      <point x="29" y="734"/>
      <point x="105" y="770"/>
      <point x="230" y="770" type="curve" smooth="yes"/>
      <point x="237" y="770"/>
      <point x="235" y="728"/>
      <point x="235" y="711" type="curve" smooth="yes"/>
      <point x="235" y="700"/>
      <point x="236" y="653"/>
      <point x="230" y="653" type="curve" smooth="yes"/>
      <point x="183" y="653"/>
      <point x="164" y="633"/>
      <point x="164" y="592" type="curve" smooth="yes"/>
      <point x="164" y="405"/>
      <point x="165" y="302"/>
      <point x="165" y="108" type="curve" smooth="yes"/>
      <point x="165" y="67"/>
      <point x="184" y="47"/>
      <point x="231" y="47" type="curve" smooth="yes"/>
      <point x="237" y="47"/>
      <point x="236" y="0"/>
    </contour>
  </outline>
</glyph>
<glyph name="parenright" format="1">
  <advance width="266"/>
  <unicode hex="0029"/>
  <outline>
    <contour>
      <point x="236" y="101" type="curve" smooth="yes"/>
      <point x="236" y="-34"/>
      <point x="160" y="-70"/>
      <point x="35" y="-70" type="curve" smooth="yes"/>
      <point x="28" y="-70"/>
      <point x="30" y="-28"/>
      <point x="30" y="-11" type="curve" smooth="yes"/>
      <point x="30" y="0"/>
      <point x="29" y="47"/>
      <point x="35" y="47" type="curve" smooth="yes"/>
      <point x="82" y="47"/>
      <point x="101" y="67"/>
      <point x="101" y="108" type="curve" smooth="yes"/>
      <point x="101" y="302"/>
      <point x="101" y="405"/>
      <point x="101" y="592" type="curve" smooth="yes"/>
      <point x="101" y="633"/>
      <point x="82" y="653"/>
      <point x="35" y="653" type="curve" smooth="yes"/>
      <point x="29" y="653"/>
      <point x="30" y="700"/>
      <point x="30" y="711" type="curve" smooth="yes"/>
      <point x="30" y="728"/>
      <point x="28" y="770"/>
      <point x="35" y="770" type="curve" smooth="yes"/>
      <point x="160" y="770"/>
      <point x="236" y="734"/>
      <point x="236" y="599" type="curve" smooth="yes"/>
      <point x="236" y="410"/>
      <point x="236" y="293"/>
    </contour>
  </outline>
</glyph>
<glyph name="asterisk" format="1">
  <advance width="297"/>
  <unicode hex="002A"/>
  <outline>
    <contour>
      <point x="272" y="611" type="curve" smooth="yes"/>
      <point x="236" y="598"/>
      <point x="207" y="587"/>
      <point x="207" y="577" type="curve" smooth="yes"/>
      <point x="207" y="569"/>
      <point x="234" y="551"/>
      <point x="270" y="535" type="curve" smooth="yes"/>
      <point x="290" y="526"/>
      <point x="261" y="481"/>
      <point x="242" y="491" type="curve" smooth="yes"/>
      <point x="198" y="515"/>
      <point x="189" y="518"/>
      <point x="182" y="512" type="curve" smooth="yes"/>
      <point x="174" y="506"/>
      <point x="177" y="488"/>
      <point x="179" y="460" type="curve" smooth="yes"/>
      <point x="181" y="443"/>
      <point x="114" y="443"/>
      <point x="116" y="460" type="curve" smooth="yes"/>
      <point x="119" y="487"/>
      <point x="119" y="511"/>
      <point x="111" y="518" type="curve" smooth="yes"/>
      <point x="104" y="524"/>
      <point x="83" y="508"/>
      <point x="54" y="493" type="curve" smooth="yes"/>
      <point x="36" y="484"/>
      <point x="6" y="542"/>
      <point x="24" y="548" type="curve" smooth="yes"/>
      <point x="56" y="559"/>
      <point x="92" y="568"/>
      <point x="92" y="578" type="curve" smooth="yes"/>
      <point x="92" y="587"/>
      <point x="56" y="601"/>
      <point x="29" y="616" type="curve" smooth="yes"/>
      <point x="8" y="628"/>
      <point x="35" y="674"/>
      <point x="54" y="662" type="curve" smooth="yes"/>
      <point x="90" y="640"/>
      <point x="104" y="632"/>
      <point x="111" y="637" type="curve"/>
      <point x="120" y="641"/>
      <point x="114" y="671"/>
      <point x="111" y="700" type="curve" smooth="yes"/>
      <point x="110" y="716"/>
      <point x="186" y="716"/>
      <point x="185" y="698" type="curve" smooth="yes"/>
      <point x="182" y="659"/>
      <point x="174" y="635"/>
      <point x="185" y="631" type="curve" smooth="yes"/>
      <point x="194" y="628"/>
      <point x="215" y="647"/>
      <point x="242" y="665" type="curve" smooth="yes"/>
      <point x="257" y="676"/>
      <point x="288" y="617"/>
    </contour>
  </outline>
</glyph>
<glyph name="plus" format="1">
  <advance width="273"/>
  <unicode hex="002B"/>
  <outline>
    <contour>
      <point x="242" y="218" type="curve" smooth="yes"/>
      <point x="229" y="212"/>
      <point x="180" y="219"/>
      <point x="176" y="213" type="curve" smooth="yes"/>
      <point x="172" y="208"/>
      <point x="177" y="158"/>
      <point x="177" y="140" type="curve" smooth="yes"/>
      <point x="177" y="135"/>
      <point x="109" y="131"/>
      <point x="107" y="136" type="curve" smooth="yes"/>
      <point x="101" y="149"/>
      <point x="109" y="207"/>
      <point x="104" y="213" type="curve" smooth="yes"/>
      <point x="98" y="220"/>
      <point x="47" y="211"/>
      <point x="30" y="215" type="curve" smooth="yes"/>
      <point x="24" y="216"/>
      <point x="25" y="286"/>
      <point x="31" y="288" type="curve" smooth="yes"/>
      <point x="46" y="292"/>
      <point x="96" y="284"/>
      <point x="102" y="290" type="curve" smooth="yes"/>
      <point x="107" y="295"/>
      <point x="100" y="339"/>
      <point x="104" y="356" type="curve" smooth="yes"/>
      <point x="105" y="362"/>
      <point x="175" y="361"/>
      <point x="177" y="355" type="curve" smooth="yes"/>
      <point x="181" y="340"/>
      <point x="173" y="293"/>
      <point x="178" y="288" type="curve" smooth="yes"/>
      <point x="183" y="283"/>
      <point x="220" y="288"/>
      <point x="238" y="288" type="curve" smooth="yes"/>
      <point x="243" y="288"/>
      <point x="247" y="220"/>
    </contour>
  </outline>
</glyph>
<glyph name="comma" format="1">
  <advance width="206"/>
  <unicode hex="002C"/>
  <outline>
    <contour>
      <point x="175" y="85" type="curve" smooth="yes"/>
      <point x="175" y="47"/>
      <point x="175" y="26"/>
      <point x="161" y="-8" type="curve" smooth="yes"/>
      <point x="149" y="-37"/>
      <point x="109" y="-127"/>
      <point x="59" y="-118" type="curve" smooth="yes"/>
      <point x="31" y="-113"/>
      <point x="73" y="-31"/>
      <point x="77" y="-15" type="curve" smooth="yes"/>
      <point x="82" y="3"/>
      <point x="59" y="3"/>
      <point x="51" y="10" type="curve" smooth="yes"/>
      <point x="37" y="21"/>
      <point x="30" y="45"/>
      <point x="30" y="61" type="curve" smooth="yes"/>
      <point x="30" y="112"/>
      <point x="53" y="157"/>
      <point x="95" y="157" type="curve" smooth="yes"/>
      <point x="147" y="157"/>
      <point x="175" y="127"/>
    </contour>
  </outline>
</glyph>
<glyph name="hyphen" format="1">
  <advance width="273"/>
  <unicode hex="002D"/>
  <unicode hex="2010"/>
  <unicode hex="2011"/>
  <outline>
    <contour>
      <point x="241" y="222" type="curve" smooth="yes"/>
      <point x="243" y="214"/>
      <point x="242" y="206"/>
      <point x="222" y="206" type="curve" smooth="yes"/>
      <point x="153" y="206"/>
      <point x="109" y="207"/>
      <point x="53" y="207" type="curve" smooth="yes"/>
      <point x="48" y="207"/>
      <point x="27" y="211"/>
      <point x="30" y="226" type="curve" smooth="yes"/>
      <point x="32" y="236"/>
      <point x="31" y="272"/>
      <point x="30" y="284" type="curve" smooth="yes"/>
      <point x="29" y="296"/>
      <point x="39" y="299"/>
      <point x="61" y="299" type="curve" smooth="yes"/>
      <point x="95" y="299"/>
      <point x="159" y="298"/>
      <point x="192" y="299" type="curve" smooth="yes"/>
      <point x="219" y="300"/>
      <point x="238" y="294"/>
      <point x="238" y="283" type="curve" smooth="yes"/>
      <point x="238" y="272"/>
      <point x="238" y="233"/>
    </contour>
  </outline>
</glyph>
<glyph name="period" format="1">
  <advance width="206"/>
  <unicode hex="002E"/>
  <outline>
    <contour>
      <point x="174" y="73" type="curve" smooth="yes"/>
      <point x="172" y="32"/>
      <point x="144" y="0"/>
      <point x="104" y="-3" type="curve" smooth="yes"/>
      <point x="44" y="-7"/>
      <point x="34" y="31"/>
      <point x="30" y="68" type="curve" smooth="yes"/>
      <point x="25" y="115"/>
      <point x="60" y="162"/>
      <point x="104" y="157" type="curve" smooth="yes"/>
      <point x="183" y="148"/>
      <point x="177" y="116"/>
    </contour>
  </outline>
</glyph>
<glyph name="slash" format="1">
  <advance width="311"/>
  <unicode hex="002F"/>
  <outline>
    <contour>
      <point x="281" y="680" type="curve" smooth="yes"/>
      <point x="240" y="439"/>
      <point x="207" y="252"/>
      <point x="165" y="15" type="curve" smooth="yes"/>
      <point x="163" y="2"/>
      <point x="103" y="0"/>
      <point x="82" y="0" type="curve" smooth="yes"/>
      <point x="62" y="0"/>
      <point x="28" y="1"/>
      <point x="30" y="13" type="curve" smooth="yes"/>
      <point x="73" y="262"/>
      <point x="103" y="446"/>
      <point x="145" y="689" type="curve" smooth="yes"/>
      <point x="147" y="699"/>
      <point x="194" y="699"/>
      <point x="215" y="699" type="curve" smooth="yes"/>
      <point x="237" y="699"/>
      <point x="284" y="695"/>
    </contour>
  </outline>
</glyph>
<glyph name="zero" format="1">
  <advance width="410"/>
  <unicode hex="0030"/>
  <outline>
    <contour>
      <point x="380" y="164" type="curve" smooth="yes"/>
      <point x="380" y="61"/>
      <point x="310" y="0"/>
      <point x="205" y="0" type="curve" smooth="yes"/>
      <point x="104" y="0"/>
      <point x="30" y="65"/>
      <point x="30" y="164" type="curve" smooth="yes"/>
      <point x="30" y="313"/>
      <point x="30" y="387"/>
      <point x="30" y="536" type="curve" smooth="yes"/>
      <point x="30" y="635"/>
      <point x="104" y="700"/>
      <point x="205" y="700" type="curve" smooth="yes"/>
      <point x="310" y="700"/>
      <point x="380" y="639"/>
      <point x="380" y="536" type="curve" smooth="yes"/>
      <point x="380" y="391"/>
      <point x="380" y="310"/>
    </contour>
    <contour>
      <point x="230" y="205" type="curve" smooth="yes"/>
      <point x="229" y="318"/>
      <point x="230" y="382"/>
      <point x="230" y="495" type="curve" smooth="yes"/>
      <point x="230" y="523"/>
      <point x="234" y="555"/>
      <point x="205" y="555" type="curve" smooth="yes"/>
      <point x="175" y="555"/>
      <point x="180" y="523"/>
      <point x="180" y="495" type="curve" smooth="yes"/>
      <point x="180" y="381"/>
      <point x="180" y="319"/>
      <point x="180" y="205" type="curve" smooth="yes"/>
      <point x="180" y="177"/>
      <point x="175" y="145"/>
      <point x="205" y="145" type="curve" smooth="yes"/>
      <point x="234" y="145"/>
      <point x="230" y="177"/>
    </contour>
  </outline>
</glyph>
<glyph name="one" format="1">
  <advance width="369"/>
  <unicode hex="0031"/>
  <outline>
    <contour>
      <point x="339" y="58" type="curve" smooth="yes"/>
      <point x="339" y="36"/>
      <point x="337" y="0"/>
      <point x="328" y="0" type="curve" smooth="yes"/>
      <point x="278" y="0"/>
      <point x="94" y="0"/>
      <point x="44" y="0" type="curve" smooth="yes"/>
      <point x="31" y="0"/>
      <point x="30" y="33"/>
      <point x="30" y="57" type="curve" smooth="yes"/>
      <point x="30" y="83"/>
      <point x="32" y="118"/>
      <point x="46" y="118" type="curve" smooth="yes"/>
      <point x="56" y="118"/>
      <point x="70" y="118"/>
      <point x="85" y="118" type="curve" smooth="yes"/>
      <point x="92" y="118"/>
      <point x="98" y="117"/>
      <point x="103" y="120" type="curve" smooth="yes"/>
      <point x="108" y="123"/>
      <point x="108" y="138"/>
      <point x="108" y="150" type="curve" smooth="yes"/>
      <point x="108" y="327"/>
      <point x="108" y="338"/>
      <point x="108" y="515" type="curve" smooth="yes"/>
      <point x="108" y="523"/>
      <point x="109" y="539"/>
      <point x="104" y="539" type="curve" smooth="yes"/>
      <point x="93" y="539"/>
      <point x="74" y="521"/>
      <point x="64" y="514" type="curve"/>
      <point x="56" y="507"/>
      <point x="40" y="489"/>
      <point x="37" y="505" type="curve" smooth="yes"/>
      <point x="34" y="525"/>
      <point x="31" y="579"/>
      <point x="35" y="600" type="curve"/>
      <point x="36" y="610"/>
      <point x="58" y="627"/>
      <point x="75" y="641" type="curve" smooth="yes"/>
      <point x="91" y="654"/>
      <point x="97" y="690"/>
      <point x="106" y="692" type="curve"/>
      <point x="131" y="700"/>
      <point x="227" y="700"/>
      <point x="247" y="700" type="curve" smooth="yes"/>
      <point x="260" y="700"/>
      <point x="258" y="681"/>
      <point x="258" y="670" type="curve" smooth="yes"/>
      <point x="258" y="460"/>
      <point x="258" y="372"/>
      <point x="258" y="150" type="curve" smooth="yes"/>
      <point x="258" y="139"/>
      <point x="258" y="127"/>
      <point x="261" y="123" type="curve" smooth="yes"/>
      <point x="265" y="118"/>
      <point x="274" y="118"/>
      <point x="278" y="118" type="curve" smooth="yes"/>
      <point x="298" y="118"/>
      <point x="316" y="118"/>
      <point x="330" y="118" type="curve" smooth="yes"/>
      <point x="339" y="118"/>
      <point x="339" y="84"/>
    </contour>
  </outline>
</glyph>
<glyph name="two" format="1">
  <advance width="410"/>
  <unicode hex="0032"/>
  <outline>
    <contour>
      <point x="380" y="75" type="curve" smooth="yes"/>
      <point x="380" y="50"/>
      <point x="379" y="0"/>
      <point x="363" y="0" type="curve" smooth="yes"/>
      <point x="314" y="0"/>
      <point x="115" y="0"/>
      <point x="61" y="0" type="curve" smooth="yes"/>
      <point x="50" y="0"/>
      <point x="44" y="-2"/>
      <point x="37" y="4" type="curve" smooth="yes"/>
      <point x="28" y="11"/>
      <point x="30" y="13"/>
      <point x="30" y="28" type="curve" smooth="yes"/>
      <point x="30" y="78"/>
      <point x="30" y="126"/>
      <point x="30" y="176" type="curve" smooth="yes"/>
      <point x="30" y="220"/>
      <point x="45" y="245"/>
      <point x="63" y="266" type="curve" smooth="yes"/>
      <point x="112" y="324"/>
      <point x="121" y="331"/>
      <point x="152" y="369" type="curve" smooth="yes"/>
      <point x="175" y="397"/>
      <point x="184" y="408"/>
      <point x="210" y="445" type="curve" smooth="yes"/>
      <point x="226" y="467"/>
      <point x="230" y="482"/>
      <point x="230" y="495" type="curve" smooth="yes"/>
      <point x="230" y="525"/>
      <point x="234" y="555"/>
      <point x="205" y="555" type="curve" smooth="yes"/>
      <point x="175" y="555"/>
      <point x="180" y="518"/>
      <point x="180" y="495" type="curve" smooth="yes"/>
      <point x="180" y="476"/>
      <point x="180" y="494"/>
      <point x="180" y="479" type="curve" smooth="yes"/>
      <point x="180" y="468"/>
      <point x="123" y="466"/>
      <point x="101" y="466" type="curve" smooth="yes"/>
      <point x="78" y="466"/>
      <point x="34" y="466"/>
      <point x="34" y="480" type="curve" smooth="yes"/>
      <point x="34" y="499"/>
      <point x="34" y="517"/>
      <point x="34" y="536" type="curve" smooth="yes"/>
      <point x="34" y="635"/>
      <point x="104" y="700"/>
      <point x="205" y="700" type="curve" smooth="yes"/>
      <point x="310" y="700"/>
      <point x="376" y="639"/>
      <point x="376" y="536" type="curve" smooth="yes"/>
      <point x="376" y="498"/>
      <point x="376" y="535"/>
      <point x="376" y="495" type="curve" smooth="yes"/>
      <point x="376" y="411"/>
      <point x="309" y="340"/>
      <point x="275" y="302" type="curve" smooth="yes"/>
      <point x="236" y="259"/>
      <point x="232" y="257"/>
      <point x="195" y="217" type="curve" smooth="yes"/>
      <point x="185" y="207"/>
      <point x="180" y="200"/>
      <point x="180" y="192" type="curve" smooth="yes"/>
      <point x="180" y="169"/>
      <point x="180" y="192"/>
      <point x="180" y="169" type="curve" smooth="yes"/>
      <point x="180" y="154"/>
      <point x="179" y="156"/>
      <point x="185" y="150" type="curve" smooth="yes"/>
      <point x="190" y="145"/>
      <point x="198" y="145"/>
      <point x="208" y="145" type="curve" smooth="yes"/>
      <point x="240" y="145"/>
      <point x="333" y="145"/>
      <point x="365" y="145" type="curve" smooth="yes"/>
      <point x="378" y="145"/>
      <point x="380" y="101"/>
    </contour>
  </outline>
</glyph>
<glyph name="three" format="1">
  <advance width="410"/>
  <unicode hex="0033"/>
  <outline>
    <contour>
      <point x="380" y="164" type="curve" smooth="yes"/>
      <point x="380" y="61"/>
      <point x="310" y="0"/>
      <point x="205" y="0" type="curve" smooth="yes"/>
      <point x="104" y="0"/>
      <point x="30" y="65"/>
      <point x="30" y="164" type="curve" smooth="yes"/>
      <point x="30" y="182"/>
      <point x="30" y="213"/>
      <point x="30" y="230" type="curve" smooth="yes"/>
      <point x="30" y="247"/>
      <point x="75" y="250"/>
      <point x="102" y="250" type="curve" smooth="yes"/>
      <point x="132" y="250"/>
      <point x="180" y="247"/>
      <point x="180" y="231" type="curve" smooth="yes"/>
      <point x="180" y="212"/>
      <point x="180" y="217"/>
      <point x="180" y="205" type="curve" smooth="yes"/>
      <point x="180" y="180"/>
      <point x="178" y="145"/>
      <point x="205" y="145" type="curve" smooth="yes"/>
      <point x="231" y="145"/>
      <point x="230" y="179"/>
      <point x="230" y="205" type="curve" smooth="yes"/>
      <point x="230" y="268"/>
      <point x="230" y="202"/>
      <point x="230" y="264" type="curve" smooth="yes"/>
      <point x="230" y="291"/>
      <point x="225" y="324"/>
      <point x="199" y="324" type="curve" smooth="yes"/>
      <point x="174" y="324"/>
      <point x="176" y="319"/>
      <point x="168" y="312" type="curve" smooth="yes"/>
      <point x="162" y="306"/>
      <point x="137" y="333"/>
      <point x="127" y="343" type="curve" smooth="yes"/>
      <point x="122" y="348"/>
      <point x="80" y="389"/>
      <point x="85" y="394" type="curve"/>
      <point x="126" y="443"/>
      <point x="155" y="474"/>
      <point x="202" y="531" type="curve" smooth="yes"/>
      <point x="211" y="542"/>
      <point x="209" y="548"/>
      <point x="204" y="555" type="curve" smooth="yes"/>
      <point x="200" y="561"/>
      <point x="99" y="560"/>
      <point x="53" y="560" type="curve" smooth="yes"/>
      <point x="43" y="560"/>
      <point x="40" y="593"/>
      <point x="40" y="628" type="curve" smooth="yes"/>
      <point x="40" y="666"/>
      <point x="42" y="700"/>
      <point x="53" y="700" type="curve" smooth="yes"/>
      <point x="123" y="700"/>
      <point x="282" y="700"/>
      <point x="366" y="700" type="curve" smooth="yes"/>
      <point x="378" y="700"/>
      <point x="380" y="691"/>
      <point x="380" y="671" type="curve" smooth="yes"/>
      <point x="380" y="649"/>
      <point x="385" y="563"/>
      <point x="373" y="547" type="curve" smooth="yes"/>
      <point x="332" y="493"/>
      <point x="318" y="477"/>
      <point x="278" y="429" type="curve" smooth="yes"/>
      <point x="275" y="425"/>
      <point x="273" y="420"/>
      <point x="279" y="419" type="curve" smooth="yes"/>
      <point x="300" y="416"/>
      <point x="328" y="416"/>
      <point x="349" y="393" type="curve" smooth="yes"/>
      <point x="367" y="373"/>
      <point x="380" y="334"/>
      <point x="380" y="261" type="curve" smooth="yes"/>
      <point x="380" y="192"/>
      <point x="380" y="231"/>
    </contour>
  </outline>
</glyph>
<glyph name="four" format="1">
  <advance width="438"/>
  <unicode hex="0034"/>
  <outline>
    <contour>
      <point x="408" y="175" type="curve" smooth="yes"/>
      <point x="408" y="156"/>
      <point x="408" y="123"/>
      <point x="402" y="123" type="curve" smooth="yes"/>
      <point x="388" y="123"/>
      <point x="387" y="124"/>
      <point x="381" y="119" type="curve"/>
      <point x="377" y="115"/>
      <point x="378" y="113"/>
      <point x="378" y="107" type="curve" smooth="yes"/>
      <point x="378" y="68"/>
      <point x="378" y="48"/>
      <point x="378" y="12" type="curve" smooth="yes"/>
      <point x="378" y="1"/>
      <point x="351" y="0"/>
      <point x="325" y="0" type="curve" smooth="yes"/>
      <point x="305" y="0"/>
      <point x="244" y="2"/>
      <point x="244" y="13" type="curve" smooth="yes"/>
      <point x="244" y="48"/>
      <point x="244" y="54"/>
      <point x="244" y="92" type="curve" smooth="yes"/>
      <point x="244" y="98"/>
      <point x="245" y="109"/>
      <point x="242" y="116" type="curve"/>
      <point x="238" y="122"/>
      <point x="225" y="121"/>
      <point x="215" y="121" type="curve" smooth="yes"/>
      <point x="184" y="121"/>
      <point x="80" y="121"/>
      <point x="49" y="121" type="curve" smooth="yes"/>
      <point x="44" y="121"/>
      <point x="36" y="120"/>
      <point x="33" y="125" type="curve" smooth="yes"/>
      <point x="29" y="132"/>
      <point x="30" y="140"/>
      <point x="30" y="148" type="curve" smooth="yes"/>
      <point x="30" y="187"/>
      <point x="30" y="181"/>
      <point x="30" y="220" type="curve" smooth="yes"/>
      <point x="30" y="231"/>
      <point x="30" y="238"/>
      <point x="32" y="251" type="curve" smooth="yes"/>
      <point x="34" y="261"/>
      <point x="37" y="271"/>
      <point x="40" y="279" type="curve" smooth="yes"/>
      <point x="93" y="415"/>
      <point x="137" y="535"/>
      <point x="199" y="679" type="curve" smooth="yes"/>
      <point x="206" y="695"/>
      <point x="218" y="702"/>
      <point x="283" y="702" type="curve" smooth="yes"/>
      <point x="355" y="702"/>
      <point x="377" y="699"/>
      <point x="377" y="689" type="curve" smooth="yes"/>
      <point x="377" y="507"/>
      <point x="377" y="452"/>
      <point x="377" y="270" type="curve" smooth="yes"/>
      <point x="377" y="266"/>
      <point x="377" y="258"/>
      <point x="379" y="256" type="curve" smooth="yes"/>
      <point x="383" y="252"/>
      <point x="394" y="253"/>
      <point x="402" y="253" type="curve" smooth="yes"/>
      <point x="408" y="253"/>
      <point x="408" y="195"/>
    </contour>
    <contour>
      <point x="247" y="455" type="curve" smooth="yes"/>
      <point x="247" y="465"/>
      <point x="248" y="484"/>
      <point x="243" y="484" type="curve" smooth="yes"/>
      <point x="236" y="484"/>
      <point x="233" y="466"/>
      <point x="231" y="455" type="curve" smooth="yes"/>
      <point x="219" y="401"/>
      <point x="210" y="376"/>
      <point x="197" y="322" type="curve" smooth="yes"/>
      <point x="194" y="311"/>
      <point x="193" y="307"/>
      <point x="191" y="296" type="curve" smooth="yes"/>
      <point x="190" y="289"/>
      <point x="189" y="287"/>
      <point x="189" y="280" type="curve" smooth="yes"/>
      <point x="189" y="262"/>
      <point x="189" y="272"/>
      <point x="189" y="266" type="curve" smooth="yes"/>
      <point x="189" y="255"/>
      <point x="192" y="260"/>
      <point x="196" y="255" type="curve" smooth="yes"/>
      <point x="198" y="252"/>
      <point x="196" y="252"/>
      <point x="210" y="252" type="curve" smooth="yes"/>
      <point x="224" y="252"/>
      <point x="237" y="253"/>
      <point x="241" y="255" type="curve" smooth="yes"/>
      <point x="245" y="257"/>
      <point x="244" y="265"/>
      <point x="244" y="273" type="curve" smooth="yes"/>
      <point x="246" y="366"/>
      <point x="245" y="362"/>
    </contour>
  </outline>
</glyph>
<glyph name="five" format="1">
  <advance width="410"/>
  <unicode hex="0035"/>
  <outline>
    <contour>
      <point x="380" y="233" type="curve" smooth="yes"/>
      <point x="380" y="192"/>
      <point x="362" y="137"/>
      <point x="340" y="106" type="curve" smooth="yes"/>
      <point x="319" y="77"/>
      <point x="268" y="36"/>
      <point x="218" y="22" type="curve" smooth="yes"/>
      <point x="150" y="3"/>
      <point x="57" y="-10"/>
      <point x="36" y="1" type="curve" smooth="yes"/>
      <point x="30" y="4"/>
      <point x="31" y="60"/>
      <point x="31" y="71" type="curve" smooth="yes"/>
      <point x="31" y="80"/>
      <point x="31" y="129"/>
      <point x="35" y="133" type="curve" smooth="yes"/>
      <point x="50" y="148"/>
      <point x="72" y="140"/>
      <point x="129" y="152" type="curve" smooth="yes"/>
      <point x="161" y="159"/>
      <point x="175" y="164"/>
      <point x="197" y="174" type="curve" smooth="yes"/>
      <point x="215" y="182"/>
      <point x="230" y="201"/>
      <point x="230" y="220" type="curve" smooth="yes"/>
      <point x="230" y="251"/>
      <point x="230" y="239"/>
      <point x="230" y="269" type="curve" smooth="yes"/>
      <point x="230" y="305"/>
      <point x="232" y="328"/>
      <point x="206" y="328" type="curve" smooth="yes"/>
      <point x="184" y="328"/>
      <point x="182" y="318"/>
      <point x="180" y="309" type="curve" smooth="yes"/>
      <point x="179" y="304"/>
      <point x="159" y="306"/>
      <point x="150" y="305" type="curve" smooth="yes"/>
      <point x="141" y="304"/>
      <point x="58" y="301"/>
      <point x="33" y="306" type="curve" smooth="yes"/>
      <point x="28" y="307"/>
      <point x="30" y="334"/>
      <point x="30" y="350" type="curve" smooth="yes"/>
      <point x="30" y="477"/>
      <point x="30" y="542"/>
      <point x="30" y="664" type="curve" smooth="yes"/>
      <point x="30" y="676"/>
      <point x="32" y="687"/>
      <point x="34" y="690" type="curve" smooth="yes"/>
      <point x="42" y="701"/>
      <point x="48" y="700"/>
      <point x="60" y="700" type="curve" smooth="yes"/>
      <point x="118" y="700"/>
      <point x="303" y="700"/>
      <point x="360" y="700" type="curve" smooth="yes"/>
      <point x="375" y="700"/>
      <point x="377" y="659"/>
      <point x="377" y="639" type="curve" smooth="yes"/>
      <point x="377" y="619"/>
      <point x="375" y="567"/>
      <point x="362" y="567" type="curve" smooth="yes"/>
      <point x="321" y="567"/>
      <point x="249" y="567"/>
      <point x="209" y="567" type="curve" smooth="yes"/>
      <point x="198" y="567"/>
      <point x="192" y="567"/>
      <point x="186" y="560" type="curve" smooth="yes"/>
      <point x="180" y="553"/>
      <point x="180" y="549"/>
      <point x="180" y="539" type="curve" smooth="yes"/>
      <point x="180" y="474"/>
      <point x="180" y="537"/>
      <point x="180" y="473" type="curve" smooth="yes"/>
      <point x="180" y="458"/>
      <point x="177" y="434"/>
      <point x="194" y="435" type="curve" smooth="yes"/>
      <point x="206" y="435"/>
      <point x="217" y="451"/>
      <point x="265" y="451" type="curve" smooth="yes"/>
      <point x="310" y="451"/>
      <point x="332" y="434"/>
      <point x="353" y="410" type="curve" smooth="yes"/>
      <point x="374" y="386"/>
      <point x="380" y="362"/>
      <point x="380" y="331" type="curve" smooth="yes"/>
      <point x="380" y="299"/>
      <point x="380" y="265"/>
    </contour>
  </outline>
</glyph>
<glyph name="six" format="1">
  <advance width="410"/>
  <unicode hex="0036"/>
  <outline>
    <contour>
      <point x="380" y="163" type="curve" smooth="yes"/>
      <point x="380" y="61"/>
      <point x="310" y="0"/>
      <point x="205" y="0" type="curve" smooth="yes"/>
      <point x="104" y="0"/>
      <point x="30" y="65"/>
      <point x="30" y="164" type="curve" smooth="yes"/>
      <point x="30" y="289"/>
      <point x="30" y="305"/>
      <point x="30" y="439" type="curve" smooth="yes"/>
      <point x="30" y="494"/>
      <point x="33" y="527"/>
      <point x="70" y="577" type="curve" smooth="yes"/>
      <point x="99" y="617"/>
      <point x="156" y="696"/>
      <point x="370" y="701" type="curve" smooth="yes"/>
      <point x="377" y="701"/>
      <point x="376" y="648"/>
      <point x="376" y="638" type="curve" smooth="yes"/>
      <point x="376" y="628"/>
      <point x="376" y="575"/>
      <point x="370" y="574" type="curve" smooth="yes"/>
      <point x="265" y="561"/>
      <point x="233" y="557"/>
      <point x="198" y="522" type="curve" smooth="yes"/>
      <point x="180" y="504"/>
      <point x="180" y="482"/>
      <point x="180" y="466" type="curve" smooth="yes"/>
      <point x="180" y="437"/>
      <point x="180" y="464"/>
      <point x="180" y="435" type="curve" smooth="yes"/>
      <point x="180" y="429"/>
      <point x="177" y="416"/>
      <point x="184" y="416" type="curve" smooth="yes"/>
      <point x="188" y="416"/>
      <point x="198" y="443"/>
      <point x="270" y="443" type="curve" smooth="yes"/>
      <point x="314" y="443"/>
      <point x="380" y="416"/>
      <point x="380" y="276" type="curve" smooth="yes"/>
      <point x="380" y="217"/>
      <point x="380" y="224"/>
    </contour>
    <contour>
      <point x="230" y="205" type="curve" smooth="yes"/>
      <point x="230" y="236"/>
      <point x="230" y="248"/>
      <point x="230" y="273" type="curve" smooth="yes"/>
      <point x="230" y="301"/>
      <point x="234" y="333"/>
      <point x="205" y="333" type="curve" smooth="yes"/>
      <point x="175" y="333"/>
      <point x="180" y="301"/>
      <point x="180" y="273" type="curve" smooth="yes"/>
      <point x="180" y="245"/>
      <point x="180" y="225"/>
      <point x="180" y="205" type="curve" smooth="yes"/>
      <point x="180" y="177"/>
      <point x="175" y="145"/>
      <point x="205" y="145" type="curve" smooth="yes"/>
      <point x="234" y="145"/>
      <point x="230" y="177"/>
    </contour>
  </outline>
</glyph>
<glyph name="seven" format="1">
  <advance width="410"/>
  <unicode hex="0037"/>
  <outline>
    <contour>
      <point x="379" y="602" type="curve" smooth="yes"/>
      <point x="379" y="579"/>
      <point x="367" y="576"/>
      <point x="322" y="478" type="curve" smooth="yes"/>
      <point x="302" y="435"/>
      <point x="282" y="372"/>
      <point x="265" y="302" type="curve" smooth="yes"/>
      <point x="247" y="228"/>
      <point x="232" y="146"/>
      <point x="223" y="67" type="curve" smooth="yes"/>
      <point x="221" y="53"/>
      <point x="220" y="11"/>
      <point x="215" y="7" type="curve" smooth="yes"/>
      <point x="205" y="-1"/>
      <point x="146" y="0"/>
      <point x="135" y="0" type="curve" smooth="yes"/>
      <point x="124" y="0"/>
      <point x="89" y="-2"/>
      <point x="81" y="5" type="curve" smooth="yes"/>
      <point x="75" y="11"/>
      <point x="78" y="37"/>
      <point x="79" y="57" type="curve" smooth="yes"/>
      <point x="84" y="140"/>
      <point x="98" y="238"/>
      <point x="119" y="328" type="curve" smooth="yes"/>
      <point x="136" y="404"/>
      <point x="158" y="475"/>
      <point x="185" y="526" type="curve" smooth="yes"/>
      <point x="192" y="539"/>
      <point x="189" y="559"/>
      <point x="184" y="566" type="curve" smooth="yes"/>
      <point x="180" y="571"/>
      <point x="152" y="570"/>
      <point x="132" y="570" type="curve" smooth="yes"/>
      <point x="97" y="570"/>
      <point x="75" y="570"/>
      <point x="42" y="570" type="curve" smooth="yes"/>
      <point x="32" y="570"/>
      <point x="30" y="617"/>
      <point x="30" y="637" type="curve" smooth="yes"/>
      <point x="30" y="661"/>
      <point x="30" y="700"/>
      <point x="40" y="700" type="curve" smooth="yes"/>
      <point x="143" y="700"/>
      <point x="289" y="700"/>
      <point x="363" y="700" type="curve" smooth="yes"/>
      <point x="375" y="700"/>
      <point x="376" y="694"/>
      <point x="377" y="691" type="curve" smooth="yes"/>
      <point x="379" y="686"/>
      <point x="379" y="657"/>
      <point x="379" y="653" type="curve" smooth="yes"/>
      <point x="379" y="619"/>
      <point x="379" y="636"/>
    </contour>
  </outline>
</glyph>
<glyph name="eight" format="1">
  <advance width="410"/>
  <unicode hex="0038"/>
  <outline>
    <contour>
      <point x="380" y="164" type="curve" smooth="yes"/>
      <point x="380" y="61"/>
      <point x="310" y="0"/>
      <point x="205" y="0" type="curve" smooth="yes"/>
      <point x="104" y="0"/>
      <point x="30" y="65"/>
      <point x="30" y="164" type="curve" smooth="yes"/>
      <point x="30" y="228"/>
      <point x="30" y="216"/>
      <point x="30" y="283" type="curve" smooth="yes"/>
      <point x="30" y="312"/>
      <point x="38" y="335"/>
      <point x="49" y="346" type="curve" smooth="yes"/>
      <point x="61" y="359"/>
      <point x="75" y="367"/>
      <point x="87" y="371" type="curve"/>
      <point x="75" y="375"/>
      <point x="62" y="387"/>
      <point x="50" y="400" type="curve" smooth="yes"/>
      <point x="39" y="411"/>
      <point x="30" y="432"/>
      <point x="30" y="463" type="curve" smooth="yes"/>
      <point x="30" y="515"/>
      <point x="30" y="486"/>
      <point x="30" y="536" type="curve" smooth="yes"/>
      <point x="30" y="635"/>
      <point x="104" y="700"/>
      <point x="205" y="700" type="curve" smooth="yes"/>
      <point x="310" y="700"/>
      <point x="380" y="639"/>
      <point x="380" y="536" type="curve" smooth="yes"/>
      <point x="380" y="486"/>
      <point x="380" y="513"/>
      <point x="380" y="460" type="curve" smooth="yes"/>
      <point x="380" y="427"/>
      <point x="370" y="405"/>
      <point x="358" y="394" type="curve" smooth="yes"/>
      <point x="343" y="382"/>
      <point x="332" y="373"/>
      <point x="320" y="369" type="curve"/>
      <point x="332" y="365"/>
      <point x="341" y="357"/>
      <point x="354" y="346" type="curve" smooth="yes"/>
      <point x="368" y="334"/>
      <point x="380" y="309"/>
      <point x="380" y="272" type="curve" smooth="yes"/>
      <point x="380" y="209"/>
      <point x="380" y="225"/>
    </contour>
    <contour>
      <point x="230" y="469" type="curve" smooth="yes"/>
      <point x="230" y="490"/>
      <point x="230" y="475"/>
      <point x="230" y="495" type="curve" smooth="yes"/>
      <point x="230" y="523"/>
      <point x="234" y="555"/>
      <point x="205" y="555" type="curve" smooth="yes"/>
      <point x="175" y="555"/>
      <point x="180" y="523"/>
      <point x="180" y="495" type="curve" smooth="yes"/>
      <point x="180" y="476"/>
      <point x="180" y="492"/>
      <point x="180" y="469" type="curve" smooth="yes"/>
      <point x="180" y="441"/>
      <point x="175" y="409"/>
      <point x="205" y="409" type="curve" smooth="yes"/>
      <point x="234" y="409"/>
      <point x="230" y="441"/>
    </contour>
    <contour>
      <point x="230" y="205" type="curve" smooth="yes"/>
      <point x="230" y="237"/>
      <point x="230" y="244"/>
      <point x="230" y="259" type="curve" smooth="yes"/>
      <point x="230" y="287"/>
      <point x="234" y="319"/>
      <point x="205" y="319" type="curve" smooth="yes"/>
      <point x="175" y="319"/>
      <point x="180" y="287"/>
      <point x="180" y="259" type="curve" smooth="yes"/>
      <point x="180" y="241"/>
      <point x="180" y="236"/>
      <point x="180" y="205" type="curve" smooth="yes"/>
      <point x="180" y="177"/>
      <point x="175" y="145"/>
      <point x="205" y="145" type="curve" smooth="yes"/>
      <point x="234" y="145"/>
      <point x="230" y="177"/>
    </contour>
  </outline>
</glyph>
<glyph name="nine" format="1">
  <advance width="410"/>
  <unicode hex="0039"/>
  <outline>
    <contour>
      <point x="380" y="262" type="curve" smooth="yes"/>
      <point x="380" y="207"/>
      <point x="377" y="174"/>
      <point x="340" y="124" type="curve" smooth="yes"/>
      <point x="311" y="84"/>
      <point x="254" y="5"/>
      <point x="40" y="0" type="curve" smooth="yes"/>
      <point x="33" y="0"/>
      <point x="34" y="53"/>
      <point x="34" y="63" type="curve" smooth="yes"/>
      <point x="34" y="73"/>
      <point x="34" y="126"/>
      <point x="40" y="127" type="curve" smooth="yes"/>
      <point x="145" y="140"/>
      <point x="177" y="144"/>
      <point x="212" y="179" type="curve" smooth="yes"/>
      <point x="230" y="197"/>
      <point x="230" y="209"/>
      <point x="230" y="225" type="curve" smooth="yes"/>
      <point x="230" y="254"/>
      <point x="230" y="227"/>
      <point x="230" y="256" type="curve" smooth="yes"/>
      <point x="230" y="262"/>
      <point x="233" y="275"/>
      <point x="226" y="275" type="curve" smooth="yes"/>
      <point x="222" y="275"/>
      <point x="219" y="248"/>
      <point x="147" y="248" type="curve" smooth="yes"/>
      <point x="110" y="248"/>
      <point x="30" y="280"/>
      <point x="30" y="415" type="curve" smooth="yes"/>
      <point x="30" y="474"/>
      <point x="30" y="477"/>
      <point x="30" y="538" type="curve" smooth="yes"/>
      <point x="30" y="640"/>
      <point x="100" y="701"/>
      <point x="205" y="701" type="curve" smooth="yes"/>
      <point x="306" y="701"/>
      <point x="380" y="636"/>
      <point x="380" y="537" type="curve" smooth="yes"/>
      <point x="380" y="412"/>
      <point x="380" y="396"/>
    </contour>
    <contour>
      <point x="230" y="428" type="curve" smooth="yes"/>
      <point x="230" y="452"/>
      <point x="230" y="470"/>
      <point x="230" y="496" type="curve" smooth="yes"/>
      <point x="230" y="524"/>
      <point x="235" y="556"/>
      <point x="205" y="556" type="curve" smooth="yes"/>
      <point x="176" y="556"/>
      <point x="180" y="524"/>
      <point x="180" y="496" type="curve" smooth="yes"/>
      <point x="180" y="465"/>
      <point x="180" y="459"/>
      <point x="180" y="428" type="curve" smooth="yes"/>
      <point x="180" y="400"/>
      <point x="176" y="368"/>
      <point x="205" y="368" type="curve" smooth="yes"/>
      <point x="235" y="368"/>
      <point x="230" y="400"/>
    </contour>
  </outline>
</glyph>
<glyph name="colon" format="1">
  <advance width="206"/>
  <unicode hex="003A"/>
  <outline>
    <contour>
      <point x="174" y="347" type="curve" smooth="yes"/>
      <point x="172" y="306"/>
      <point x="144" y="274"/>
      <point x="104" y="271" type="curve" smooth="yes"/>
      <point x="44" y="267"/>
      <point x="34" y="305"/>
      <point x="30" y="342" type="curve" smooth="yes"/>
      <point x="25" y="389"/>
      <point x="60" y="436"/>
      <point x="104" y="431" type="curve" smooth="yes"/>
      <point x="183" y="422"/>
      <point x="177" y="390"/>
    </contour>
    <contour>
      <point x="174" y="73" type="curve" smooth="yes"/>
      <point x="172" y="32"/>
      <point x="144" y="0"/>
      <point x="104" y="-3" type="curve" smooth="yes"/>
      <point x="44" y="-7"/>
      <point x="34" y="31"/>
      <point x="30" y="68" type="curve" smooth="yes"/>
      <point x="25" y="115"/>
      <point x="60" y="162"/>
      <point x="104" y="157" type="curve" smooth="yes"/>
      <point x="183" y="148"/>
      <point x="177" y="116"/>
    </contour>
  </outline>
</glyph>
<glyph name="semicolon" format="1">
  <advance width="206"/>
  <unicode hex="003B"/>
  <outline>
    <contour>
      <point x="174" y="347" type="curve" smooth="yes"/>
      <point x="172" y="306"/>
      <point x="144" y="274"/>
      <point x="104" y="271" type="curve" smooth="yes"/>
      <point x="44" y="267"/>
      <point x="34" y="305"/>
      <point x="30" y="342" type="curve" smooth="yes"/>
      <point x="25" y="389"/>
      <point x="60" y="436"/>
      <point x="104" y="431" type="curve" smooth="yes"/>
      <point x="183" y="422"/>
      <point x="177" y="390"/>
    </contour>
    <contour>
      <point x="175" y="85" type="curve" smooth="yes"/>
      <point x="175" y="47"/>
      <point x="175" y="26"/>
      <point x="161" y="-8" type="curve" smooth="yes"/>
      <point x="149" y="-37"/>
      <point x="109" y="-127"/>
      <point x="59" y="-118" type="curve" smooth="yes"/>
      <point x="31" y="-113"/>
      <point x="73" y="-31"/>
      <point x="77" y="-15" type="curve" smooth="yes"/>
      <point x="82" y="3"/>
      <point x="59" y="3"/>
      <point x="51" y="10" type="curve" smooth="yes"/>
      <point x="37" y="21"/>
      <point x="30" y="45"/>
      <point x="30" y="61" type="curve" smooth="yes"/>
      <point x="30" y="112"/>
      <point x="53" y="157"/>
      <point x="95" y="157" type="curve" smooth="yes"/>
      <point x="147" y="157"/>
      <point x="175" y="127"/>
    </contour>
  </outline>
</glyph>
<glyph name="less" format="1">
  <advance width="303"/>
  <unicode hex="003C"/>
  <outline>
    <contour>
      <point x="272" y="426" type="curve" smooth="yes"/>
      <point x="236" y="380"/>
      <point x="135" y="255"/>
      <point x="135" y="248" type="curve" smooth="yes"/>
      <point x="135" y="241"/>
      <point x="233" y="112"/>
      <point x="266" y="68" type="curve" smooth="yes"/>
      <point x="278" y="52"/>
      <point x="270" y="46"/>
      <point x="261" y="44" type="curve" smooth="yes"/>
      <point x="251" y="41"/>
      <point x="213" y="22"/>
      <point x="203" y="17" type="curve"/>
      <point x="194" y="11"/>
      <point x="27" y="235"/>
      <point x="27" y="247" type="curve" smooth="yes"/>
      <point x="27" y="259"/>
      <point x="202" y="480"/>
      <point x="211" y="474" type="curve"/>
      <point x="221" y="469"/>
      <point x="257" y="453"/>
      <point x="267" y="450" type="curve" smooth="yes"/>
      <point x="276" y="448"/>
      <point x="284" y="441"/>
    </contour>
  </outline>
</glyph>
<glyph name="equal" format="1">
  <advance width="293"/>
  <unicode hex="003D"/>
  <outline>
    <contour>
      <point x="261" y="300" type="curve" smooth="yes"/>
      <point x="248" y="294"/>
      <point x="237" y="296"/>
      <point x="224" y="295" type="curve" smooth="yes"/>
      <point x="190" y="292"/>
      <point x="108" y="292"/>
      <point x="73" y="293" type="curve" smooth="yes"/>
      <point x="56" y="293"/>
      <point x="47" y="291"/>
      <point x="30" y="298" type="curve" smooth="yes"/>
      <point x="23" y="301"/>
      <point x="17" y="373"/>
      <point x="31" y="378" type="curve" smooth="yes"/>
      <point x="46" y="383"/>
      <point x="54" y="380"/>
      <point x="68" y="380" type="curve" smooth="yes"/>
      <point x="99" y="381"/>
      <point x="179" y="379"/>
      <point x="209" y="379" type="curve" smooth="yes"/>
      <point x="227" y="379"/>
      <point x="239" y="378"/>
      <point x="257" y="378" type="curve" smooth="yes"/>
      <point x="262" y="378"/>
      <point x="266" y="302"/>
    </contour>
    <contour>
      <point x="261" y="132" type="curve" smooth="yes"/>
      <point x="248" y="126"/>
      <point x="237" y="128"/>
      <point x="224" y="127" type="curve" smooth="yes"/>
      <point x="190" y="124"/>
      <point x="108" y="124"/>
      <point x="73" y="125" type="curve" smooth="yes"/>
      <point x="56" y="125"/>
      <point x="47" y="126"/>
      <point x="30" y="130" type="curve" smooth="yes"/>
      <point x="24" y="131"/>
      <point x="22" y="205"/>
      <point x="31" y="210" type="curve" smooth="yes"/>
      <point x="45" y="218"/>
      <point x="54" y="212"/>
      <point x="68" y="212" type="curve" smooth="yes"/>
      <point x="99" y="213"/>
      <point x="179" y="211"/>
      <point x="209" y="211" type="curve" smooth="yes"/>
      <point x="227" y="211"/>
      <point x="254" y="217"/>
      <point x="257" y="210" type="curve" smooth="yes"/>
      <point x="263" y="195"/>
      <point x="266" y="134"/>
    </contour>
  </outline>
</glyph>
<glyph name="greater" format="1">
  <advance width="303"/>
  <unicode hex="003E"/>
  <outline>
    <contour>
      <point x="272" y="247" type="curve" smooth="yes"/>
      <point x="272" y="235"/>
      <point x="115" y="11"/>
      <point x="106" y="17" type="curve"/>
      <point x="96" y="22"/>
      <point x="60" y="41"/>
      <point x="50" y="44" type="curve" smooth="yes"/>
      <point x="41" y="46"/>
      <point x="34" y="51"/>
      <point x="45" y="68" type="curve" smooth="yes"/>
      <point x="76" y="114"/>
      <point x="164" y="241"/>
      <point x="164" y="248" type="curve" smooth="yes"/>
      <point x="164" y="255"/>
      <point x="59" y="385"/>
      <point x="27" y="426" type="curve" smooth="yes"/>
      <point x="16" y="440"/>
      <point x="23" y="448"/>
      <point x="32" y="450" type="curve" smooth="yes"/>
      <point x="42" y="453"/>
      <point x="78" y="469"/>
      <point x="88" y="474" type="curve"/>
      <point x="97" y="480"/>
      <point x="272" y="259"/>
    </contour>
  </outline>
</glyph>
<glyph name="question" format="1">
  <advance width="406"/>
  <unicode hex="003F"/>
  <outline>
    <contour>
      <point x="376" y="499" type="curve" smooth="yes"/>
      <point x="376" y="415"/>
      <point x="338" y="378"/>
      <point x="303" y="340" type="curve" smooth="yes"/>
      <point x="256" y="289"/>
      <point x="264" y="272"/>
      <point x="264" y="221" type="curve" smooth="yes"/>
      <point x="264" y="206"/>
      <point x="217" y="207"/>
      <point x="186" y="208" type="curve" smooth="yes"/>
      <point x="157" y="209"/>
      <point x="114" y="206"/>
      <point x="114" y="228" type="curve" smooth="yes"/>
      <point x="114" y="250"/>
      <point x="115" y="243"/>
      <point x="115" y="270" type="curve" smooth="yes"/>
      <point x="115" y="328"/>
      <point x="121" y="335"/>
      <point x="152" y="373" type="curve" smooth="yes"/>
      <point x="175" y="401"/>
      <point x="230" y="458"/>
      <point x="230" y="499" type="curve" smooth="yes"/>
      <point x="230" y="529"/>
      <point x="234" y="559"/>
      <point x="205" y="559" type="curve" smooth="yes"/>
      <point x="175" y="559"/>
      <point x="180" y="522"/>
      <point x="180" y="499" type="curve" smooth="yes"/>
      <point x="180" y="480"/>
      <point x="180" y="498"/>
      <point x="180" y="483" type="curve" smooth="yes"/>
      <point x="180" y="472"/>
      <point x="123" y="470"/>
      <point x="101" y="470" type="curve" smooth="yes"/>
      <point x="78" y="470"/>
      <point x="34" y="470"/>
      <point x="34" y="484" type="curve" smooth="yes"/>
      <point x="34" y="503"/>
      <point x="34" y="521"/>
      <point x="34" y="540" type="curve" smooth="yes"/>
      <point x="34" y="639"/>
      <point x="104" y="704"/>
      <point x="205" y="704" type="curve" smooth="yes"/>
      <point x="310" y="704"/>
      <point x="376" y="643"/>
      <point x="376" y="540" type="curve" smooth="yes"/>
      <point x="376" y="502"/>
      <point x="376" y="539"/>
    </contour>
    <contour>
      <point x="259" y="73" type="curve" smooth="yes"/>
      <point x="257" y="32"/>
      <point x="229" y="0"/>
      <point x="189" y="-3" type="curve" smooth="yes"/>
      <point x="129" y="-7"/>
      <point x="119" y="31"/>
      <point x="115" y="68" type="curve" smooth="yes"/>
      <point x="110" y="115"/>
      <point x="145" y="162"/>
      <point x="189" y="157" type="curve" smooth="yes"/>
      <point x="268" y="148"/>
      <point x="262" y="116"/>
    </contour>
  </outline>
</glyph>
<glyph name="A" format="1">
  <advance width="392"/>
  <unicode hex="0041"/>
  <outline>
    <contour>
      <point x="382" y="10" type="curve" smooth="yes"/>
      <point x="384" y="-1"/>
      <point x="330" y="0"/>
      <point x="303" y="0" type="curve" smooth="yes"/>
      <point x="274" y="0"/>
      <point x="241" y="-2"/>
      <point x="239" y="12" type="curve" smooth="yes"/>
      <point x="231" y="68"/>
      <point x="228" y="93"/>
      <point x="220" y="148" type="curve" smooth="yes"/>
      <point x="219" y="158"/>
      <point x="210" y="156"/>
      <point x="194" y="156" type="curve" smooth="yes"/>
      <point x="175" y="156"/>
      <point x="165" y="158"/>
      <point x="164" y="148" type="curve" smooth="yes"/>
      <point x="158" y="92"/>
      <point x="155" y="68"/>
      <point x="150" y="10" type="curve" smooth="yes"/>
      <point x="149" y="-1"/>
      <point x="114" y="0"/>
      <point x="82" y="0" type="curve" smooth="yes"/>
      <point x="67" y="0"/>
      <point x="9" y="0"/>
      <point x="10" y="9" type="curve" smooth="yes"/>
      <point x="53" y="272"/>
      <point x="78" y="428"/>
      <point x="116" y="686" type="curve" smooth="yes"/>
      <point x="118" y="700"/>
      <point x="170" y="701"/>
      <point x="192" y="701" type="curve" smooth="yes"/>
      <point x="217" y="701"/>
      <point x="262" y="700"/>
      <point x="265" y="683" type="curve" smooth="yes"/>
      <point x="308" y="427"/>
      <point x="335" y="272"/>
    </contour>
    <contour>
      <point x="213" y="258" type="curve" smooth="yes"/>
      <point x="210" y="318"/>
      <point x="207" y="348"/>
      <point x="202" y="427" type="curve" smooth="yes"/>
      <point x="202" y="432"/>
      <point x="199" y="470"/>
      <point x="192" y="470" type="curve" smooth="yes"/>
      <point x="186" y="470"/>
      <point x="183" y="426"/>
      <point x="183" y="422" type="curve" smooth="yes"/>
      <point x="179" y="350"/>
      <point x="175" y="320"/>
      <point x="172" y="259" type="curve" smooth="yes"/>
      <point x="172" y="251"/>
      <point x="174" y="251"/>
      <point x="191" y="251" type="curve" smooth="yes"/>
      <point x="205" y="251"/>
      <point x="213" y="248"/>
    </contour>
  </outline>
</glyph>
<glyph name="B" format="1">
  <advance width="415"/>
  <unicode hex="0042"/>
  <outline>
    <contour>
      <point x="390" y="164" type="curve" smooth="yes"/>
      <point x="390" y="61"/>
      <point x="320" y="0"/>
      <point x="215" y="0" type="curve" smooth="yes"/>
      <point x="173" y="0"/>
      <point x="99" y="0"/>
      <point x="70" y="0" type="curve" smooth="yes"/>
      <point x="40" y="0"/>
      <point x="40" y="-1"/>
      <point x="40" y="30" type="curve" smooth="yes"/>
      <point x="40" y="179"/>
      <point x="40" y="521"/>
      <point x="40" y="670" type="curve" smooth="yes"/>
      <point x="40" y="700"/>
      <point x="41" y="700"/>
      <point x="70" y="700" type="curve" smooth="yes"/>
      <point x="96" y="700"/>
      <point x="178" y="700"/>
      <point x="211" y="700" type="curve" smooth="yes"/>
      <point x="316" y="700"/>
      <point x="386" y="639"/>
      <point x="386" y="536" type="curve" smooth="yes"/>
      <point x="386" y="494"/>
      <point x="386" y="496"/>
      <point x="386" y="456" type="curve" smooth="yes"/>
      <point x="386" y="366"/>
      <point x="312" y="365"/>
      <point x="312" y="360" type="curve" smooth="yes"/>
      <point x="312" y="356"/>
      <point x="390" y="357"/>
      <point x="390" y="271" type="curve" smooth="yes"/>
      <point x="390" y="171"/>
      <point x="390" y="206"/>
    </contour>
    <contour>
      <point x="236" y="454" type="curve" smooth="yes"/>
      <point x="236" y="478"/>
      <point x="236" y="484"/>
      <point x="236" y="495" type="curve" smooth="yes"/>
      <point x="236" y="523"/>
      <point x="240" y="555"/>
      <point x="211" y="555" type="curve" smooth="yes"/>
      <point x="194" y="555"/>
      <point x="190" y="556"/>
      <point x="190" y="543" type="curve" smooth="yes"/>
      <point x="190" y="527"/>
      <point x="190" y="449"/>
      <point x="190" y="433" type="curve" smooth="yes"/>
      <point x="190" y="420"/>
      <point x="196" y="421"/>
      <point x="211" y="421" type="curve" smooth="yes"/>
      <point x="233" y="421"/>
      <point x="236" y="443"/>
    </contour>
    <contour>
      <point x="240" y="186" type="curve" smooth="yes"/>
      <point x="240" y="197"/>
      <point x="240" y="215"/>
      <point x="240" y="226" type="curve" smooth="yes"/>
      <point x="240" y="254"/>
      <point x="244" y="286"/>
      <point x="215" y="286" type="curve" smooth="yes"/>
      <point x="195" y="286"/>
      <point x="190" y="287"/>
      <point x="190" y="274" type="curve" smooth="yes"/>
      <point x="190" y="257"/>
      <point x="190" y="179"/>
      <point x="190" y="157" type="curve" smooth="yes"/>
      <point x="190" y="144"/>
      <point x="189" y="145"/>
      <point x="215" y="145" type="curve" smooth="yes"/>
      <point x="236" y="145"/>
      <point x="240" y="155"/>
    </contour>
  </outline>
</glyph>
<glyph name="C" format="1">
  <advance width="387"/>
  <unicode hex="0043"/>
  <outline>
    <contour>
      <point x="367" y="164" type="curve" smooth="yes"/>
      <point x="367" y="61"/>
      <point x="305" y="0"/>
      <point x="200" y="0" type="curve" smooth="yes"/>
      <point x="99" y="0"/>
      <point x="25" y="65"/>
      <point x="25" y="164" type="curve" smooth="yes"/>
      <point x="25" y="313"/>
      <point x="25" y="387"/>
      <point x="25" y="536" type="curve" smooth="yes"/>
      <point x="25" y="635"/>
      <point x="99" y="700"/>
      <point x="200" y="700" type="curve" smooth="yes"/>
      <point x="305" y="700"/>
      <point x="367" y="639"/>
      <point x="367" y="536" type="curve" smooth="yes"/>
      <point x="367" y="525"/>
      <point x="367" y="479"/>
      <point x="367" y="472" type="curve" smooth="yes"/>
      <point x="367" y="463"/>
      <point x="365" y="458"/>
      <point x="291" y="458" type="curve" smooth="yes"/>
      <point x="245" y="458"/>
      <point x="225" y="455"/>
      <point x="225" y="468" type="curve" smooth="yes"/>
      <point x="225" y="482"/>
      <point x="225" y="519"/>
      <point x="225" y="526" type="curve" smooth="yes"/>
      <point x="225" y="532"/>
      <point x="223" y="555"/>
      <point x="200" y="555" type="curve" smooth="yes"/>
      <point x="170" y="555"/>
      <point x="175" y="523"/>
      <point x="175" y="495" type="curve" smooth="yes"/>
      <point x="175" y="381"/>
      <point x="175" y="319"/>
      <point x="175" y="205" type="curve" smooth="yes"/>
      <point x="175" y="177"/>
      <point x="175" y="145"/>
      <point x="200" y="145" type="curve" smooth="yes"/>
      <point x="224" y="145"/>
      <point x="225" y="169"/>
      <point x="225" y="174" type="curve" smooth="yes"/>
      <point x="225" y="182"/>
      <point x="225" y="191"/>
      <point x="225" y="219" type="curve" smooth="yes"/>
      <point x="225" y="238"/>
      <point x="231" y="236"/>
      <point x="301" y="236" type="curve" smooth="yes"/>
      <point x="360" y="236"/>
      <point x="367" y="233"/>
      <point x="367" y="207" type="curve" smooth="yes"/>
      <point x="367" y="197"/>
      <point x="367" y="171"/>
    </contour>
  </outline>
</glyph>
<glyph name="D" format="1">
  <advance width="415"/>
  <unicode hex="0044"/>
  <outline>
    <contour>
      <point x="390" y="164" type="curve" smooth="yes"/>
      <point x="390" y="61"/>
      <point x="320" y="0"/>
      <point x="215" y="0" type="curve" smooth="yes"/>
      <point x="173" y="0"/>
      <point x="99" y="0"/>
      <point x="70" y="0" type="curve" smooth="yes"/>
      <point x="40" y="0"/>
      <point x="40" y="-1"/>
      <point x="40" y="30" type="curve" smooth="yes"/>
      <point x="40" y="179"/>
      <point x="40" y="521"/>
      <point x="40" y="670" type="curve" smooth="yes"/>
      <point x="40" y="700"/>
      <point x="41" y="700"/>
      <point x="70" y="700" type="curve" smooth="yes"/>
      <point x="96" y="700"/>
      <point x="182" y="700"/>
      <point x="215" y="700" type="curve" smooth="yes"/>
      <point x="320" y="700"/>
      <point x="390" y="639"/>
      <point x="390" y="536" type="curve" smooth="yes"/>
      <point x="390" y="391"/>
      <point x="390" y="310"/>
    </contour>
    <contour>
      <point x="240" y="205" type="curve" smooth="yes"/>
      <point x="240" y="318"/>
      <point x="240" y="382"/>
      <point x="240" y="495" type="curve" smooth="yes"/>
      <point x="240" y="523"/>
      <point x="244" y="555"/>
      <point x="215" y="555" type="curve" smooth="yes"/>
      <point x="189" y="555"/>
      <point x="190" y="556"/>
      <point x="190" y="543" type="curve" smooth="yes"/>
      <point x="190" y="429"/>
      <point x="190" y="271"/>
      <point x="190" y="157" type="curve" smooth="yes"/>
      <point x="190" y="144"/>
      <point x="189" y="145"/>
      <point x="215" y="145" type="curve" smooth="yes"/>
      <point x="244" y="145"/>
      <point x="240" y="177"/>
    </contour>
  </outline>
</glyph>
<glyph name="E" format="1">
  <advance width="351"/>
  <unicode hex="0045"/>
  <outline>
    <contour>
      <point x="333" y="73" type="curve" smooth="yes"/>
      <point x="333" y="1"/>
      <point x="332" y="0"/>
      <point x="321" y="0" type="curve" smooth="yes"/>
      <point x="278" y="0"/>
      <point x="129" y="0"/>
      <point x="86" y="0" type="curve" smooth="yes"/>
      <point x="70" y="0"/>
      <point x="53" y="-2"/>
      <point x="46" y="4" type="curve" smooth="yes"/>
      <point x="38" y="11"/>
      <point x="40" y="26"/>
      <point x="40" y="38" type="curve" smooth="yes"/>
      <point x="40" y="278"/>
      <point x="40" y="430"/>
      <point x="40" y="670" type="curve" smooth="yes"/>
      <point x="40" y="683"/>
      <point x="41" y="684"/>
      <point x="47" y="692" type="curve" smooth="yes"/>
      <point x="53" y="700"/>
      <point x="60" y="700"/>
      <point x="70" y="700" type="curve" smooth="yes"/>
      <point x="125" y="700"/>
      <point x="264" y="700"/>
      <point x="319" y="700" type="curve" smooth="yes"/>
      <point x="331" y="700"/>
      <point x="331" y="697"/>
      <point x="331" y="636" type="curve" smooth="yes"/>
      <point x="331" y="564"/>
      <point x="331" y="560"/>
      <point x="318" y="560" type="curve" smooth="yes"/>
      <point x="291" y="560"/>
      <point x="237" y="560"/>
      <point x="218" y="560" type="curve" smooth="yes"/>
      <point x="210" y="560"/>
      <point x="198" y="559"/>
      <point x="195" y="555" type="curve" smooth="yes"/>
      <point x="190" y="548"/>
      <point x="190" y="549"/>
      <point x="190" y="536" type="curve" smooth="yes"/>
      <point x="190" y="469"/>
      <point x="190" y="530"/>
      <point x="190" y="463" type="curve" smooth="yes"/>
      <point x="190" y="454"/>
      <point x="188" y="443"/>
      <point x="196" y="437" type="curve" smooth="yes"/>
      <point x="203" y="432"/>
      <point x="210" y="433"/>
      <point x="218" y="433" type="curve" smooth="yes"/>
      <point x="235" y="433"/>
      <point x="258" y="433"/>
      <point x="267" y="433" type="curve" smooth="yes"/>
      <point x="279" y="433"/>
      <point x="278" y="429"/>
      <point x="278" y="362" type="curve" smooth="yes"/>
      <point x="278" y="298"/>
      <point x="280" y="294"/>
      <point x="267" y="294" type="curve" smooth="yes"/>
      <point x="259" y="294"/>
      <point x="240" y="294"/>
      <point x="222" y="294" type="curve" smooth="yes"/>
      <point x="212" y="294"/>
      <point x="201" y="293"/>
      <point x="197" y="291" type="curve"/>
      <point x="188" y="285"/>
      <point x="190" y="275"/>
      <point x="190" y="262" type="curve" smooth="yes"/>
      <point x="190" y="182"/>
      <point x="190" y="259"/>
      <point x="190" y="179" type="curve" smooth="yes"/>
      <point x="190" y="166"/>
      <point x="190" y="147"/>
      <point x="195" y="144" type="curve" smooth="yes"/>
      <point x="200" y="141"/>
      <point x="214" y="140"/>
      <point x="225" y="140" type="curve" smooth="yes"/>
      <point x="252" y="140"/>
      <point x="293" y="140"/>
      <point x="320" y="140" type="curve" smooth="yes"/>
      <point x="332" y="140"/>
      <point x="333" y="138"/>
    </contour>
  </outline>
</glyph>
<glyph name="F" format="1">
  <advance width="340"/>
  <unicode hex="0046"/>
  <outline>
    <contour>
      <point x="331" y="636" type="curve" smooth="yes"/>
      <point x="331" y="564"/>
      <point x="331" y="560"/>
      <point x="318" y="560" type="curve" smooth="yes"/>
      <point x="291" y="560"/>
      <point x="237" y="560"/>
      <point x="218" y="560" type="curve" smooth="yes"/>
      <point x="210" y="560"/>
      <point x="198" y="559"/>
      <point x="195" y="555" type="curve" smooth="yes"/>
      <point x="190" y="548"/>
      <point x="190" y="549"/>
      <point x="190" y="536" type="curve" smooth="yes"/>
      <point x="190" y="469"/>
      <point x="190" y="518"/>
      <point x="190" y="451" type="curve" smooth="yes"/>
      <point x="190" y="442"/>
      <point x="188" y="431"/>
      <point x="196" y="425" type="curve" smooth="yes"/>
      <point x="203" y="420"/>
      <point x="210" y="421"/>
      <point x="218" y="421" type="curve" smooth="yes"/>
      <point x="235" y="421"/>
      <point x="258" y="421"/>
      <point x="267" y="421" type="curve" smooth="yes"/>
      <point x="279" y="421"/>
      <point x="278" y="417"/>
      <point x="278" y="350" type="curve" smooth="yes"/>
      <point x="278" y="286"/>
      <point x="280" y="282"/>
      <point x="267" y="282" type="curve" smooth="yes"/>
      <point x="259" y="282"/>
      <point x="240" y="282"/>
      <point x="222" y="282" type="curve" smooth="yes"/>
      <point x="212" y="282"/>
      <point x="201" y="281"/>
      <point x="197" y="279" type="curve"/>
      <point x="188" y="273"/>
      <point x="190" y="263"/>
      <point x="190" y="250" type="curve" smooth="yes"/>
      <point x="190" y="170"/>
      <point x="190" y="148"/>
      <point x="190" y="19" type="curve" smooth="yes"/>
      <point x="190" y="-1"/>
      <point x="185" y="0"/>
      <point x="105" y="0" type="curve" smooth="yes"/>
      <point x="42" y="0"/>
      <point x="40" y="-1"/>
      <point x="40" y="19" type="curve" smooth="yes"/>
      <point x="40" y="259"/>
      <point x="40" y="430"/>
      <point x="40" y="670" type="curve" smooth="yes"/>
      <point x="40" y="683"/>
      <point x="41" y="684"/>
      <point x="47" y="692" type="curve" smooth="yes"/>
      <point x="53" y="700"/>
      <point x="60" y="700"/>
      <point x="70" y="700" type="curve" smooth="yes"/>
      <point x="125" y="700"/>
      <point x="264" y="700"/>
      <point x="319" y="700" type="curve" smooth="yes"/>
      <point x="331" y="700"/>
      <point x="331" y="697"/>
    </contour>
  </outline>
</glyph>
<glyph name="G" format="1">
  <advance width="398"/>
  <unicode hex="0047"/>
  <outline>
    <contour>
      <point x="375" y="18" type="curve" smooth="yes"/>
      <point x="375" y="14"/>
      <point x="374" y="0"/>
      <point x="365" y="0" type="curve" smooth="yes"/>
      <point x="358" y="0"/>
      <point x="350" y="0"/>
      <point x="345" y="0" type="curve" smooth="yes"/>
      <point x="332" y="0"/>
      <point x="312" y="52"/>
      <point x="306" y="52" type="curve" smooth="yes"/>
      <point x="296" y="52"/>
      <point x="288" y="0"/>
      <point x="200" y="0" type="curve" smooth="yes"/>
      <point x="99" y="0"/>
      <point x="25" y="65"/>
      <point x="25" y="164" type="curve" smooth="yes"/>
      <point x="25" y="313"/>
      <point x="25" y="387"/>
      <point x="25" y="536" type="curve" smooth="yes"/>
      <point x="25" y="635"/>
      <point x="99" y="700"/>
      <point x="200" y="700" type="curve" smooth="yes"/>
      <point x="305" y="700"/>
      <point x="375" y="639"/>
      <point x="375" y="536" type="curve" smooth="yes"/>
      <point x="375" y="525"/>
      <point x="375" y="479"/>
      <point x="375" y="472" type="curve" smooth="yes"/>
      <point x="375" y="463"/>
      <point x="365" y="458"/>
      <point x="291" y="458" type="curve" smooth="yes"/>
      <point x="245" y="458"/>
      <point x="225" y="455"/>
      <point x="225" y="468" type="curve" smooth="yes"/>
      <point x="225" y="482"/>
      <point x="225" y="519"/>
      <point x="225" y="526" type="curve" smooth="yes"/>
      <point x="225" y="532"/>
      <point x="223" y="555"/>
      <point x="200" y="555" type="curve" smooth="yes"/>
      <point x="170" y="555"/>
      <point x="175" y="523"/>
      <point x="175" y="495" type="curve" smooth="yes"/>
      <point x="175" y="381"/>
      <point x="175" y="319"/>
      <point x="175" y="205" type="curve" smooth="yes"/>
      <point x="175" y="177"/>
      <point x="170" y="145"/>
      <point x="200" y="145" type="curve" smooth="yes"/>
      <point x="224" y="145"/>
      <point x="225" y="169"/>
      <point x="225" y="174" type="curve" smooth="yes"/>
      <point x="225" y="178"/>
      <point x="225" y="237"/>
      <point x="225" y="264" type="curve" smooth="yes"/>
      <point x="225" y="278"/>
      <point x="218" y="278"/>
      <point x="211" y="278" type="curve" smooth="yes"/>
      <point x="198" y="278"/>
      <point x="195" y="281"/>
      <point x="195" y="288" type="curve" smooth="yes"/>
      <point x="195" y="302"/>
      <point x="195" y="339"/>
      <point x="195" y="347" type="curve" smooth="yes"/>
      <point x="195" y="366"/>
      <point x="211" y="364"/>
      <point x="281" y="364" type="curve" smooth="yes"/>
      <point x="356" y="364"/>
      <point x="375" y="358"/>
      <point x="375" y="335" type="curve" smooth="yes"/>
      <point x="375" y="325"/>
      <point x="375" y="25"/>
    </contour>
  </outline>
</glyph>
<glyph name="H" format="1">
  <advance width="430"/>
  <unicode hex="0048"/>
  <outline>
    <contour>
      <point x="390" y="21" type="curve" smooth="yes"/>
      <point x="390" y="0"/>
      <point x="390" y="0"/>
      <point x="316" y="0" type="curve" smooth="yes"/>
      <point x="241" y="0"/>
      <point x="240" y="2"/>
      <point x="240" y="21" type="curve" smooth="yes"/>
      <point x="240" y="116"/>
      <point x="240" y="182"/>
      <point x="240" y="277" type="curve" smooth="yes"/>
      <point x="240" y="289"/>
      <point x="239" y="290"/>
      <point x="228" y="290" type="curve" smooth="yes"/>
      <point x="215" y="290"/>
      <point x="202" y="290"/>
      <point x="197" y="290" type="curve" smooth="yes"/>
      <point x="191" y="290"/>
      <point x="189" y="289"/>
      <point x="189" y="276" type="curve" smooth="yes"/>
      <point x="189" y="179"/>
      <point x="189" y="114"/>
      <point x="189" y="17" type="curve" smooth="yes"/>
      <point x="189" y="1"/>
      <point x="189" y="0"/>
      <point x="112" y="0" type="curve" smooth="yes"/>
      <point x="40" y="0"/>
      <point x="40" y="1"/>
      <point x="40" y="15" type="curve" smooth="yes"/>
      <point x="40" y="266"/>
      <point x="40" y="441"/>
      <point x="40" y="681" type="curve" smooth="yes"/>
      <point x="40" y="699"/>
      <point x="41" y="699"/>
      <point x="112" y="699" type="curve" smooth="yes"/>
      <point x="190" y="699"/>
      <point x="190" y="698"/>
      <point x="190" y="680" type="curve" smooth="yes"/>
      <point x="190" y="598"/>
      <point x="190" y="529"/>
      <point x="190" y="448" type="curve" smooth="yes"/>
      <point x="190" y="431"/>
      <point x="192" y="430"/>
      <point x="204" y="430" type="curve" smooth="yes"/>
      <point x="214" y="430"/>
      <point x="218" y="430"/>
      <point x="230" y="430" type="curve" smooth="yes"/>
      <point x="237" y="430"/>
      <point x="240" y="430"/>
      <point x="240" y="445" type="curve" smooth="yes"/>
      <point x="240" y="529"/>
      <point x="240" y="612"/>
      <point x="240" y="684" type="curve" smooth="yes"/>
      <point x="240" y="699"/>
      <point x="243" y="699"/>
      <point x="315" y="699" type="curve" smooth="yes"/>
      <point x="389" y="699"/>
      <point x="390" y="699"/>
      <point x="390" y="683" type="curve" smooth="yes"/>
      <point x="390" y="446"/>
      <point x="390" y="268"/>
    </contour>
  </outline>
</glyph>
<glyph name="I" format="1">
  <advance width="230"/>
  <unicode hex="0049"/>
  <outline>
    <contour>
      <point x="190" y="17" type="curve" smooth="yes"/>
      <point x="190" y="1"/>
      <point x="189" y="0"/>
      <point x="112" y="0" type="curve" smooth="yes"/>
      <point x="40" y="0"/>
      <point x="40" y="1"/>
      <point x="40" y="15" type="curve" smooth="yes"/>
      <point x="40" y="266"/>
      <point x="40" y="441"/>
      <point x="40" y="681" type="curve" smooth="yes"/>
      <point x="40" y="699"/>
      <point x="41" y="699"/>
      <point x="112" y="699" type="curve" smooth="yes"/>
      <point x="190" y="699"/>
      <point x="190" y="698"/>
      <point x="190" y="680" type="curve" smooth="yes"/>
      <point x="190" y="598"/>
      <point x="190" y="276"/>
    </contour>
  </outline>
</glyph>
<glyph name="J" format="1">
  <advance width="380"/>
  <unicode hex="004A"/>
  <outline>
    <contour>
      <point x="356" y="164" type="curve" smooth="yes"/>
      <point x="356" y="61"/>
      <point x="293" y="0"/>
      <point x="188" y="0" type="curve" smooth="yes"/>
      <point x="87" y="0"/>
      <point x="20" y="65"/>
      <point x="20" y="164" type="curve" smooth="yes"/>
      <point x="20" y="194"/>
      <point x="20" y="190"/>
      <point x="20" y="205" type="curve" smooth="yes"/>
      <point x="20" y="234"/>
      <point x="17" y="235"/>
      <point x="88" y="235" type="curve" smooth="yes"/>
      <point x="159" y="235"/>
      <point x="156" y="233"/>
      <point x="156" y="205" type="curve" smooth="yes"/>
      <point x="156" y="177"/>
      <point x="161" y="145"/>
      <point x="188" y="145" type="curve" smooth="yes"/>
      <point x="217" y="145"/>
      <point x="220" y="177"/>
      <point x="220" y="205" type="curve" smooth="yes"/>
      <point x="219" y="318"/>
      <point x="220" y="557"/>
      <point x="220" y="670" type="curve" smooth="yes"/>
      <point x="220" y="698"/>
      <point x="225" y="700"/>
      <point x="284" y="700" type="curve" smooth="yes"/>
      <point x="360" y="700"/>
      <point x="356" y="700"/>
      <point x="356" y="670" type="curve" smooth="yes"/>
      <point x="356" y="525"/>
      <point x="356" y="310"/>
    </contour>
  </outline>
</glyph>
<glyph name="K" format="1">
  <advance width="453"/>
  <unicode hex="004B"/>
  <outline>
    <contour>
      <point x="443" y="12" type="curve" smooth="yes"/>
      <point x="445" y="6"/>
      <point x="445" y="0"/>
      <point x="370" y="0" type="curve" smooth="yes"/>
      <point x="300" y="0"/>
      <point x="293" y="-2"/>
      <point x="289" y="14" type="curve" smooth="yes"/>
      <point x="262" y="122"/>
      <point x="245" y="188"/>
      <point x="219" y="296" type="curve" smooth="yes"/>
      <point x="217" y="305"/>
      <point x="210" y="307"/>
      <point x="198" y="280" type="curve" smooth="yes"/>
      <point x="192" y="266"/>
      <point x="190" y="253"/>
      <point x="190" y="238" type="curve" smooth="yes"/>
      <point x="190" y="162"/>
      <point x="190" y="94"/>
      <point x="190" y="18" type="curve" smooth="yes"/>
      <point x="190" y="2"/>
      <point x="144" y="0"/>
      <point x="115" y="0" type="curve" smooth="yes"/>
      <point x="89" y="0"/>
      <point x="40" y="2"/>
      <point x="40" y="16" type="curve" smooth="yes"/>
      <point x="40" y="267"/>
      <point x="40" y="445"/>
      <point x="40" y="685" type="curve" smooth="yes"/>
      <point x="40" y="698"/>
      <point x="92" y="699"/>
      <point x="114" y="699" type="curve" smooth="yes"/>
      <point x="137" y="699"/>
      <point x="190" y="699"/>
      <point x="190" y="684" type="curve" smooth="yes"/>
      <point x="190" y="602"/>
      <point x="190" y="522"/>
      <point x="190" y="442" type="curve" smooth="yes"/>
      <point x="190" y="435"/>
      <point x="189" y="420"/>
      <point x="195" y="422" type="curve" smooth="yes"/>
      <point x="198" y="423"/>
      <point x="200" y="434"/>
      <point x="202" y="441" type="curve" smooth="yes"/>
      <point x="230" y="537"/>
      <point x="243" y="589"/>
      <point x="271" y="686" type="curve" smooth="yes"/>
      <point x="274" y="697"/>
      <point x="279" y="696"/>
      <point x="347" y="696" type="curve" smooth="yes"/>
      <point x="419" y="696"/>
      <point x="428" y="692"/>
      <point x="426" y="686" type="curve" smooth="yes"/>
      <point x="388" y="579"/>
      <point x="376" y="543"/>
      <point x="335" y="440" type="curve" smooth="yes"/>
      <point x="331" y="429"/>
      <point x="325" y="417"/>
      <point x="325" y="407" type="curve" smooth="yes"/>
      <point x="325" y="398"/>
      <point x="326" y="396"/>
      <point x="334" y="371" type="curve" smooth="yes"/>
      <point x="376" y="237"/>
      <point x="399" y="160"/>
    </contour>
  </outline>
</glyph>
<glyph name="L" format="1">
  <advance width="354"/>
  <unicode hex="004C"/>
  <outline>
    <contour>
      <point x="333" y="73" type="curve" smooth="yes"/>
      <point x="333" y="1"/>
      <point x="332" y="0"/>
      <point x="321" y="0" type="curve" smooth="yes"/>
      <point x="278" y="0"/>
      <point x="129" y="0"/>
      <point x="86" y="0" type="curve" smooth="yes"/>
      <point x="70" y="0"/>
      <point x="53" y="-2"/>
      <point x="46" y="4" type="curve" smooth="yes"/>
      <point x="38" y="11"/>
      <point x="40" y="26"/>
      <point x="40" y="38" type="curve" smooth="yes"/>
      <point x="40" y="278"/>
      <point x="40" y="440"/>
      <point x="40" y="680" type="curve" smooth="yes"/>
      <point x="40" y="694"/>
      <point x="40" y="700"/>
      <point x="110" y="700" type="curve" smooth="yes"/>
      <point x="186" y="700"/>
      <point x="190" y="697"/>
      <point x="190" y="680" type="curve" smooth="yes"/>
      <point x="190" y="472"/>
      <point x="190" y="259"/>
      <point x="190" y="179" type="curve" smooth="yes"/>
      <point x="190" y="166"/>
      <point x="190" y="147"/>
      <point x="195" y="144" type="curve" smooth="yes"/>
      <point x="200" y="141"/>
      <point x="214" y="140"/>
      <point x="225" y="140" type="curve" smooth="yes"/>
      <point x="252" y="140"/>
      <point x="293" y="140"/>
      <point x="320" y="140" type="curve" smooth="yes"/>
      <point x="332" y="140"/>
      <point x="333" y="138"/>
    </contour>
  </outline>
</glyph>
<glyph name="M" format="1">
  <advance width="526"/>
  <unicode hex="004D"/>
  <outline>
    <contour>
      <point x="486" y="17" type="curve" smooth="yes"/>
      <point x="486" y="1"/>
      <point x="491" y="0"/>
      <point x="414" y="0" type="curve" smooth="yes"/>
      <point x="342" y="0"/>
      <point x="342" y="1"/>
      <point x="342" y="15" type="curve" smooth="yes"/>
      <point x="342" y="170"/>
      <point x="342" y="206"/>
      <point x="342" y="365" type="curve" smooth="yes"/>
      <point x="342" y="382"/>
      <point x="326" y="387"/>
      <point x="324" y="374" type="curve" smooth="yes"/>
      <point x="314" y="316"/>
      <point x="301" y="249"/>
      <point x="294" y="234" type="curve" smooth="yes"/>
      <point x="289" y="223"/>
      <point x="281" y="220"/>
      <point x="276" y="220" type="curve" smooth="yes"/>
      <point x="270" y="220"/>
      <point x="258" y="220"/>
      <point x="252" y="220" type="curve" smooth="yes"/>
      <point x="248" y="220"/>
      <point x="239" y="223"/>
      <point x="234" y="233" type="curve" smooth="yes"/>
      <point x="227" y="248"/>
      <point x="215" y="315"/>
      <point x="205" y="372" type="curve" smooth="yes"/>
      <point x="203" y="384"/>
      <point x="182" y="381"/>
      <point x="182" y="365" type="curve" smooth="yes"/>
      <point x="182" y="206"/>
      <point x="182" y="172"/>
      <point x="182" y="17" type="curve" smooth="yes"/>
      <point x="182" y="1"/>
      <point x="181" y="0"/>
      <point x="104" y="0" type="curve" smooth="yes"/>
      <point x="32" y="0"/>
      <point x="40" y="1"/>
      <point x="40" y="15" type="curve" smooth="yes"/>
      <point x="40" y="266"/>
      <point x="40" y="441"/>
      <point x="40" y="681" type="curve" smooth="yes"/>
      <point x="40" y="699"/>
      <point x="45" y="699"/>
      <point x="104" y="699" type="curve" smooth="yes"/>
      <point x="168" y="699"/>
      <point x="178" y="695"/>
      <point x="182" y="680" type="curve" smooth="yes"/>
      <point x="193" y="641"/>
      <point x="207" y="597"/>
      <point x="218" y="557" type="curve" smooth="yes"/>
      <point x="236" y="491"/>
      <point x="254" y="434"/>
      <point x="263" y="434" type="curve" smooth="yes"/>
      <point x="271" y="434"/>
      <point x="287" y="488"/>
      <point x="306" y="557" type="curve" smooth="yes"/>
      <point x="317" y="597"/>
      <point x="331" y="642"/>
      <point x="342" y="681" type="curve" smooth="yes"/>
      <point x="346" y="696"/>
      <point x="357" y="699"/>
      <point x="414" y="699" type="curve" smooth="yes"/>
      <point x="478" y="699"/>
      <point x="486" y="698"/>
      <point x="486" y="680" type="curve" smooth="yes"/>
      <point x="486" y="598"/>
      <point x="486" y="276"/>
    </contour>
  </outline>
</glyph>
<glyph name="N" format="1">
  <advance width="462"/>
  <unicode hex="004E"/>
  <outline>
    <contour>
      <point x="422" y="17" type="curve" smooth="yes"/>
      <point x="422" y="1"/>
      <point x="425" y="0"/>
      <point x="348" y="0" type="curve" smooth="yes"/>
      <point x="311" y="0"/>
      <point x="302" y="-2"/>
      <point x="296" y="15" type="curve" smooth="yes"/>
      <point x="259" y="120"/>
      <point x="252" y="154"/>
      <point x="214" y="282" type="curve" smooth="yes"/>
      <point x="209" y="299"/>
      <point x="201" y="326"/>
      <point x="193" y="326" type="curve" smooth="yes"/>
      <point x="184" y="326"/>
      <point x="186" y="296"/>
      <point x="186" y="276" type="curve" smooth="yes"/>
      <point x="186" y="155"/>
      <point x="186" y="146"/>
      <point x="186" y="17" type="curve" smooth="yes"/>
      <point x="186" y="1"/>
      <point x="185" y="0"/>
      <point x="108" y="0" type="curve" smooth="yes"/>
      <point x="36" y="0"/>
      <point x="40" y="1"/>
      <point x="40" y="15" type="curve" smooth="yes"/>
      <point x="40" y="266"/>
      <point x="40" y="441"/>
      <point x="40" y="681" type="curve" smooth="yes"/>
      <point x="40" y="699"/>
      <point x="37" y="699"/>
      <point x="108" y="699" type="curve" smooth="yes"/>
      <point x="165" y="699"/>
      <point x="169" y="698"/>
      <point x="174" y="680" type="curve" smooth="yes"/>
      <point x="185" y="641"/>
      <point x="224" y="509"/>
      <point x="254" y="420" type="curve" smooth="yes"/>
      <point x="257" y="410"/>
      <point x="261" y="393"/>
      <point x="268" y="393" type="curve" smooth="yes"/>
      <point x="277" y="393"/>
      <point x="276" y="419"/>
      <point x="276" y="434" type="curve" smooth="yes"/>
      <point x="276" y="521"/>
      <point x="276" y="585"/>
      <point x="276" y="681" type="curve" smooth="yes"/>
      <point x="276" y="699"/>
      <point x="277" y="699"/>
      <point x="348" y="699" type="curve" smooth="yes"/>
      <point x="426" y="699"/>
      <point x="422" y="698"/>
      <point x="422" y="680" type="curve" smooth="yes"/>
      <point x="422" y="598"/>
      <point x="422" y="276"/>
    </contour>
  </outline>
</glyph>
<glyph name="O" format="1">
  <advance width="400"/>
  <unicode hex="004F"/>
  <outline>
    <contour>
      <point x="375" y="164" type="curve" smooth="yes"/>
      <point x="375" y="61"/>
      <point x="305" y="0"/>
      <point x="200" y="0" type="curve" smooth="yes"/>
      <point x="99" y="0"/>
      <point x="25" y="65"/>
      <point x="25" y="164" type="curve" smooth="yes"/>
      <point x="25" y="313"/>
      <point x="25" y="387"/>
      <point x="25" y="536" type="curve" smooth="yes"/>
      <point x="25" y="635"/>
      <point x="99" y="700"/>
      <point x="200" y="700" type="curve" smooth="yes"/>
      <point x="305" y="700"/>
      <point x="375" y="639"/>
      <point x="375" y="536" type="curve" smooth="yes"/>
      <point x="375" y="391"/>
      <point x="375" y="310"/>
    </contour>
    <contour>
      <point x="225" y="205" type="curve" smooth="yes"/>
      <point x="224" y="318"/>
      <point x="225" y="382"/>
      <point x="225" y="495" type="curve" smooth="yes"/>
      <point x="225" y="523"/>
      <point x="229" y="555"/>
      <point x="200" y="555" type="curve" smooth="yes"/>
      <point x="170" y="555"/>
      <point x="175" y="523"/>
      <point x="175" y="495" type="curve" smooth="yes"/>
      <point x="175" y="381"/>
      <point x="175" y="319"/>
      <point x="175" y="205" type="curve" smooth="yes"/>
      <point x="175" y="177"/>
      <point x="170" y="145"/>
      <point x="200" y="145" type="curve" smooth="yes"/>
      <point x="229" y="145"/>
      <point x="225" y="177"/>
    </contour>
  </outline>
</glyph>
<glyph name="P" format="1">
  <advance width="410"/>
  <unicode hex="0050"/>
  <outline>
    <contour>
      <point x="390" y="404" type="curve" smooth="yes"/>
      <point x="390" y="301"/>
      <point x="320" y="240"/>
      <point x="215" y="240" type="curve" smooth="yes"/>
      <point x="199" y="240"/>
      <point x="190" y="235"/>
      <point x="190" y="198" type="curve" smooth="yes"/>
      <point x="190" y="167"/>
      <point x="190" y="46"/>
      <point x="190" y="17" type="curve" smooth="yes"/>
      <point x="190" y="-2"/>
      <point x="177" y="0"/>
      <point x="113" y="0" type="curve" smooth="yes"/>
      <point x="49" y="0"/>
      <point x="40" y="-1"/>
      <point x="40" y="30" type="curve" smooth="yes"/>
      <point x="40" y="179"/>
      <point x="40" y="521"/>
      <point x="40" y="670" type="curve" smooth="yes"/>
      <point x="40" y="700"/>
      <point x="41" y="700"/>
      <point x="70" y="700" type="curve" smooth="yes"/>
      <point x="96" y="700"/>
      <point x="182" y="700"/>
      <point x="215" y="700" type="curve" smooth="yes"/>
      <point x="320" y="700"/>
      <point x="390" y="639"/>
      <point x="390" y="536" type="curve" smooth="yes"/>
      <point x="390" y="391"/>
      <point x="390" y="550"/>
    </contour>
    <contour>
      <point x="240" y="435" type="curve" smooth="yes"/>
      <point x="240" y="460"/>
      <point x="240" y="470"/>
      <point x="240" y="495" type="curve" smooth="yes"/>
      <point x="240" y="523"/>
      <point x="244" y="555"/>
      <point x="215" y="555" type="curve" smooth="yes"/>
      <point x="189" y="555"/>
      <point x="190" y="556"/>
      <point x="190" y="543" type="curve" smooth="yes"/>
      <point x="190" y="429"/>
      <point x="190" y="501"/>
      <point x="190" y="387" type="curve" smooth="yes"/>
      <point x="190" y="374"/>
      <point x="189" y="375"/>
      <point x="215" y="375" type="curve" smooth="yes"/>
      <point x="244" y="375"/>
      <point x="240" y="407"/>
    </contour>
  </outline>
</glyph>
<glyph name="Q" format="1">
  <advance width="400"/>
  <unicode hex="0051"/>
  <outline>
    <contour>
      <point x="375" y="164" type="curve" smooth="yes"/>
      <point x="375" y="89"/>
      <point x="335" y="38"/>
      <point x="292" y="20" type="curve" smooth="yes"/>
      <point x="283" y="16"/>
      <point x="275" y="12"/>
      <point x="275" y="5" type="curve" smooth="yes"/>
      <point x="275" y="-24"/>
      <point x="282" y="-30"/>
      <point x="333" y="-30" type="curve" smooth="yes"/>
      <point x="343" y="-30"/>
      <point x="348" y="-42"/>
      <point x="348" y="-80" type="curve" smooth="yes"/>
      <point x="348" y="-104"/>
      <point x="349" y="-126"/>
      <point x="336" y="-126" type="curve" smooth="yes"/>
      <point x="326" y="-126"/>
      <point x="303" y="-126"/>
      <point x="300" y="-126" type="curve" smooth="yes"/>
      <point x="226" y="-126"/>
      <point x="125" y="-116"/>
      <point x="125" y="-7" type="curve" smooth="yes"/>
      <point x="125" y="2"/>
      <point x="123" y="13"/>
      <point x="105" y="23" type="curve" smooth="yes"/>
      <point x="54" y="52"/>
      <point x="25" y="98"/>
      <point x="25" y="164" type="curve" smooth="yes"/>
      <point x="25" y="313"/>
      <point x="25" y="387"/>
      <point x="25" y="536" type="curve" smooth="yes"/>
      <point x="25" y="635"/>
      <point x="99" y="700"/>
      <point x="200" y="700" type="curve" smooth="yes"/>
      <point x="305" y="700"/>
      <point x="375" y="639"/>
      <point x="375" y="536" type="curve" smooth="yes"/>
      <point x="375" y="391"/>
      <point x="375" y="310"/>
    </contour>
    <contour>
      <point x="225" y="205" type="curve" smooth="yes"/>
      <point x="224" y="318"/>
      <point x="225" y="382"/>
      <point x="225" y="495" type="curve" smooth="yes"/>
      <point x="225" y="523"/>
      <point x="229" y="555"/>
      <point x="200" y="555" type="curve" smooth="yes"/>
      <point x="170" y="555"/>
      <point x="175" y="523"/>
      <point x="175" y="495" type="curve" smooth="yes"/>
      <point x="175" y="381"/>
      <point x="175" y="319"/>
      <point x="175" y="205" type="curve" smooth="yes"/>
      <point x="175" y="177"/>
      <point x="170" y="145"/>
      <point x="200" y="145" type="curve" smooth="yes"/>
      <point x="229" y="145"/>
      <point x="225" y="177"/>
    </contour>
  </outline>
</glyph>
<glyph name="R" format="1">
  <advance width="420"/>
  <unicode hex="0052"/>
  <outline>
    <contour>
      <point x="390" y="15" type="curve" smooth="yes"/>
      <point x="390" y="-1"/>
      <point x="384" y="0"/>
      <point x="314" y="0" type="curve" smooth="yes"/>
      <point x="242" y="0"/>
      <point x="240" y="-1"/>
      <point x="240" y="20" type="curve" smooth="yes"/>
      <point x="240" y="93"/>
      <point x="240" y="215"/>
      <point x="240" y="226" type="curve" smooth="yes"/>
      <point x="240" y="254"/>
      <point x="244" y="286"/>
      <point x="215" y="286" type="curve" smooth="yes"/>
      <point x="192" y="286"/>
      <point x="190" y="287"/>
      <point x="190" y="274" type="curve" smooth="yes"/>
      <point x="190" y="160"/>
      <point x="190" y="136"/>
      <point x="190" y="22" type="curve" smooth="yes"/>
      <point x="190" y="0"/>
      <point x="178" y="0"/>
      <point x="109" y="0" type="curve" smooth="yes"/>
      <point x="50" y="0"/>
      <point x="40" y="-1"/>
      <point x="40" y="30" type="curve" smooth="yes"/>
      <point x="40" y="179"/>
      <point x="40" y="521"/>
      <point x="40" y="670" type="curve" smooth="yes"/>
      <point x="40" y="700"/>
      <point x="41" y="700"/>
      <point x="70" y="700" type="curve" smooth="yes"/>
      <point x="96" y="700"/>
      <point x="178" y="700"/>
      <point x="211" y="700" type="curve" smooth="yes"/>
      <point x="316" y="700"/>
      <point x="386" y="639"/>
      <point x="386" y="536" type="curve" smooth="yes"/>
      <point x="386" y="492"/>
      <point x="386" y="496"/>
      <point x="386" y="456" type="curve" smooth="yes"/>
      <point x="386" y="366"/>
      <point x="312" y="360"/>
      <point x="312" y="355" type="curve" smooth="yes"/>
      <point x="312" y="351"/>
      <point x="390" y="357"/>
      <point x="390" y="271" type="curve" smooth="yes"/>
      <point x="390" y="171"/>
      <point x="390" y="107"/>
    </contour>
    <contour>
      <point x="236" y="454" type="curve" smooth="yes"/>
      <point x="236" y="468"/>
      <point x="236" y="484"/>
      <point x="236" y="495" type="curve" smooth="yes"/>
      <point x="236" y="523"/>
      <point x="240" y="555"/>
      <point x="211" y="555" type="curve" smooth="yes"/>
      <point x="193" y="555"/>
      <point x="190" y="556"/>
      <point x="190" y="543" type="curve" smooth="yes"/>
      <point x="190" y="429"/>
      <point x="190" y="475"/>
      <point x="190" y="433" type="curve" smooth="yes"/>
      <point x="190" y="420"/>
      <point x="194" y="421"/>
      <point x="211" y="421" type="curve" smooth="yes"/>
      <point x="233" y="421"/>
      <point x="236" y="443"/>
    </contour>
  </outline>
</glyph>
<glyph name="S" format="1">
  <advance width="390"/>
  <unicode hex="0053"/>
  <outline>
    <contour>
      <point x="370" y="164" type="curve" smooth="yes"/>
      <point x="370" y="61"/>
      <point x="300" y="0"/>
      <point x="195" y="0" type="curve" smooth="yes"/>
      <point x="96" y="0"/>
      <point x="20" y="62"/>
      <point x="20" y="164" type="curve" smooth="yes"/>
      <point x="20" y="183"/>
      <point x="20" y="198"/>
      <point x="20" y="220" type="curve" smooth="yes"/>
      <point x="20" y="227"/>
      <point x="31" y="227"/>
      <point x="87" y="227" type="curve" smooth="yes"/>
      <point x="143" y="227"/>
      <point x="170" y="228"/>
      <point x="170" y="222" type="curve" smooth="yes"/>
      <point x="170" y="203"/>
      <point x="170" y="207"/>
      <point x="170" y="194" type="curve" smooth="yes"/>
      <point x="170" y="144"/>
      <point x="172" y="128"/>
      <point x="195" y="128" type="curve" smooth="yes"/>
      <point x="216" y="128"/>
      <point x="220" y="152"/>
      <point x="220" y="177" type="curve" smooth="yes"/>
      <point x="220" y="271"/>
      <point x="152" y="302"/>
      <point x="97" y="357" type="curve" smooth="yes"/>
      <point x="36" y="418"/>
      <point x="20" y="449"/>
      <point x="20" y="546" type="curve" smooth="yes"/>
      <point x="20" y="639"/>
      <point x="97" y="700"/>
      <point x="190" y="700" type="curve" smooth="yes"/>
      <point x="285" y="700"/>
      <point x="360" y="641"/>
      <point x="360" y="546" type="curve" smooth="yes"/>
      <point x="360" y="521"/>
      <point x="360" y="521"/>
      <point x="360" y="494" type="curve" smooth="yes"/>
      <point x="360" y="488"/>
      <point x="345" y="490"/>
      <point x="299" y="490" type="curve" smooth="yes"/>
      <point x="242" y="490"/>
      <point x="215" y="490"/>
      <point x="215" y="495" type="curve" smooth="yes"/>
      <point x="215" y="514"/>
      <point x="215" y="527"/>
      <point x="215" y="540" type="curve" smooth="yes"/>
      <point x="215" y="563"/>
      <point x="203" y="575"/>
      <point x="190" y="575" type="curve" smooth="yes"/>
      <point x="177" y="575"/>
      <point x="165" y="563"/>
      <point x="165" y="541" type="curve" smooth="yes"/>
      <point x="165" y="474"/>
      <point x="170" y="468"/>
      <point x="246" y="404" type="curve" smooth="yes"/>
      <point x="303" y="356"/>
      <point x="370" y="304"/>
    </contour>
  </outline>
</glyph>
<glyph name="T" format="1">
  <advance width="390"/>
  <unicode hex="0054"/>
  <outline>
    <contour>
      <point x="370" y="636" type="curve" smooth="yes"/>
      <point x="370" y="566"/>
      <point x="369" y="560"/>
      <point x="358" y="560" type="curve" smooth="yes"/>
      <point x="346" y="560"/>
      <point x="332" y="560"/>
      <point x="315" y="560" type="curve" smooth="yes"/>
      <point x="300" y="560"/>
      <point x="282" y="560"/>
      <point x="277" y="558" type="curve"/>
      <point x="268" y="551"/>
      <point x="270" y="534"/>
      <point x="270" y="521" type="curve" smooth="yes"/>
      <point x="270" y="300"/>
      <point x="270" y="229"/>
      <point x="270" y="10" type="curve" smooth="yes"/>
      <point x="270" y="1"/>
      <point x="264" y="0"/>
      <point x="190" y="0" type="curve" smooth="yes"/>
      <point x="125" y="0"/>
      <point x="119" y="0"/>
      <point x="119" y="10" type="curve" smooth="yes"/>
      <point x="119" y="229"/>
      <point x="119" y="301"/>
      <point x="119" y="521" type="curve" smooth="yes"/>
      <point x="119" y="534"/>
      <point x="121" y="551"/>
      <point x="112" y="558" type="curve"/>
      <point x="107" y="560"/>
      <point x="89" y="560"/>
      <point x="75" y="560" type="curve" smooth="yes"/>
      <point x="61" y="560"/>
      <point x="47" y="560"/>
      <point x="38" y="560" type="curve" smooth="yes"/>
      <point x="23" y="560"/>
      <point x="20" y="569"/>
      <point x="20" y="631" type="curve" smooth="yes"/>
      <point x="20" y="694"/>
      <point x="22" y="700"/>
      <point x="34" y="700" type="curve" smooth="yes"/>
      <point x="97" y="700"/>
      <point x="294" y="700"/>
      <point x="357" y="700" type="curve" smooth="yes"/>
      <point x="369" y="700"/>
      <point x="370" y="693"/>
    </contour>
  </outline>
</glyph>
<glyph name="U" format="1">
  <advance width="410"/>
  <unicode hex="0055"/>
  <outline>
    <contour>
      <point x="380" y="164" type="curve" smooth="yes"/>
      <point x="380" y="61"/>
      <point x="310" y="0"/>
      <point x="205" y="0" type="curve" smooth="yes"/>
      <point x="104" y="0"/>
      <point x="30" y="65"/>
      <point x="30" y="164" type="curve" smooth="yes"/>
      <point x="30" y="313"/>
      <point x="30" y="531"/>
      <point x="30" y="680" type="curve" smooth="yes"/>
      <point x="30" y="700"/>
      <point x="32" y="700"/>
      <point x="111" y="700" type="curve" smooth="yes"/>
      <point x="170" y="700"/>
      <point x="180" y="700"/>
      <point x="180" y="680" type="curve" smooth="yes"/>
      <point x="180" y="566"/>
      <point x="180" y="319"/>
      <point x="180" y="205" type="curve" smooth="yes"/>
      <point x="180" y="177"/>
      <point x="175" y="145"/>
      <point x="205" y="145" type="curve" smooth="yes"/>
      <point x="234" y="145"/>
      <point x="230" y="177"/>
      <point x="230" y="205" type="curve" smooth="yes"/>
      <point x="229" y="318"/>
      <point x="230" y="567"/>
      <point x="230" y="680" type="curve" smooth="yes"/>
      <point x="230" y="700"/>
      <point x="233" y="700"/>
      <point x="299" y="700" type="curve" smooth="yes"/>
      <point x="378" y="700"/>
      <point x="380" y="695"/>
      <point x="380" y="680" type="curve" smooth="yes"/>
      <point x="380" y="535"/>
      <point x="380" y="310"/>
    </contour>
  </outline>
</glyph>
<glyph name="V" format="1">
  <advance width="396"/>
  <unicode hex="0056"/>
  <outline>
    <contour>
      <point x="381" y="681" type="curve" smooth="yes"/>
      <point x="342" y="441"/>
      <point x="281" y="127"/>
      <point x="265" y="16" type="curve" smooth="yes"/>
      <point x="262" y="-2"/>
      <point x="253" y="0"/>
      <point x="188" y="0" type="curve" smooth="yes"/>
      <point x="122" y="0"/>
      <point x="114" y="1"/>
      <point x="112" y="17" type="curve" smooth="yes"/>
      <point x="98" y="116"/>
      <point x="54" y="441"/>
      <point x="15" y="681" type="curve" smooth="yes"/>
      <point x="12" y="699"/>
      <point x="21" y="699"/>
      <point x="92" y="699" type="curve" smooth="yes"/>
      <point x="170" y="699"/>
      <point x="166" y="698"/>
      <point x="170" y="680" type="curve" smooth="yes"/>
      <point x="176" y="651"/>
      <point x="186" y="310"/>
      <point x="196" y="310" type="curve" smooth="yes"/>
      <point x="206" y="310"/>
      <point x="225" y="651"/>
      <point x="230" y="680" type="curve" smooth="yes"/>
      <point x="233" y="698"/>
      <point x="230" y="699"/>
      <point x="308" y="699" type="curve" smooth="yes"/>
      <point x="379" y="699"/>
      <point x="384" y="699"/>
    </contour>
  </outline>
</glyph>
<glyph name="W" format="1">
  <advance width="486"/>
  <unicode hex="0057"/>
  <outline>
    <contour>
      <point x="465" y="689" type="curve" smooth="yes"/>
      <point x="452" y="532"/>
      <point x="424" y="194"/>
      <point x="409" y="11" type="curve" smooth="yes"/>
      <point x="408" y="-2"/>
      <point x="375" y="0"/>
      <point x="349" y="0" type="curve" smooth="yes"/>
      <point x="336" y="0"/>
      <point x="286" y="1"/>
      <point x="284" y="11" type="curve" smooth="yes"/>
      <point x="272" y="61"/>
      <point x="266" y="99"/>
      <point x="256" y="144" type="curve" smooth="yes"/>
      <point x="255" y="148"/>
      <point x="255" y="155"/>
      <point x="249" y="155" type="curve" smooth="yes"/>
      <point x="244" y="155"/>
      <point x="244" y="148"/>
      <point x="243" y="145" type="curve"/>
      <point x="234" y="100"/>
      <point x="226" y="55"/>
      <point x="217" y="12" type="curve" smooth="yes"/>
      <point x="214" y="-1"/>
      <point x="165" y="0"/>
      <point x="139" y="0" type="curve" smooth="yes"/>
      <point x="126" y="0"/>
      <point x="77" y="-2"/>
      <point x="76" y="11" type="curve" smooth="yes"/>
      <point x="62" y="187"/>
      <point x="41" y="436"/>
      <point x="20" y="688" type="curve" smooth="yes"/>
      <point x="19" y="696"/>
      <point x="66" y="700"/>
      <point x="86" y="700" type="curve" smooth="yes"/>
      <point x="116" y="700"/>
      <point x="159" y="699"/>
      <point x="159" y="689" type="curve" smooth="yes"/>
      <point x="167" y="503"/>
      <point x="177" y="394"/>
      <point x="184" y="226" type="curve" smooth="yes"/>
      <point x="184" y="223"/>
      <point x="185" y="216"/>
      <point x="190" y="216" type="curve" smooth="yes"/>
      <point x="196" y="216"/>
      <point x="197" y="223"/>
      <point x="197" y="227" type="curve" smooth="yes"/>
      <point x="204" y="324"/>
      <point x="206" y="383"/>
      <point x="211" y="469" type="curve" smooth="yes"/>
      <point x="212" y="478"/>
      <point x="225" y="481"/>
      <point x="243" y="481" type="curve" smooth="yes"/>
      <point x="263" y="481"/>
      <point x="280" y="479"/>
      <point x="281" y="469" type="curve" smooth="yes"/>
      <point x="287" y="375"/>
      <point x="287" y="322"/>
      <point x="296" y="223" type="curve"/>
      <point x="296" y="220"/>
      <point x="297" y="213"/>
      <point x="302" y="213" type="curve" smooth="yes"/>
      <point x="308" y="213"/>
      <point x="309" y="220"/>
      <point x="309" y="224" type="curve" smooth="yes"/>
      <point x="315" y="401"/>
      <point x="323" y="548"/>
      <point x="329" y="690" type="curve" smooth="yes"/>
      <point x="329" y="700"/>
      <point x="371" y="700"/>
      <point x="394" y="700" type="curve" smooth="yes"/>
      <point x="421" y="700"/>
      <point x="466" y="702"/>
    </contour>
  </outline>
</glyph>
<glyph name="X" format="1">
  <advance width="424"/>
  <unicode hex="0058"/>
  <outline>
    <contour>
      <point x="404" y="16" type="curve" smooth="yes"/>
      <point x="410" y="-1"/>
      <point x="388" y="0"/>
      <point x="323" y="0" type="curve" smooth="yes"/>
      <point x="257" y="0"/>
      <point x="252" y="2"/>
      <point x="247" y="17" type="curve" smooth="yes"/>
      <point x="239" y="40"/>
      <point x="230" y="100"/>
      <point x="220" y="149" type="curve" smooth="yes"/>
      <point x="218" y="157"/>
      <point x="215" y="172"/>
      <point x="212" y="172" type="curve" smooth="yes"/>
      <point x="204" y="172"/>
      <point x="204" y="163"/>
      <point x="202" y="151" type="curve" smooth="yes"/>
      <point x="191" y="86"/>
      <point x="182" y="44"/>
      <point x="173" y="17" type="curve" smooth="yes"/>
      <point x="168" y="2"/>
      <point x="163" y="0"/>
      <point x="97" y="0" type="curve" smooth="yes"/>
      <point x="32" y="0"/>
      <point x="14" y="-1"/>
      <point x="20" y="16" type="curve" smooth="yes"/>
      <point x="53" y="117"/>
      <point x="84" y="223"/>
      <point x="122" y="332" type="curve" smooth="yes"/>
      <point x="128" y="349"/>
      <point x="129" y="355"/>
      <point x="129" y="362" type="curve" smooth="yes"/>
      <point x="129" y="369"/>
      <point x="124" y="379"/>
      <point x="120" y="390" type="curve" smooth="yes"/>
      <point x="87" y="488"/>
      <point x="54" y="581"/>
      <point x="18" y="681" type="curve" smooth="yes"/>
      <point x="12" y="698"/>
      <point x="24" y="699"/>
      <point x="95" y="699" type="curve" smooth="yes"/>
      <point x="173" y="699"/>
      <point x="170" y="698"/>
      <point x="173" y="680" type="curve" smooth="yes"/>
      <point x="183" y="619"/>
      <point x="192" y="577"/>
      <point x="200" y="552" type="curve" smooth="yes"/>
      <point x="204" y="540"/>
      <point x="206" y="532"/>
      <point x="210" y="532" type="curve" smooth="yes"/>
      <point x="215" y="532"/>
      <point x="219" y="543"/>
      <point x="220" y="548" type="curve" smooth="yes"/>
      <point x="228" y="578"/>
      <point x="238" y="631"/>
      <point x="247" y="680" type="curve" smooth="yes"/>
      <point x="250" y="698"/>
      <point x="247" y="699"/>
      <point x="325" y="699" type="curve" smooth="yes"/>
      <point x="396" y="699"/>
      <point x="404" y="698"/>
      <point x="398" y="681" type="curve" smooth="yes"/>
      <point x="363" y="583"/>
      <point x="334" y="492"/>
      <point x="302" y="395" type="curve" smooth="yes"/>
      <point x="296" y="377"/>
      <point x="291" y="372"/>
      <point x="291" y="364" type="curve" smooth="yes"/>
      <point x="291" y="357"/>
      <point x="292" y="348"/>
      <point x="297" y="333" type="curve" smooth="yes"/>
      <point x="335" y="219"/>
      <point x="370" y="118"/>
    </contour>
  </outline>
</glyph>
<glyph name="Y" format="1">
  <advance width="408"/>
  <unicode hex="0059"/>
  <outline>
    <contour>
      <point x="388" y="685" type="curve" smooth="yes"/>
      <point x="358" y="567"/>
      <point x="336" y="479"/>
      <point x="300" y="362" type="curve" smooth="yes"/>
      <point x="294" y="342"/>
      <point x="291" y="320"/>
      <point x="286" y="304" type="curve" smooth="yes"/>
      <point x="283" y="295"/>
      <point x="281" y="264"/>
      <point x="281" y="246" type="curve" smooth="yes"/>
      <point x="281" y="161"/>
      <point x="281" y="92"/>
      <point x="281" y="8" type="curve" smooth="yes"/>
      <point x="281" y="-1"/>
      <point x="219" y="0"/>
      <point x="206" y="0" type="curve" smooth="yes"/>
      <point x="190" y="0"/>
      <point x="131" y="-1"/>
      <point x="131" y="11" type="curve" smooth="yes"/>
      <point x="131" y="92"/>
      <point x="132" y="154"/>
      <point x="132" y="243" type="curve" smooth="yes"/>
      <point x="132" y="261"/>
      <point x="133" y="281"/>
      <point x="131" y="292" type="curve" smooth="yes"/>
      <point x="129" y="305"/>
      <point x="121" y="329"/>
      <point x="115" y="351" type="curve" smooth="yes"/>
      <point x="82" y="468"/>
      <point x="51" y="568"/>
      <point x="20" y="685" type="curve" smooth="yes"/>
      <point x="17" y="698"/>
      <point x="70" y="699"/>
      <point x="87" y="699" type="curve" smooth="yes"/>
      <point x="118" y="699"/>
      <point x="166" y="698"/>
      <point x="168" y="683" type="curve" smooth="yes"/>
      <point x="180" y="596"/>
      <point x="192" y="525"/>
      <point x="203" y="444" type="curve"/>
      <point x="203" y="441"/>
      <point x="205" y="435"/>
      <point x="209" y="435" type="curve" smooth="yes"/>
      <point x="213" y="435"/>
      <point x="214" y="442"/>
      <point x="214" y="445" type="curve"/>
      <point x="227" y="534"/>
      <point x="233" y="593"/>
      <point x="245" y="683" type="curve" smooth="yes"/>
      <point x="247" y="696"/>
      <point x="294" y="699"/>
      <point x="320" y="699" type="curve" smooth="yes"/>
      <point x="347" y="699"/>
      <point x="391" y="698"/>
    </contour>
  </outline>
</glyph>
<glyph name="Z" format="1">
  <advance width="344"/>
  <unicode hex="005A"/>
  <outline>
    <contour>
      <point x="326" y="672" type="curve" smooth="yes"/>
      <point x="326" y="648"/>
      <point x="326" y="567"/>
      <point x="323" y="559" type="curve" smooth="yes"/>
      <point x="244" y="362"/>
      <point x="220" y="302"/>
      <point x="165" y="165" type="curve" smooth="yes"/>
      <point x="163" y="159"/>
      <point x="160" y="153"/>
      <point x="166" y="145" type="curve" smooth="yes"/>
      <point x="172" y="137"/>
      <point x="175" y="138"/>
      <point x="186" y="138" type="curve" smooth="yes"/>
      <point x="222" y="138"/>
      <point x="276" y="138"/>
      <point x="312" y="138" type="curve" smooth="yes"/>
      <point x="323" y="138"/>
      <point x="323" y="89"/>
      <point x="323" y="64" type="curve" smooth="yes"/>
      <point x="323" y="39"/>
      <point x="323" y="0"/>
      <point x="312" y="0" type="curve" smooth="yes"/>
      <point x="259" y="0"/>
      <point x="92" y="0"/>
      <point x="39" y="0" type="curve" smooth="yes"/>
      <point x="20" y="0"/>
      <point x="20" y="17"/>
      <point x="20" y="26" type="curve" smooth="yes"/>
      <point x="20" y="82"/>
      <point x="18" y="167"/>
      <point x="25" y="184" type="curve" smooth="yes"/>
      <point x="90" y="337"/>
      <point x="126" y="421"/>
      <point x="177" y="542" type="curve" smooth="yes"/>
      <point x="182" y="553"/>
      <point x="179" y="566"/>
      <point x="170" y="573" type="curve"/>
      <point x="165" y="575"/>
      <point x="156" y="575"/>
      <point x="149" y="575" type="curve" smooth="yes"/>
      <point x="116" y="575"/>
      <point x="71" y="575"/>
      <point x="38" y="575" type="curve" smooth="yes"/>
      <point x="28" y="575"/>
      <point x="26" y="609"/>
      <point x="26" y="632" type="curve" smooth="yes"/>
      <point x="26" y="656"/>
      <point x="26" y="700"/>
      <point x="38" y="700" type="curve" smooth="yes"/>
      <point x="100" y="700"/>
      <point x="245" y="700"/>
      <point x="307" y="700" type="curve" smooth="yes"/>
      <point x="325" y="700"/>
      <point x="326" y="698"/>
    </contour>
  </outline>
</glyph>
<glyph name="bracketleft" format="1">
  <advance width="269"/>
  <unicode hex="005B"/>
  <outline>
    <contour>
      <point x="238" y="710" type="curve" smooth="yes"/>
      <point x="238" y="698"/>
      <point x="237" y="653"/>
      <point x="230" y="653" type="curve" smooth="yes"/>
      <point x="200" y="653"/>
      <point x="179" y="656"/>
      <point x="179" y="628" type="curve" smooth="yes"/>
      <point x="179" y="403"/>
      <point x="179" y="263"/>
      <point x="179" y="73" type="curve" smooth="yes"/>
      <point x="179" y="36"/>
      <point x="200" y="43"/>
      <point x="230" y="43" type="curve" smooth="yes"/>
      <point x="239" y="43"/>
      <point x="236" y="3"/>
      <point x="236" y="-8" type="curve" smooth="yes"/>
      <point x="236" y="-25"/>
      <point x="237" y="-70"/>
      <point x="230" y="-70" type="curve" smooth="yes"/>
      <point x="164" y="-70"/>
      <point x="30" y="-82"/>
      <point x="30" y="-50" type="curve" smooth="yes"/>
      <point x="30" y="179"/>
      <point x="30" y="532"/>
      <point x="30" y="748" type="curve" smooth="yes"/>
      <point x="30" y="778"/>
      <point x="165" y="770"/>
      <point x="230" y="770" type="curve" smooth="yes"/>
      <point x="243" y="770"/>
      <point x="238" y="722"/>
    </contour>
  </outline>
</glyph>
<glyph name="backslash" format="1">
  <advance width="311"/>
  <unicode hex="005C"/>
  <outline>
    <contour>
      <point x="281" y="13" type="curve" smooth="yes"/>
      <point x="283" y="1"/>
      <point x="249" y="0"/>
      <point x="229" y="0" type="curve" smooth="yes"/>
      <point x="208" y="0"/>
      <point x="148" y="2"/>
      <point x="146" y="15" type="curve" smooth="yes"/>
      <point x="104" y="252"/>
      <point x="71" y="439"/>
      <point x="30" y="680" type="curve" smooth="yes"/>
      <point x="27" y="695"/>
      <point x="74" y="699"/>
      <point x="96" y="699" type="curve" smooth="yes"/>
      <point x="117" y="699"/>
      <point x="164" y="699"/>
      <point x="166" y="689" type="curve" smooth="yes"/>
      <point x="208" y="446"/>
      <point x="238" y="262"/>
    </contour>
  </outline>
</glyph>
<glyph name="bracketright" format="1">
  <advance width="269"/>
  <unicode hex="005D"/>
  <outline>
    <contour>
      <point x="238" y="-50" type="curve" smooth="yes"/>
      <point x="238" y="-82"/>
      <point x="104" y="-70"/>
      <point x="38" y="-70" type="curve" smooth="yes"/>
      <point x="31" y="-70"/>
      <point x="32" y="-25"/>
      <point x="32" y="-8" type="curve" smooth="yes"/>
      <point x="32" y="3"/>
      <point x="29" y="43"/>
      <point x="38" y="43" type="curve" smooth="yes"/>
      <point x="68" y="43"/>
      <point x="89" y="36"/>
      <point x="89" y="73" type="curve" smooth="yes"/>
      <point x="89" y="263"/>
      <point x="89" y="403"/>
      <point x="89" y="628" type="curve" smooth="yes"/>
      <point x="89" y="656"/>
      <point x="68" y="653"/>
      <point x="38" y="653" type="curve" smooth="yes"/>
      <point x="31" y="653"/>
      <point x="30" y="698"/>
      <point x="30" y="710" type="curve" smooth="yes"/>
      <point x="30" y="722"/>
      <point x="25" y="770"/>
      <point x="38" y="770" type="curve" smooth="yes"/>
      <point x="103" y="770"/>
      <point x="238" y="778"/>
      <point x="238" y="748" type="curve" smooth="yes"/>
      <point x="238" y="532"/>
      <point x="238" y="179"/>
    </contour>
  </outline>
</glyph>
<glyph name="asciicircum" format="1">
  <advance width="327"/>
  <unicode hex="005E"/>
  <outline>
    <contour>
      <point x="307" y="515" type="curve" smooth="yes"/>
      <point x="313" y="505"/>
      <point x="294" y="490"/>
      <point x="282" y="483" type="curve" smooth="yes"/>
      <point x="274" y="478"/>
      <point x="247" y="465"/>
      <point x="243" y="472" type="curve" smooth="yes"/>
      <point x="218" y="516"/>
      <point x="171" y="594"/>
      <point x="164" y="594" type="curve" smooth="yes"/>
      <point x="157" y="594"/>
      <point x="114" y="525"/>
      <point x="81" y="475" type="curve" smooth="yes"/>
      <point x="77" y="468"/>
      <point x="51" y="483"/>
      <point x="43" y="490" type="curve" smooth="yes"/>
      <point x="35" y="497"/>
      <point x="15" y="515"/>
      <point x="21" y="525" type="curve" smooth="yes"/>
      <point x="26" y="533"/>
      <point x="66" y="590"/>
      <point x="93" y="622" type="curve" smooth="yes"/>
      <point x="119" y="653"/>
      <point x="149" y="701"/>
      <point x="165" y="701" type="curve" smooth="yes"/>
      <point x="178" y="701"/>
      <point x="207" y="654"/>
      <point x="233" y="619" type="curve" smooth="yes"/>
      <point x="257" y="586"/>
      <point x="300" y="527"/>
    </contour>
  </outline>
</glyph>
<glyph name="underscore" format="1">
  <advance width="273"/>
  <unicode hex="005F"/>
  <outline>
    <contour>
      <point x="280" y="-67" type="curve" smooth="yes"/>
      <point x="267" y="-73"/>
      <point x="165" y="-68"/>
      <point x="152" y="-69" type="curve" smooth="yes"/>
      <point x="118" y="-72"/>
      <point x="97" y="-70"/>
      <point x="62" y="-69" type="curve" smooth="yes"/>
      <point x="45" y="-69"/>
      <point x="16" y="-69"/>
      <point x="-2" y="-67" type="curve" smooth="yes"/>
      <point x="-8" y="-66"/>
      <point x="-7" y="-36"/>
      <point x="-1" y="-34" type="curve" smooth="yes"/>
      <point x="14" y="-30"/>
      <point x="43" y="-32"/>
      <point x="57" y="-32" type="curve" smooth="yes"/>
      <point x="88" y="-31"/>
      <point x="107" y="-33"/>
      <point x="137" y="-33" type="curve" smooth="yes"/>
      <point x="155" y="-33"/>
      <point x="258" y="-34"/>
      <point x="276" y="-34" type="curve" smooth="yes"/>
      <point x="281" y="-34"/>
      <point x="285" y="-65"/>
    </contour>
  </outline>
</glyph>
<glyph name="grave" format="1">
  <advance width="410"/>
  <unicode hex="0060"/>
  <outline>
    <contour>
      <point x="314" y="609" type="curve" smooth="yes"/>
      <point x="310" y="598"/>
      <point x="297" y="561"/>
      <point x="296" y="550" type="curve" smooth="yes"/>
      <point x="295" y="542"/>
      <point x="291" y="534"/>
      <point x="273" y="541" type="curve" smooth="yes"/>
      <point x="209" y="564"/>
      <point x="167" y="581"/>
      <point x="114" y="600" type="curve"/>
      <point x="109" y="601"/>
      <point x="91" y="613"/>
      <point x="99" y="626" type="curve"/>
      <point x="104" y="636"/>
      <point x="116" y="669"/>
      <point x="120" y="680" type="curve"/>
      <point x="123" y="692"/>
      <point x="132" y="691"/>
      <point x="153" y="684" type="curve" smooth="yes"/>
      <point x="185" y="673"/>
      <point x="245" y="648"/>
      <point x="276" y="640" type="curve"/>
      <point x="302" y="630"/>
      <point x="318" y="619"/>
    </contour>
  </outline>
</glyph>
<glyph name="a" format="1">
  <advance width="400"/>
  <unicode hex="0061"/>
  <outline>
    <contour>
      <point x="370" y="9" type="curve" smooth="yes"/>
      <point x="370" y="-4"/>
      <point x="357" y="0"/>
      <point x="312" y="0" type="curve" smooth="yes"/>
      <point x="247" y="0"/>
      <point x="235" y="-7"/>
      <point x="235" y="22" type="curve" smooth="yes"/>
      <point x="235" y="39"/>
      <point x="235" y="50"/>
      <point x="228" y="39" type="curve" smooth="yes"/>
      <point x="218" y="21"/>
      <point x="191" y="0"/>
      <point x="159" y="0" type="curve" smooth="yes"/>
      <point x="92" y="0"/>
      <point x="20" y="39"/>
      <point x="20" y="164" type="curve" smooth="yes"/>
      <point x="20" y="222"/>
      <point x="20" y="258"/>
      <point x="20" y="316" type="curve" smooth="yes"/>
      <point x="20" y="441"/>
      <point x="91" y="480"/>
      <point x="158" y="480" type="curve" smooth="yes"/>
      <point x="190" y="480"/>
      <point x="219" y="455"/>
      <point x="229" y="437" type="curve" smooth="yes"/>
      <point x="236" y="426"/>
      <point x="235" y="441"/>
      <point x="235" y="458" type="curve" smooth="yes"/>
      <point x="235" y="487"/>
      <point x="247" y="480"/>
      <point x="312" y="480" type="curve" smooth="yes"/>
      <point x="357" y="480"/>
      <point x="370" y="484"/>
      <point x="370" y="471" type="curve" smooth="yes"/>
      <point x="370" y="253"/>
      <point x="370" y="190"/>
    </contour>
    <contour>
      <point x="225" y="218" type="curve" smooth="yes"/>
      <point x="225" y="252"/>
      <point x="225" y="231"/>
      <point x="225" y="262" type="curve" smooth="yes"/>
      <point x="225" y="296"/>
      <point x="231" y="334"/>
      <point x="195" y="334" type="curve" smooth="yes"/>
      <point x="160" y="334"/>
      <point x="165" y="296"/>
      <point x="165" y="262" type="curve" smooth="yes"/>
      <point x="165" y="242"/>
      <point x="165" y="256"/>
      <point x="165" y="218" type="curve" smooth="yes"/>
      <point x="165" y="184"/>
      <point x="160" y="146"/>
      <point x="195" y="146" type="curve" smooth="yes"/>
      <point x="231" y="146"/>
      <point x="225" y="184"/>
    </contour>
  </outline>
</glyph>
<glyph name="b" format="1">
  <advance width="400"/>
  <unicode hex="0062"/>
  <outline>
    <contour>
      <point x="380" y="164" type="curve" smooth="yes"/>
      <point x="380" y="39"/>
      <point x="313" y="0"/>
      <point x="246" y="0" type="curve" smooth="yes"/>
      <point x="233" y="0"/>
      <point x="183" y="14"/>
      <point x="173" y="32" type="curve" smooth="yes"/>
      <point x="166" y="43"/>
      <point x="165" y="39"/>
      <point x="165" y="22" type="curve" smooth="yes"/>
      <point x="165" y="-7"/>
      <point x="153" y="0"/>
      <point x="88" y="0" type="curve" smooth="yes"/>
      <point x="43" y="0"/>
      <point x="30" y="-4"/>
      <point x="30" y="9" type="curve" smooth="yes"/>
      <point x="30" y="190"/>
      <point x="30" y="473"/>
      <point x="30" y="691" type="curve" smooth="yes"/>
      <point x="30" y="704"/>
      <point x="50" y="700"/>
      <point x="95" y="700" type="curve" smooth="yes"/>
      <point x="136" y="700"/>
      <point x="165" y="703"/>
      <point x="165" y="691" type="curve" smooth="yes"/>
      <point x="165" y="632"/>
      <point x="165" y="549"/>
      <point x="165" y="458" type="curve" smooth="yes"/>
      <point x="165" y="441"/>
      <point x="166" y="437"/>
      <point x="173" y="448" type="curve" smooth="yes"/>
      <point x="183" y="466"/>
      <point x="233" y="480"/>
      <point x="246" y="480" type="curve" smooth="yes"/>
      <point x="313" y="480"/>
      <point x="380" y="441"/>
      <point x="380" y="316" type="curve" smooth="yes"/>
      <point x="380" y="258"/>
      <point x="380" y="222"/>
    </contour>
    <contour>
      <point x="235" y="218" type="curve" smooth="yes"/>
      <point x="235" y="252"/>
      <point x="235" y="231"/>
      <point x="235" y="262" type="curve" smooth="yes"/>
      <point x="235" y="296"/>
      <point x="241" y="334"/>
      <point x="205" y="334" type="curve" smooth="yes"/>
      <point x="170" y="334"/>
      <point x="175" y="296"/>
      <point x="175" y="262" type="curve" smooth="yes"/>
      <point x="175" y="242"/>
      <point x="175" y="256"/>
      <point x="175" y="218" type="curve" smooth="yes"/>
      <point x="175" y="184"/>
      <point x="170" y="146"/>
      <point x="205" y="146" type="curve" smooth="yes"/>
      <point x="241" y="146"/>
      <point x="235" y="184"/>
    </contour>
  </outline>
</glyph>
<glyph name="c" format="1">
  <advance width="385"/>
  <unicode hex="0063"/>
  <outline>
    <contour>
      <point x="370" y="164" type="curve" smooth="yes"/>
      <point x="370" y="61"/>
      <point x="300" y="0"/>
      <point x="195" y="0" type="curve" smooth="yes"/>
      <point x="94" y="0"/>
      <point x="20" y="65"/>
      <point x="20" y="164" type="curve" smooth="yes"/>
      <point x="20" y="313"/>
      <point x="20" y="167"/>
      <point x="20" y="316" type="curve" smooth="yes"/>
      <point x="20" y="415"/>
      <point x="94" y="480"/>
      <point x="195" y="480" type="curve" smooth="yes"/>
      <point x="300" y="480"/>
      <point x="370" y="419"/>
      <point x="370" y="316" type="curve" smooth="yes"/>
      <point x="370" y="300"/>
      <point x="367" y="300"/>
      <point x="285" y="300" type="curve" smooth="yes"/>
      <point x="224" y="300"/>
      <point x="225" y="302"/>
      <point x="225" y="314" type="curve" smooth="yes"/>
      <point x="225" y="332"/>
      <point x="221" y="354"/>
      <point x="195" y="354" type="curve" smooth="yes"/>
      <point x="159" y="354"/>
      <point x="165" y="316"/>
      <point x="165" y="282" type="curve" smooth="yes"/>
      <point x="165" y="253"/>
      <point x="165" y="232"/>
      <point x="165" y="198" type="curve" smooth="yes"/>
      <point x="165" y="164"/>
      <point x="159" y="126"/>
      <point x="195" y="126" type="curve" smooth="yes"/>
      <point x="219" y="126"/>
      <point x="225" y="144"/>
      <point x="225" y="166" type="curve" smooth="yes"/>
      <point x="225" y="179"/>
      <point x="221" y="186"/>
      <point x="294" y="186" type="curve" smooth="yes"/>
      <point x="366" y="186"/>
      <point x="370" y="184"/>
    </contour>
  </outline>
</glyph>
<glyph name="d" format="1">
  <advance width="400"/>
  <unicode hex="0064"/>
  <outline>
    <contour>
      <point x="370" y="9" type="curve" smooth="yes"/>
      <point x="370" y="-4"/>
      <point x="357" y="0"/>
      <point x="312" y="0" type="curve" smooth="yes"/>
      <point x="247" y="0"/>
      <point x="235" y="-7"/>
      <point x="235" y="22" type="curve" smooth="yes"/>
      <point x="235" y="39"/>
      <point x="234" y="43"/>
      <point x="227" y="32" type="curve" smooth="yes"/>
      <point x="217" y="14"/>
      <point x="167" y="0"/>
      <point x="154" y="0" type="curve" smooth="yes"/>
      <point x="87" y="0"/>
      <point x="20" y="39"/>
      <point x="20" y="164" type="curve" smooth="yes"/>
      <point x="20" y="222"/>
      <point x="20" y="258"/>
      <point x="20" y="316" type="curve" smooth="yes"/>
      <point x="20" y="441"/>
      <point x="87" y="480"/>
      <point x="154" y="480" type="curve" smooth="yes"/>
      <point x="167" y="480"/>
      <point x="217" y="466"/>
      <point x="227" y="448" type="curve" smooth="yes"/>
      <point x="234" y="437"/>
      <point x="235" y="441"/>
      <point x="235" y="458" type="curve" smooth="yes"/>
      <point x="235" y="549"/>
      <point x="235" y="632"/>
      <point x="235" y="691" type="curve" smooth="yes"/>
      <point x="235" y="703"/>
      <point x="264" y="700"/>
      <point x="305" y="700" type="curve" smooth="yes"/>
      <point x="350" y="700"/>
      <point x="370" y="704"/>
      <point x="370" y="691" type="curve" smooth="yes"/>
      <point x="370" y="473"/>
      <point x="370" y="190"/>
    </contour>
    <contour>
      <point x="225" y="218" type="curve" smooth="yes"/>
      <point x="225" y="252"/>
      <point x="225" y="231"/>
      <point x="225" y="262" type="curve" smooth="yes"/>
      <point x="225" y="296"/>
      <point x="231" y="334"/>
      <point x="195" y="334" type="curve" smooth="yes"/>
      <point x="160" y="334"/>
      <point x="165" y="296"/>
      <point x="165" y="262" type="curve" smooth="yes"/>
      <point x="165" y="242"/>
      <point x="165" y="256"/>
      <point x="165" y="218" type="curve" smooth="yes"/>
      <point x="165" y="184"/>
      <point x="160" y="146"/>
      <point x="195" y="146" type="curve" smooth="yes"/>
      <point x="231" y="146"/>
      <point x="225" y="184"/>
    </contour>
  </outline>
</glyph>
<glyph name="e" format="1">
  <advance width="390"/>
  <unicode hex="0065"/>
  <outline>
    <contour>
      <point x="370" y="164" type="curve" smooth="yes"/>
      <point x="370" y="61"/>
      <point x="300" y="0"/>
      <point x="195" y="0" type="curve" smooth="yes"/>
      <point x="94" y="0"/>
      <point x="20" y="65"/>
      <point x="20" y="164" type="curve" smooth="yes"/>
      <point x="20" y="313"/>
      <point x="20" y="167"/>
      <point x="20" y="316" type="curve" smooth="yes"/>
      <point x="20" y="415"/>
      <point x="94" y="480"/>
      <point x="195" y="480" type="curve" smooth="yes"/>
      <point x="300" y="480"/>
      <point x="370" y="419"/>
      <point x="370" y="316" type="curve" smooth="yes"/>
      <point x="370" y="268"/>
      <point x="370" y="251"/>
      <point x="370" y="231" type="curve" smooth="yes"/>
      <point x="370" y="218"/>
      <point x="370" y="217"/>
      <point x="349" y="217" type="curve" smooth="yes"/>
      <point x="308" y="217"/>
      <point x="217" y="217"/>
      <point x="181" y="217" type="curve" smooth="yes"/>
      <point x="170" y="217"/>
      <point x="165" y="219"/>
      <point x="165" y="202" type="curve" smooth="yes"/>
      <point x="165" y="168"/>
      <point x="161" y="136"/>
      <point x="195" y="136" type="curve" smooth="yes"/>
      <point x="223" y="136"/>
      <point x="225" y="164"/>
      <point x="225" y="176" type="curve" smooth="yes"/>
      <point x="225" y="183"/>
      <point x="239" y="182"/>
      <point x="290" y="182" type="curve" smooth="yes"/>
      <point x="355" y="182"/>
      <point x="370" y="184"/>
    </contour>
    <contour>
      <point x="225" y="315" type="curve" smooth="yes"/>
      <point x="225" y="355"/>
      <point x="212" y="363"/>
      <point x="195" y="363" type="curve" smooth="yes"/>
      <point x="176" y="363"/>
      <point x="165" y="353"/>
      <point x="165" y="313" type="curve" smooth="yes"/>
      <point x="165" y="282"/>
      <point x="167" y="277"/>
      <point x="195" y="277" type="curve" smooth="yes"/>
      <point x="223" y="277"/>
      <point x="225" y="282"/>
    </contour>
  </outline>
</glyph>
<glyph name="g" format="1">
  <advance width="400"/>
  <unicode hex="0067"/>
  <outline>
    <contour>
      <point x="370" y="-36" type="curve" smooth="yes"/>
      <point x="370" y="-139"/>
      <point x="300" y="-200"/>
      <point x="195" y="-200" type="curve" smooth="yes"/>
      <point x="94" y="-200"/>
      <point x="20" y="-135"/>
      <point x="20" y="-36" type="curve" smooth="yes"/>
      <point x="20" y="-21"/>
      <point x="33" y="-26"/>
      <point x="97" y="-26" type="curve" smooth="yes"/>
      <point x="145" y="-26"/>
      <point x="156" y="-17"/>
      <point x="156" y="-32" type="curve" smooth="yes"/>
      <point x="156" y="-65"/>
      <point x="179" y="-80"/>
      <point x="195" y="-80" type="curve" smooth="yes"/>
      <point x="216" y="-80"/>
      <point x="235" y="-65"/>
      <point x="235" y="5" type="curve" smooth="yes"/>
      <point x="235" y="38"/>
      <point x="234" y="43"/>
      <point x="227" y="32" type="curve" smooth="yes"/>
      <point x="217" y="14"/>
      <point x="186" y="0"/>
      <point x="159" y="0" type="curve" smooth="yes"/>
      <point x="92" y="0"/>
      <point x="20" y="39"/>
      <point x="20" y="164" type="curve" smooth="yes"/>
      <point x="20" y="222"/>
      <point x="20" y="258"/>
      <point x="20" y="316" type="curve" smooth="yes"/>
      <point x="20" y="441"/>
      <point x="92" y="480"/>
      <point x="159" y="480" type="curve" smooth="yes"/>
      <point x="196" y="480"/>
      <point x="219" y="454"/>
      <point x="229" y="436" type="curve" smooth="yes"/>
      <point x="236" y="425"/>
      <point x="235" y="441"/>
      <point x="235" y="458" type="curve" smooth="yes"/>
      <point x="235" y="487"/>
      <point x="247" y="480"/>
      <point x="312" y="480" type="curve" smooth="yes"/>
      <point x="357" y="480"/>
      <point x="370" y="484"/>
      <point x="370" y="471" type="curve" smooth="yes"/>
      <point x="370" y="253"/>
      <point x="370" y="110"/>
    </contour>
    <contour>
      <point x="225" y="218" type="curve" smooth="yes"/>
      <point x="225" y="252"/>
      <point x="225" y="231"/>
      <point x="225" y="262" type="curve" smooth="yes"/>
      <point x="225" y="296"/>
      <point x="231" y="334"/>
      <point x="195" y="334" type="curve" smooth="yes"/>
      <point x="160" y="334"/>
      <point x="165" y="296"/>
      <point x="165" y="262" type="curve" smooth="yes"/>
      <point x="165" y="242"/>
      <point x="165" y="256"/>
      <point x="165" y="218" type="curve" smooth="yes"/>
      <point x="165" y="184"/>
      <point x="160" y="146"/>
      <point x="195" y="146" type="curve" smooth="yes"/>
      <point x="231" y="146"/>
      <point x="225" y="184"/>
    </contour>
  </outline>
</glyph>
<glyph name="h" format="1">
  <advance width="410"/>
  <unicode hex="0068"/>
  <outline>
    <contour>
      <point x="380" y="11" type="curve" smooth="yes"/>
      <point x="380" y="1"/>
      <point x="367" y="0"/>
      <point x="310" y="0" type="curve" smooth="yes"/>
      <point x="243" y="0"/>
      <point x="230" y="0"/>
      <point x="230" y="8" type="curve" smooth="yes"/>
      <point x="230" y="80"/>
      <point x="230" y="162"/>
      <point x="230" y="275" type="curve" smooth="yes"/>
      <point x="230" y="303"/>
      <point x="234" y="335"/>
      <point x="205" y="335" type="curve" smooth="yes"/>
      <point x="175" y="335"/>
      <point x="180" y="303"/>
      <point x="180" y="275" type="curve" smooth="yes"/>
      <point x="180" y="161"/>
      <point x="180" y="89"/>
      <point x="180" y="12" type="curve" smooth="yes"/>
      <point x="180" y="-1"/>
      <point x="176" y="0"/>
      <point x="100" y="0" type="curve" smooth="yes"/>
      <point x="35" y="0"/>
      <point x="30" y="0"/>
      <point x="30" y="9" type="curve" smooth="yes"/>
      <point x="30" y="265"/>
      <point x="30" y="473"/>
      <point x="30" y="691" type="curve" smooth="yes"/>
      <point x="30" y="704"/>
      <point x="50" y="700"/>
      <point x="95" y="700" type="curve" smooth="yes"/>
      <point x="136" y="700"/>
      <point x="165" y="703"/>
      <point x="165" y="691" type="curve" smooth="yes"/>
      <point x="165" y="632"/>
      <point x="165" y="473"/>
      <point x="165" y="458" type="curve" smooth="yes"/>
      <point x="165" y="441"/>
      <point x="166" y="437"/>
      <point x="173" y="448" type="curve" smooth="yes"/>
      <point x="183" y="466"/>
      <point x="230" y="480"/>
      <point x="246" y="480" type="curve" smooth="yes"/>
      <point x="313" y="480"/>
      <point x="380" y="441"/>
      <point x="380" y="316" type="curve" smooth="yes"/>
      <point x="380" y="258"/>
      <point x="380" y="116"/>
    </contour>
  </outline>
</glyph>
<glyph name="i" format="1">
  <advance width="210"/>
  <unicode hex="0069"/>
  <outline>
    <contour>
      <point x="178" y="616" type="curve" smooth="yes"/>
      <point x="181" y="568"/>
      <point x="187" y="535"/>
      <point x="102" y="525" type="curve" smooth="yes"/>
      <point x="54" y="520"/>
      <point x="16" y="570"/>
      <point x="22" y="620" type="curve" smooth="yes"/>
      <point x="26" y="661"/>
      <point x="37" y="701"/>
      <point x="102" y="698" type="curve" smooth="yes"/>
      <point x="146" y="696"/>
      <point x="175" y="660"/>
    </contour>
    <contour>
      <point x="180" y="17" type="curve" smooth="yes"/>
      <point x="180" y="1"/>
      <point x="179" y="0"/>
      <point x="102" y="0" type="curve" smooth="yes"/>
      <point x="30" y="0"/>
      <point x="30" y="1"/>
      <point x="30" y="15" type="curve" smooth="yes"/>
      <point x="30" y="266"/>
      <point x="30" y="222"/>
      <point x="30" y="462" type="curve" smooth="yes"/>
      <point x="30" y="480"/>
      <point x="31" y="480"/>
      <point x="102" y="480" type="curve" smooth="yes"/>
      <point x="180" y="480"/>
      <point x="180" y="479"/>
      <point x="180" y="461" type="curve" smooth="yes"/>
      <point x="180" y="379"/>
      <point x="180" y="276"/>
    </contour>
  </outline>
</glyph>
<glyph name="j" format="1">
  <advance width="210"/>
  <unicode hex="006A"/>
  <outline>
    <contour>
      <point x="178" y="616" type="curve" smooth="yes"/>
      <point x="181" y="568"/>
      <point x="187" y="535"/>
      <point x="102" y="525" type="curve" smooth="yes"/>
      <point x="54" y="520"/>
      <point x="16" y="570"/>
      <point x="22" y="620" type="curve" smooth="yes"/>
      <point x="26" y="661"/>
      <point x="37" y="701"/>
      <point x="102" y="698" type="curve" smooth="yes"/>
      <point x="146" y="696"/>
      <point x="175" y="660"/>
    </contour>
    <contour>
      <point x="180" y="-36" type="curve" smooth="yes"/>
      <point x="180" y="-135"/>
      <point x="106" y="-200"/>
      <point x="5" y="-200" type="curve" smooth="yes"/>
      <point x="2" y="-200"/>
      <point x="-21" y="-200"/>
      <point x="-31" y="-200" type="curve" smooth="yes"/>
      <point x="-44" y="-200"/>
      <point x="-43" y="-190"/>
      <point x="-43" y="-126" type="curve" smooth="yes"/>
      <point x="-43" y="-56"/>
      <point x="-38" y="-55"/>
      <point x="-28" y="-55" type="curve" smooth="yes"/>
      <point x="-19" y="-55"/>
      <point x="3" y="-55"/>
      <point x="5" y="-55" type="curve" smooth="yes"/>
      <point x="31" y="-55"/>
      <point x="30" y="-23"/>
      <point x="30" y="5" type="curve" smooth="yes"/>
      <point x="30" y="10"/>
      <point x="30" y="222"/>
      <point x="30" y="462" type="curve" smooth="yes"/>
      <point x="30" y="480"/>
      <point x="31" y="480"/>
      <point x="102" y="480" type="curve" smooth="yes"/>
      <point x="180" y="480"/>
      <point x="180" y="479"/>
      <point x="180" y="461" type="curve" smooth="yes"/>
      <point x="180" y="379"/>
      <point x="180" y="-15"/>
    </contour>
  </outline>
</glyph>
<glyph name="k" format="1">
  <advance width="402"/>
  <unicode hex="006B"/>
  <outline>
    <contour>
      <point x="401" y="12" type="curve" smooth="yes"/>
      <point x="403" y="6"/>
      <point x="399" y="0"/>
      <point x="316" y="0" type="curve" smooth="yes"/>
      <point x="284" y="0"/>
      <point x="259" y="2"/>
      <point x="255" y="14" type="curve" smooth="yes"/>
      <point x="230" y="87"/>
      <point x="238" y="64"/>
      <point x="216" y="134" type="curve" smooth="yes"/>
      <point x="209" y="157"/>
      <point x="202" y="156"/>
      <point x="196" y="151" type="curve" smooth="yes"/>
      <point x="190" y="146"/>
      <point x="180" y="141"/>
      <point x="180" y="128" type="curve" smooth="yes"/>
      <point x="180" y="72"/>
      <point x="180" y="76"/>
      <point x="180" y="18" type="curve" smooth="yes"/>
      <point x="180" y="1"/>
      <point x="132" y="1"/>
      <point x="102" y="1" type="curve" smooth="yes"/>
      <point x="76" y="1"/>
      <point x="30" y="2"/>
      <point x="30" y="16" type="curve" smooth="yes"/>
      <point x="30" y="267"/>
      <point x="30" y="445"/>
      <point x="30" y="685" type="curve" smooth="yes"/>
      <point x="30" y="698"/>
      <point x="86" y="699"/>
      <point x="102" y="699" type="curve" smooth="yes"/>
      <point x="121" y="699"/>
      <point x="180" y="699"/>
      <point x="180" y="684" type="curve" smooth="yes"/>
      <point x="180" y="560"/>
      <point x="180" y="449"/>
      <point x="180" y="335" type="curve" smooth="yes"/>
      <point x="180" y="323"/>
      <point x="183" y="315"/>
      <point x="187" y="320" type="curve" smooth="yes"/>
      <point x="191" y="325"/>
      <point x="195" y="332"/>
      <point x="198" y="341" type="curve" smooth="yes"/>
      <point x="213" y="393"/>
      <point x="220" y="419"/>
      <point x="235" y="470" type="curve" smooth="yes"/>
      <point x="237" y="477"/>
      <point x="269" y="480"/>
      <point x="292" y="480" type="curve" smooth="yes"/>
      <point x="316" y="480"/>
      <point x="388" y="480"/>
      <point x="384" y="470" type="curve" smooth="yes"/>
      <point x="356" y="405"/>
      <point x="343" y="371"/>
      <point x="314" y="308" type="curve" smooth="yes"/>
      <point x="310" y="299"/>
      <point x="305" y="289"/>
      <point x="305" y="282" type="curve" smooth="yes"/>
      <point x="305" y="277"/>
      <point x="307" y="264"/>
      <point x="311" y="255" type="curve" smooth="yes"/>
      <point x="350" y="157"/>
      <point x="368" y="105"/>
    </contour>
  </outline>
</glyph>
<glyph name="l" format="1">
  <advance width="210"/>
  <unicode hex="006C"/>
  <outline>
    <contour>
      <point x="180" y="17" type="curve" smooth="yes"/>
      <point x="180" y="1"/>
      <point x="179" y="0"/>
      <point x="102" y="0" type="curve" smooth="yes"/>
      <point x="30" y="0"/>
      <point x="30" y="1"/>
      <point x="30" y="15" type="curve" smooth="yes"/>
      <point x="30" y="266"/>
      <point x="30" y="441"/>
      <point x="30" y="681" type="curve" smooth="yes"/>
      <point x="30" y="699"/>
      <point x="31" y="699"/>
      <point x="102" y="699" type="curve" smooth="yes"/>
      <point x="180" y="699"/>
      <point x="180" y="698"/>
      <point x="180" y="680" type="curve" smooth="yes"/>
      <point x="180" y="598"/>
      <point x="180" y="276"/>
    </contour>
  </outline>
</glyph>
<glyph name="m" format="1">
  <advance width="610"/>
  <unicode hex="006D"/>
  <outline>
    <contour>
      <point x="580" y="11" type="curve" smooth="yes"/>
      <point x="580" y="1"/>
      <point x="567" y="0"/>
      <point x="510" y="0" type="curve" smooth="yes"/>
      <point x="443" y="0"/>
      <point x="430" y="0"/>
      <point x="430" y="8" type="curve" smooth="yes"/>
      <point x="430" y="80"/>
      <point x="430" y="162"/>
      <point x="430" y="275" type="curve" smooth="yes"/>
      <point x="430" y="303"/>
      <point x="434" y="335"/>
      <point x="405" y="335" type="curve" smooth="yes"/>
      <point x="375" y="335"/>
      <point x="380" y="303"/>
      <point x="380" y="275" type="curve" smooth="yes"/>
      <point x="380" y="161"/>
      <point x="380" y="116"/>
      <point x="380" y="11" type="curve" smooth="yes"/>
      <point x="380" y="1"/>
      <point x="367" y="0"/>
      <point x="310" y="0" type="curve" smooth="yes"/>
      <point x="243" y="0"/>
      <point x="230" y="0"/>
      <point x="230" y="8" type="curve" smooth="yes"/>
      <point x="230" y="80"/>
      <point x="230" y="162"/>
      <point x="230" y="275" type="curve" smooth="yes"/>
      <point x="230" y="303"/>
      <point x="234" y="335"/>
      <point x="205" y="335" type="curve" smooth="yes"/>
      <point x="175" y="335"/>
      <point x="180" y="303"/>
      <point x="180" y="275" type="curve" smooth="yes"/>
      <point x="180" y="161"/>
      <point x="180" y="89"/>
      <point x="180" y="12" type="curve" smooth="yes"/>
      <point x="180" y="-1"/>
      <point x="176" y="0"/>
      <point x="100" y="0" type="curve" smooth="yes"/>
      <point x="35" y="0"/>
      <point x="30" y="0"/>
      <point x="30" y="9" type="curve" smooth="yes"/>
      <point x="30" y="265"/>
      <point x="30" y="253"/>
      <point x="30" y="471" type="curve" smooth="yes"/>
      <point x="30" y="484"/>
      <point x="43" y="480"/>
      <point x="88" y="480" type="curve" smooth="yes"/>
      <point x="153" y="480"/>
      <point x="165" y="487"/>
      <point x="165" y="458" type="curve" smooth="yes"/>
      <point x="165" y="441"/>
      <point x="166" y="437"/>
      <point x="173" y="448" type="curve" smooth="yes"/>
      <point x="183" y="466"/>
      <point x="219" y="480"/>
      <point x="246" y="480" type="curve" smooth="yes"/>
      <point x="316" y="480"/>
      <point x="323" y="433"/>
      <point x="330" y="433" type="curve" smooth="yes"/>
      <point x="341" y="433"/>
      <point x="346" y="480"/>
      <point x="431" y="480" type="curve" smooth="yes"/>
      <point x="498" y="480"/>
      <point x="580" y="441"/>
      <point x="580" y="316" type="curve" smooth="yes"/>
      <point x="580" y="258"/>
      <point x="580" y="116"/>
    </contour>
  </outline>
</glyph>
<glyph name="o" format="1">
  <advance width="390"/>
  <unicode hex="006F"/>
  <outline>
    <contour>
      <point x="370" y="164" type="curve" smooth="yes"/>
      <point x="370" y="61"/>
      <point x="300" y="0"/>
      <point x="195" y="0" type="curve" smooth="yes"/>
      <point x="94" y="0"/>
      <point x="20" y="65"/>
      <point x="20" y="164" type="curve" smooth="yes"/>
      <point x="20" y="313"/>
      <point x="20" y="167"/>
      <point x="20" y="316" type="curve" smooth="yes"/>
      <point x="20" y="415"/>
      <point x="94" y="480"/>
      <point x="195" y="480" type="curve" smooth="yes"/>
      <point x="300" y="480"/>
      <point x="370" y="419"/>
      <point x="370" y="316" type="curve" smooth="yes"/>
      <point x="370" y="171"/>
      <point x="370" y="310"/>
    </contour>
    <contour>
      <point x="225" y="218" type="curve" smooth="yes"/>
      <point x="225" y="252"/>
      <point x="225" y="231"/>
      <point x="225" y="262" type="curve" smooth="yes"/>
      <point x="225" y="296"/>
      <point x="231" y="334"/>
      <point x="195" y="334" type="curve" smooth="yes"/>
      <point x="160" y="334"/>
      <point x="165" y="296"/>
      <point x="165" y="262" type="curve" smooth="yes"/>
      <point x="165" y="242"/>
      <point x="165" y="256"/>
      <point x="165" y="218" type="curve" smooth="yes"/>
      <point x="165" y="184"/>
      <point x="160" y="146"/>
      <point x="195" y="146" type="curve" smooth="yes"/>
      <point x="231" y="146"/>
      <point x="225" y="184"/>
    </contour>
  </outline>
</glyph>
<glyph name="p" format="1">
  <advance width="400"/>
  <unicode hex="0070"/>
  <outline>
    <contour>
      <point x="380" y="164" type="curve" smooth="yes"/>
      <point x="380" y="59"/>
      <point x="308" y="0"/>
      <point x="241" y="0" type="curve" smooth="yes"/>
      <point x="229" y="0"/>
      <point x="183" y="15"/>
      <point x="173" y="32" type="curve" smooth="yes"/>
      <point x="166" y="43"/>
      <point x="165" y="39"/>
      <point x="165" y="22" type="curve" smooth="yes"/>
      <point x="165" y="-31"/>
      <point x="165" y="-103"/>
      <point x="165" y="-192" type="curve" smooth="yes"/>
      <point x="165" y="-201"/>
      <point x="176" y="-200"/>
      <point x="100" y="-200" type="curve" smooth="yes"/>
      <point x="35" y="-200"/>
      <point x="30" y="-200"/>
      <point x="30" y="-191" type="curve" smooth="yes"/>
      <point x="30" y="65"/>
      <point x="30" y="253"/>
      <point x="30" y="471" type="curve" smooth="yes"/>
      <point x="30" y="484"/>
      <point x="43" y="480"/>
      <point x="88" y="480" type="curve" smooth="yes"/>
      <point x="153" y="480"/>
      <point x="165" y="487"/>
      <point x="165" y="458" type="curve" smooth="yes"/>
      <point x="165" y="441"/>
      <point x="166" y="431"/>
      <point x="173" y="442" type="curve" smooth="yes"/>
      <point x="183" y="460"/>
      <point x="210" y="480"/>
      <point x="241" y="480" type="curve" smooth="yes"/>
      <point x="308" y="480"/>
      <point x="380" y="441"/>
      <point x="380" y="316" type="curve" smooth="yes"/>
      <point x="380" y="258"/>
      <point x="380" y="247"/>
    </contour>
    <contour>
      <point x="235" y="218" type="curve" smooth="yes"/>
      <point x="235" y="252"/>
      <point x="235" y="231"/>
      <point x="235" y="262" type="curve" smooth="yes"/>
      <point x="235" y="296"/>
      <point x="241" y="334"/>
      <point x="205" y="334" type="curve" smooth="yes"/>
      <point x="170" y="334"/>
      <point x="175" y="296"/>
      <point x="175" y="262" type="curve" smooth="yes"/>
      <point x="175" y="242"/>
      <point x="175" y="256"/>
      <point x="175" y="218" type="curve" smooth="yes"/>
      <point x="175" y="184"/>
      <point x="170" y="146"/>
      <point x="205" y="146" type="curve" smooth="yes"/>
      <point x="241" y="146"/>
      <point x="235" y="184"/>
    </contour>
  </outline>
</glyph>
<glyph name="q" format="1">
  <advance width="400"/>
  <unicode hex="0071"/>
  <outline>
    <contour>
      <point x="370" y="-191" type="curve" smooth="yes"/>
      <point x="370" y="-200"/>
      <point x="365" y="-200"/>
      <point x="300" y="-200" type="curve" smooth="yes"/>
      <point x="224" y="-200"/>
      <point x="235" y="-201"/>
      <point x="235" y="-192" type="curve" smooth="yes"/>
      <point x="235" y="-103"/>
      <point x="235" y="-31"/>
      <point x="235" y="22" type="curve" smooth="yes"/>
      <point x="235" y="39"/>
      <point x="234" y="43"/>
      <point x="227" y="32" type="curve" smooth="yes"/>
      <point x="217" y="15"/>
      <point x="171" y="0"/>
      <point x="159" y="0" type="curve" smooth="yes"/>
      <point x="92" y="0"/>
      <point x="20" y="59"/>
      <point x="20" y="164" type="curve" smooth="yes"/>
      <point x="20" y="247"/>
      <point x="20" y="258"/>
      <point x="20" y="316" type="curve" smooth="yes"/>
      <point x="20" y="441"/>
      <point x="92" y="480"/>
      <point x="159" y="480" type="curve" smooth="yes"/>
      <point x="188" y="480"/>
      <point x="217" y="459"/>
      <point x="227" y="441" type="curve" smooth="yes"/>
      <point x="234" y="430"/>
      <point x="235" y="441"/>
      <point x="235" y="458" type="curve" smooth="yes"/>
      <point x="235" y="487"/>
      <point x="247" y="480"/>
      <point x="312" y="480" type="curve" smooth="yes"/>
      <point x="357" y="480"/>
      <point x="370" y="484"/>
      <point x="370" y="471" type="curve" smooth="yes"/>
      <point x="370" y="253"/>
      <point x="370" y="65"/>
    </contour>
    <contour>
      <point x="225" y="218" type="curve" smooth="yes"/>
      <point x="225" y="252"/>
      <point x="225" y="231"/>
      <point x="225" y="262" type="curve" smooth="yes"/>
      <point x="225" y="296"/>
      <point x="231" y="334"/>
      <point x="195" y="334" type="curve" smooth="yes"/>
      <point x="160" y="334"/>
      <point x="165" y="296"/>
      <point x="165" y="262" type="curve" smooth="yes"/>
      <point x="165" y="242"/>
      <point x="165" y="256"/>
      <point x="165" y="218" type="curve" smooth="yes"/>
      <point x="165" y="184"/>
      <point x="160" y="146"/>
      <point x="195" y="146" type="curve" smooth="yes"/>
      <point x="231" y="146"/>
      <point x="225" y="184"/>
    </contour>
  </outline>
</glyph>
<glyph name="r" format="1">
  <advance width="290"/>
  <unicode hex="0072"/>
  <outline>
    <contour>
      <point x="280" y="401" type="curve" smooth="yes"/>
      <point x="280" y="336"/>
      <point x="280" y="335"/>
      <point x="266" y="335" type="curve" smooth="yes"/>
      <point x="261" y="335"/>
      <point x="230" y="335"/>
      <point x="220" y="335" type="curve" smooth="yes"/>
      <point x="180" y="335"/>
      <point x="180" y="299"/>
      <point x="180" y="259" type="curve" smooth="yes"/>
      <point x="180" y="145"/>
      <point x="180" y="89"/>
      <point x="180" y="12" type="curve" smooth="yes"/>
      <point x="180" y="-1"/>
      <point x="176" y="0"/>
      <point x="100" y="0" type="curve" smooth="yes"/>
      <point x="35" y="0"/>
      <point x="30" y="0"/>
      <point x="30" y="9" type="curve" smooth="yes"/>
      <point x="30" y="265"/>
      <point x="30" y="253"/>
      <point x="30" y="471" type="curve" smooth="yes"/>
      <point x="30" y="484"/>
      <point x="43" y="480"/>
      <point x="88" y="480" type="curve" smooth="yes"/>
      <point x="153" y="480"/>
      <point x="165" y="487"/>
      <point x="165" y="458" type="curve" smooth="yes"/>
      <point x="165" y="441"/>
      <point x="166" y="435"/>
      <point x="173" y="446" type="curve" smooth="yes"/>
      <point x="183" y="464"/>
      <point x="200" y="480"/>
      <point x="266" y="480" type="curve" smooth="yes"/>
      <point x="278" y="480"/>
      <point x="280" y="481"/>
    </contour>
  </outline>
</glyph>
<glyph name="s" format="1">
  <advance width="365"/>
  <unicode hex="0073"/>
  <outline>
    <contour>
      <point x="350" y="139" type="curve" smooth="yes"/>
      <point x="350" y="65"/>
      <point x="283" y="0"/>
      <point x="183" y="0" type="curve" smooth="yes"/>
      <point x="88" y="0"/>
      <point x="15" y="60"/>
      <point x="15" y="164" type="curve" smooth="yes"/>
      <point x="15" y="171"/>
      <point x="21" y="171"/>
      <point x="77" y="171" type="curve" smooth="yes"/>
      <point x="133" y="171"/>
      <point x="155" y="172"/>
      <point x="155" y="166" type="curve" smooth="yes"/>
      <point x="155" y="132"/>
      <point x="156" y="115"/>
      <point x="179" y="115" type="curve" smooth="yes"/>
      <point x="199" y="115"/>
      <point x="203" y="130"/>
      <point x="203" y="149" type="curve" smooth="yes"/>
      <point x="203" y="211"/>
      <point x="18" y="168"/>
      <point x="18" y="341" type="curve" smooth="yes"/>
      <point x="18" y="416"/>
      <point x="95" y="480"/>
      <point x="180" y="480" type="curve" smooth="yes"/>
      <point x="263" y="480"/>
      <point x="342" y="415"/>
      <point x="342" y="316" type="curve" smooth="yes"/>
      <point x="342" y="310"/>
      <point x="327" y="312"/>
      <point x="281" y="312" type="curve" smooth="yes"/>
      <point x="224" y="312"/>
      <point x="197" y="312"/>
      <point x="197" y="317" type="curve" smooth="yes"/>
      <point x="197" y="353"/>
      <point x="192" y="365"/>
      <point x="176" y="365" type="curve" smooth="yes"/>
      <point x="162" y="365"/>
      <point x="158" y="354"/>
      <point x="158" y="333" type="curve" smooth="yes"/>
      <point x="158" y="291"/>
      <point x="350" y="297"/>
    </contour>
  </outline>
</glyph>
<glyph name="t" format="1">
  <advance width="296"/>
  <unicode hex="0074"/>
  <outline>
    <contour>
      <point x="276" y="71" type="curve" smooth="yes"/>
      <point x="276" y="7"/>
      <point x="274" y="0"/>
      <point x="264" y="0" type="curve" smooth="yes"/>
      <point x="254" y="0"/>
      <point x="231" y="0"/>
      <point x="228" y="0" type="curve" smooth="yes"/>
      <point x="127" y="0"/>
      <point x="53" y="51"/>
      <point x="53" y="164" type="curve" smooth="yes"/>
      <point x="53" y="220"/>
      <point x="53" y="339"/>
      <point x="50" y="342" type="curve"/>
      <point x="45" y="346"/>
      <point x="32" y="344"/>
      <point x="22" y="344" type="curve" smooth="yes"/>
      <point x="13" y="344"/>
      <point x="10" y="351"/>
      <point x="10" y="398" type="curve" smooth="yes"/>
      <point x="10" y="459"/>
      <point x="15" y="464"/>
      <point x="25" y="464" type="curve" smooth="yes"/>
      <point x="51" y="464"/>
      <point x="53" y="466"/>
      <point x="53" y="484" type="curve" smooth="yes"/>
      <point x="53" y="498"/>
      <point x="53" y="537"/>
      <point x="53" y="548" type="curve" smooth="yes"/>
      <point x="53" y="562"/>
      <point x="58" y="564"/>
      <point x="129" y="564" type="curve" smooth="yes"/>
      <point x="197" y="564"/>
      <point x="203" y="563"/>
      <point x="203" y="546" type="curve" smooth="yes"/>
      <point x="203" y="533"/>
      <point x="203" y="500"/>
      <point x="203" y="484" type="curve" smooth="yes"/>
      <point x="203" y="466"/>
      <point x="205" y="464"/>
      <point x="261" y="464" type="curve" smooth="yes"/>
      <point x="271" y="464"/>
      <point x="276" y="460"/>
      <point x="276" y="398" type="curve" smooth="yes"/>
      <point x="276" y="349"/>
      <point x="275" y="344"/>
      <point x="264" y="344" type="curve" smooth="yes"/>
      <point x="254" y="344"/>
      <point x="211" y="346"/>
      <point x="206" y="342" type="curve"/>
      <point x="203" y="339"/>
      <point x="203" y="325"/>
      <point x="203" y="320" type="curve" smooth="yes"/>
      <point x="203" y="263"/>
      <point x="203" y="215"/>
      <point x="203" y="189" type="curve" smooth="yes"/>
      <point x="203" y="146"/>
      <point x="235" y="141"/>
      <point x="246" y="141" type="curve" smooth="yes"/>
      <point x="248" y="141"/>
      <point x="252" y="141"/>
      <point x="261" y="141" type="curve" smooth="yes"/>
      <point x="271" y="141"/>
      <point x="276" y="140"/>
    </contour>
  </outline>
</glyph>
<glyph name="u" format="1">
  <advance width="410"/>
  <unicode hex="0075"/>
  <outline>
    <contour>
      <point x="380" y="9" type="curve" smooth="yes"/>
      <point x="380" y="-4"/>
      <point x="367" y="0"/>
      <point x="322" y="0" type="curve" smooth="yes"/>
      <point x="257" y="0"/>
      <point x="245" y="-7"/>
      <point x="245" y="22" type="curve" smooth="yes"/>
      <point x="245" y="39"/>
      <point x="244" y="50"/>
      <point x="237" y="39" type="curve" smooth="yes"/>
      <point x="227" y="21"/>
      <point x="202" y="0"/>
      <point x="169" y="0" type="curve" smooth="yes"/>
      <point x="102" y="0"/>
      <point x="30" y="39"/>
      <point x="30" y="164" type="curve" smooth="yes"/>
      <point x="30" y="222"/>
      <point x="30" y="364"/>
      <point x="30" y="469" type="curve" smooth="yes"/>
      <point x="30" y="479"/>
      <point x="43" y="480"/>
      <point x="100" y="480" type="curve" smooth="yes"/>
      <point x="167" y="480"/>
      <point x="175" y="478"/>
      <point x="175" y="469" type="curve" smooth="yes"/>
      <point x="175" y="382"/>
      <point x="175" y="354"/>
      <point x="175" y="218" type="curve" smooth="yes"/>
      <point x="175" y="185"/>
      <point x="170" y="146"/>
      <point x="205" y="146" type="curve" smooth="yes"/>
      <point x="241" y="146"/>
      <point x="235" y="185"/>
      <point x="235" y="218" type="curve" smooth="yes"/>
      <point x="235" y="355"/>
      <point x="235" y="371"/>
      <point x="235" y="464" type="curve" smooth="yes"/>
      <point x="235" y="479"/>
      <point x="234" y="480"/>
      <point x="310" y="480" type="curve" smooth="yes"/>
      <point x="375" y="480"/>
      <point x="380" y="480"/>
      <point x="380" y="471" type="curve" smooth="yes"/>
      <point x="380" y="215"/>
      <point x="380" y="227"/>
    </contour>
  </outline>
</glyph>
<glyph name="v" format="1">
  <advance width="366"/>
  <unicode hex="0076"/>
  <outline>
    <contour>
      <point x="361" y="463" type="curve" smooth="yes"/>
      <point x="318" y="304"/>
      <point x="282" y="171"/>
      <point x="239" y="16" type="curve" smooth="yes"/>
      <point x="235" y="2"/>
      <point x="207" y="0"/>
      <point x="175" y="0" type="curve" smooth="yes"/>
      <point x="145" y="0"/>
      <point x="114" y="-1"/>
      <point x="109" y="19" type="curve" smooth="yes"/>
      <point x="75" y="164"/>
      <point x="42" y="308"/>
      <point x="5" y="467" type="curve" smooth="yes"/>
      <point x="2" y="478"/>
      <point x="45" y="479"/>
      <point x="68" y="479" type="curve" smooth="yes"/>
      <point x="96" y="479"/>
      <point x="150" y="478"/>
      <point x="151" y="465" type="curve" smooth="yes"/>
      <point x="160" y="371"/>
      <point x="164" y="320"/>
      <point x="173" y="212" type="curve" smooth="yes"/>
      <point x="173" y="209"/>
      <point x="174" y="202"/>
      <point x="179" y="202" type="curve" smooth="yes"/>
      <point x="185" y="202"/>
      <point x="186" y="209"/>
      <point x="186" y="213" type="curve"/>
      <point x="199" y="320"/>
      <point x="204" y="360"/>
      <point x="215" y="466" type="curve" smooth="yes"/>
      <point x="216" y="477"/>
      <point x="272" y="480"/>
      <point x="296" y="480" type="curve" smooth="yes"/>
      <point x="325" y="480"/>
      <point x="365" y="477"/>
    </contour>
  </outline>
</glyph>
<glyph name="w" format="1">
  <advance width="462"/>
  <unicode hex="0077"/>
  <outline>
    <contour>
      <point x="441" y="466" type="curve" smooth="yes"/>
      <point x="413" y="284"/>
      <point x="394" y="154"/>
      <point x="371" y="10" type="curve" smooth="yes"/>
      <point x="369" y="-5"/>
      <point x="338" y="-1"/>
      <point x="317" y="0" type="curve" smooth="yes"/>
      <point x="304" y="1"/>
      <point x="257" y="0"/>
      <point x="256" y="13" type="curve" smooth="yes"/>
      <point x="251" y="64"/>
      <point x="248" y="88"/>
      <point x="241" y="143" type="curve"/>
      <point x="240" y="147"/>
      <point x="240" y="154"/>
      <point x="234" y="154" type="curve" smooth="yes"/>
      <point x="229" y="154"/>
      <point x="228" y="147"/>
      <point x="228" y="144" type="curve"/>
      <point x="219" y="84"/>
      <point x="215" y="59"/>
      <point x="207" y="9" type="curve" smooth="yes"/>
      <point x="205" y="-1"/>
      <point x="164" y="-1"/>
      <point x="143" y="0" type="curve" smooth="yes"/>
      <point x="130" y="1"/>
      <point x="90" y="0"/>
      <point x="88" y="13" type="curve" smooth="yes"/>
      <point x="67" y="152"/>
      <point x="42" y="316"/>
      <point x="20" y="461" type="curve" smooth="yes"/>
      <point x="18" y="471"/>
      <point x="49" y="478"/>
      <point x="80" y="478" type="curve" smooth="yes"/>
      <point x="116" y="478"/>
      <point x="146" y="475"/>
      <point x="147" y="462" type="curve" smooth="yes"/>
      <point x="158" y="351"/>
      <point x="160" y="323"/>
      <point x="168" y="229" type="curve" smooth="yes"/>
      <point x="168" y="226"/>
      <point x="169" y="219"/>
      <point x="174" y="219" type="curve" smooth="yes"/>
      <point x="180" y="219"/>
      <point x="181" y="226"/>
      <point x="181" y="230" type="curve" smooth="yes"/>
      <point x="185" y="337"/>
      <point x="186" y="363"/>
      <point x="189" y="467" type="curve" smooth="yes"/>
      <point x="189" y="476"/>
      <point x="203" y="479"/>
      <point x="229" y="479" type="curve" smooth="yes"/>
      <point x="255" y="479"/>
      <point x="280" y="478"/>
      <point x="280" y="467" type="curve" smooth="yes"/>
      <point x="284" y="361"/>
      <point x="284" y="343"/>
      <point x="287" y="233" type="curve" smooth="yes"/>
      <point x="287" y="230"/>
      <point x="288" y="223"/>
      <point x="293" y="223" type="curve" smooth="yes"/>
      <point x="299" y="223"/>
      <point x="300" y="230"/>
      <point x="300" y="234" type="curve" smooth="yes"/>
      <point x="308" y="354"/>
      <point x="310" y="385"/>
      <point x="314" y="469" type="curve" smooth="yes"/>
      <point x="314" y="478"/>
      <point x="342" y="480"/>
      <point x="367" y="480" type="curve" smooth="yes"/>
      <point x="399" y="480"/>
      <point x="443" y="478"/>
    </contour>
  </outline>
</glyph>
<glyph name="x" format="1">
  <advance width="395"/>
  <unicode hex="0078"/>
  <outline>
    <contour>
      <point x="380" y="11" type="curve"/>
      <point x="383" y="6"/>
      <point x="351" y="-1"/>
      <point x="318" y="-1" type="curve" smooth="yes"/>
      <point x="288" y="-1"/>
      <point x="234" y="0"/>
      <point x="231" y="10" type="curve" smooth="yes"/>
      <point x="218" y="56"/>
      <point x="211" y="83"/>
      <point x="200" y="127" type="curve" smooth="yes"/>
      <point x="199" y="130"/>
      <point x="198" y="136"/>
      <point x="194" y="136" type="curve" smooth="yes"/>
      <point x="189" y="136"/>
      <point x="188" y="130"/>
      <point x="187" y="126" type="curve" smooth="yes"/>
      <point x="176" y="83"/>
      <point x="170" y="58"/>
      <point x="156" y="12" type="curve" smooth="yes"/>
      <point x="152" y="0"/>
      <point x="102" y="-1"/>
      <point x="74" y="-1" type="curve" smooth="yes"/>
      <point x="48" y="-1"/>
      <point x="12" y="4"/>
      <point x="15" y="12" type="curve" smooth="yes"/>
      <point x="45" y="84"/>
      <point x="72" y="150"/>
      <point x="100" y="219" type="curve" smooth="yes"/>
      <point x="103" y="226"/>
      <point x="103" y="233"/>
      <point x="103" y="242" type="curve" smooth="yes"/>
      <point x="103" y="253"/>
      <point x="103" y="261"/>
      <point x="99" y="269" type="curve" smooth="yes"/>
      <point x="71" y="336"/>
      <point x="46" y="397"/>
      <point x="17" y="466" type="curve" smooth="yes"/>
      <point x="15" y="472"/>
      <point x="50" y="478"/>
      <point x="76" y="478" type="curve" smooth="yes"/>
      <point x="108" y="478"/>
      <point x="163" y="476"/>
      <point x="165" y="465" type="curve" smooth="yes"/>
      <point x="173" y="426"/>
      <point x="180" y="394"/>
      <point x="188" y="356" type="curve"/>
      <point x="189" y="353"/>
      <point x="190" y="347"/>
      <point x="194" y="347" type="curve" smooth="yes"/>
      <point x="198" y="347"/>
      <point x="198" y="354"/>
      <point x="199" y="357" type="curve"/>
      <point x="208" y="400"/>
      <point x="214" y="429"/>
      <point x="222" y="470" type="curve" smooth="yes"/>
      <point x="224" y="479"/>
      <point x="275" y="478"/>
      <point x="303" y="478" type="curve" smooth="yes"/>
      <point x="335" y="478"/>
      <point x="368" y="472"/>
      <point x="366" y="466" type="curve" smooth="yes"/>
      <point x="338" y="398"/>
      <point x="311" y="335"/>
      <point x="284" y="270" type="curve" smooth="yes"/>
      <point x="281" y="263"/>
      <point x="280" y="254"/>
      <point x="280" y="243" type="curve" smooth="yes"/>
      <point x="280" y="234"/>
      <point x="281" y="226"/>
      <point x="283" y="221" type="curve" smooth="yes"/>
      <point x="315" y="151"/>
      <point x="347" y="82"/>
    </contour>
  </outline>
</glyph>
<glyph name="y" format="1">
  <advance width="373"/>
  <unicode hex="0079"/>
  <outline>
    <contour>
      <point x="358" y="466" type="curve" smooth="yes"/>
      <point x="298" y="229"/>
      <point x="246" y="26"/>
      <point x="193" y="-187" type="curve" smooth="yes"/>
      <point x="190" y="-199"/>
      <point x="156" y="-200"/>
      <point x="130" y="-200" type="curve" smooth="yes"/>
      <point x="109" y="-200"/>
      <point x="62" y="-199"/>
      <point x="65" y="-184" type="curve" smooth="yes"/>
      <point x="80" y="-113"/>
      <point x="90" y="-66"/>
      <point x="104" y="3" type="curve" smooth="yes"/>
      <point x="107" y="16"/>
      <point x="108" y="24"/>
      <point x="108" y="33" type="curve" smooth="yes"/>
      <point x="108" y="45"/>
      <point x="108" y="54"/>
      <point x="106" y="61" type="curve" smooth="yes"/>
      <point x="72" y="209"/>
      <point x="48" y="320"/>
      <point x="15" y="469" type="curve" smooth="yes"/>
      <point x="13" y="479"/>
      <point x="60" y="480"/>
      <point x="87" y="480" type="curve" smooth="yes"/>
      <point x="114" y="480"/>
      <point x="156" y="479"/>
      <point x="157" y="466" type="curve" smooth="yes"/>
      <point x="167" y="363"/>
      <point x="171" y="312"/>
      <point x="180" y="217" type="curve"/>
      <point x="180" y="214"/>
      <point x="181" y="207"/>
      <point x="186" y="207" type="curve" smooth="yes"/>
      <point x="192" y="207"/>
      <point x="193" y="214"/>
      <point x="193" y="218" type="curve"/>
      <point x="203" y="319"/>
      <point x="207" y="367"/>
      <point x="217" y="468" type="curve" smooth="yes"/>
      <point x="218" y="479"/>
      <point x="262" y="480"/>
      <point x="292" y="480" type="curve" smooth="yes"/>
      <point x="315" y="480"/>
      <point x="361" y="477"/>
    </contour>
  </outline>
</glyph>
<glyph name="z" format="1">
  <advance width="343"/>
  <unicode hex="007A"/>
  <outline>
    <contour>
      <point x="327" y="55" type="curve" smooth="yes"/>
      <point x="327" y="31"/>
      <point x="329" y="0"/>
      <point x="312" y="0" type="curve" smooth="yes"/>
      <point x="267" y="0"/>
      <point x="83" y="0"/>
      <point x="38" y="0" type="curve" smooth="yes"/>
      <point x="21" y="0"/>
      <point x="20" y="38"/>
      <point x="20" y="72" type="curve" smooth="yes"/>
      <point x="20" y="102"/>
      <point x="16" y="141"/>
      <point x="22" y="148" type="curve" smooth="yes"/>
      <point x="76" y="218"/>
      <point x="100" y="248"/>
      <point x="158" y="322" type="curve" smooth="yes"/>
      <point x="165" y="331"/>
      <point x="160" y="352"/>
      <point x="151" y="359" type="curve"/>
      <point x="146" y="361"/>
      <point x="137" y="361"/>
      <point x="130" y="361" type="curve" smooth="yes"/>
      <point x="105" y="361"/>
      <point x="72" y="361"/>
      <point x="46" y="361" type="curve" smooth="yes"/>
      <point x="31" y="361"/>
      <point x="30" y="391"/>
      <point x="30" y="412" type="curve" smooth="yes"/>
      <point x="30" y="437"/>
      <point x="31" y="480"/>
      <point x="43" y="480" type="curve" smooth="yes"/>
      <point x="96" y="480"/>
      <point x="247" y="480"/>
      <point x="300" y="480" type="curve" smooth="yes"/>
      <point x="321" y="480"/>
      <point x="321" y="463"/>
      <point x="321" y="426" type="curve" smooth="yes"/>
      <point x="321" y="406"/>
      <point x="324" y="352"/>
      <point x="316" y="341" type="curve" smooth="yes"/>
      <point x="245" y="244"/>
      <point x="212" y="203"/>
      <point x="173" y="153" type="curve" smooth="yes"/>
      <point x="169" y="147"/>
      <point x="173" y="128"/>
      <point x="178" y="125" type="curve" smooth="yes"/>
      <point x="183" y="122"/>
      <point x="197" y="122"/>
      <point x="208" y="122" type="curve" smooth="yes"/>
      <point x="237" y="122"/>
      <point x="283" y="122"/>
      <point x="312" y="122" type="curve" smooth="yes"/>
      <point x="324" y="122"/>
      <point x="327" y="78"/>
    </contour>
  </outline>
</glyph>
<glyph name="braceleft" format="1">
  <advance width="311"/>
  <unicode hex="007B"/>
  <outline>
    <contour>
      <point x="281" y="-11" type="curve" smooth="yes"/>
      <point x="281" y="-28"/>
      <point x="283" y="-70"/>
      <point x="276" y="-70" type="curve" smooth="yes"/>
      <point x="151" y="-70"/>
      <point x="75" y="-34"/>
      <point x="75" y="101" type="curve" smooth="yes"/>
      <point x="75" y="216"/>
      <point x="75" y="178"/>
      <point x="75" y="247" type="curve" smooth="yes"/>
      <point x="75" y="276"/>
      <point x="48" y="307"/>
      <point x="24" y="307" type="curve" smooth="yes"/>
      <point x="19" y="307"/>
      <point x="19" y="324"/>
      <point x="19" y="348" type="curve" smooth="yes"/>
      <point x="19" y="371"/>
      <point x="19" y="391"/>
      <point x="24" y="391" type="curve" smooth="yes"/>
      <point x="50" y="391"/>
      <point x="75" y="422"/>
      <point x="75" y="451" type="curve" smooth="yes"/>
      <point x="75" y="521"/>
      <point x="75" y="523"/>
      <point x="75" y="599" type="curve" smooth="yes"/>
      <point x="75" y="734"/>
      <point x="151" y="770"/>
      <point x="276" y="770" type="curve" smooth="yes"/>
      <point x="283" y="770"/>
      <point x="281" y="728"/>
      <point x="281" y="711" type="curve" smooth="yes"/>
      <point x="281" y="700"/>
      <point x="282" y="653"/>
      <point x="276" y="653" type="curve" smooth="yes"/>
      <point x="229" y="653"/>
      <point x="209" y="626"/>
      <point x="209" y="592" type="curve" smooth="yes"/>
      <point x="209" y="540"/>
      <point x="209" y="517"/>
      <point x="209" y="439" type="curve" smooth="yes"/>
      <point x="209" y="367"/>
      <point x="174" y="355"/>
      <point x="174" y="348" type="curve" smooth="yes"/>
      <point x="174" y="341"/>
      <point x="209" y="328"/>
      <point x="209" y="257" type="curve" smooth="yes"/>
      <point x="209" y="182"/>
      <point x="210" y="217"/>
      <point x="210" y="108" type="curve" smooth="yes"/>
      <point x="210" y="67"/>
      <point x="229" y="47"/>
      <point x="276" y="47" type="curve" smooth="yes"/>
      <point x="282" y="47"/>
      <point x="281" y="0"/>
    </contour>
  </outline>
</glyph>
<glyph name="bar" format="1">
  <advance width="210"/>
  <unicode hex="007C"/>
  <outline>
    <contour>
      <point x="180" y="-55" type="curve" smooth="yes"/>
      <point x="180" y="-70"/>
      <point x="135" y="-70"/>
      <point x="104" y="-70" type="curve" smooth="yes"/>
      <point x="80" y="-70"/>
      <point x="30" y="-71"/>
      <point x="30" y="-57" type="curve" smooth="yes"/>
      <point x="30" y="249"/>
      <point x="30" y="460"/>
      <point x="30" y="755" type="curve" smooth="yes"/>
      <point x="30" y="768"/>
      <point x="73" y="770"/>
      <point x="100" y="770" type="curve" smooth="yes"/>
      <point x="131" y="770"/>
      <point x="180" y="769"/>
      <point x="180" y="754" type="curve" smooth="yes"/>
      <point x="180" y="461"/>
      <point x="180" y="250"/>
    </contour>
  </outline>
</glyph>
<glyph name="braceright" format="1">
  <advance width="311"/>
  <unicode hex="007D"/>
  <outline>
    <contour>
      <point x="292" y="348" type="curve" smooth="yes"/>
      <point x="292" y="324"/>
      <point x="292" y="307"/>
      <point x="287" y="307" type="curve" smooth="yes"/>
      <point x="263" y="307"/>
      <point x="236" y="276"/>
      <point x="236" y="247" type="curve" smooth="yes"/>
      <point x="236" y="178"/>
      <point x="236" y="216"/>
      <point x="236" y="101" type="curve" smooth="yes"/>
      <point x="236" y="-34"/>
      <point x="160" y="-70"/>
      <point x="35" y="-70" type="curve" smooth="yes"/>
      <point x="28" y="-70"/>
      <point x="30" y="-28"/>
      <point x="30" y="-11" type="curve" smooth="yes"/>
      <point x="30" y="0"/>
      <point x="29" y="47"/>
      <point x="35" y="47" type="curve" smooth="yes"/>
      <point x="82" y="47"/>
      <point x="101" y="67"/>
      <point x="101" y="108" type="curve" smooth="yes"/>
      <point x="101" y="217"/>
      <point x="102" y="182"/>
      <point x="102" y="257" type="curve" smooth="yes"/>
      <point x="102" y="328"/>
      <point x="137" y="341"/>
      <point x="137" y="348" type="curve" smooth="yes"/>
      <point x="137" y="355"/>
      <point x="102" y="367"/>
      <point x="102" y="439" type="curve" smooth="yes"/>
      <point x="102" y="517"/>
      <point x="102" y="540"/>
      <point x="102" y="592" type="curve" smooth="yes"/>
      <point x="102" y="626"/>
      <point x="82" y="653"/>
      <point x="35" y="653" type="curve" smooth="yes"/>
      <point x="29" y="653"/>
      <point x="30" y="700"/>
      <point x="30" y="711" type="curve" smooth="yes"/>
      <point x="30" y="728"/>
      <point x="28" y="770"/>
      <point x="35" y="770" type="curve" smooth="yes"/>
      <point x="160" y="770"/>
      <point x="236" y="734"/>
      <point x="236" y="599" type="curve" smooth="yes"/>
      <point x="236" y="523"/>
      <point x="236" y="521"/>
      <point x="236" y="451" type="curve" smooth="yes"/>
      <point x="236" y="422"/>
      <point x="261" y="391"/>
      <point x="287" y="391" type="curve" smooth="yes"/>
      <point x="292" y="391"/>
      <point x="292" y="371"/>
    </contour>
  </outline>
</glyph>
<glyph name="asciitilde" format="1">
  <advance width="361"/>
  <unicode hex="007E"/>
  <outline>
    <contour>
      <point x="349" y="358" type="curve"/>
      <point x="356" y="347"/>
      <point x="316" y="314"/>
      <point x="289" y="296" type="curve" smooth="yes"/>
      <point x="261" y="277"/>
      <point x="246" y="272"/>
      <point x="232" y="272" type="curve" smooth="yes"/>
      <point x="214" y="272"/>
      <point x="204" y="286"/>
      <point x="184" y="309" type="curve" smooth="yes"/>
      <point x="167" y="328"/>
      <point x="163" y="334"/>
      <point x="148" y="334" type="curve" smooth="yes"/>
      <point x="136" y="334"/>
      <point x="120" y="318"/>
      <point x="96" y="297" type="curve" smooth="yes"/>
      <point x="80" y="283"/>
      <point x="68" y="278"/>
      <point x="62" y="287" type="curve" smooth="yes"/>
      <point x="54" y="299"/>
      <point x="44" y="317"/>
      <point x="38" y="329" type="curve"/>
      <point x="31" y="340"/>
      <point x="49" y="358"/>
      <point x="74" y="378" type="curve" smooth="yes"/>
      <point x="94" y="394"/>
      <point x="132" y="418"/>
      <point x="151" y="418" type="curve" smooth="yes"/>
      <point x="171" y="418"/>
      <point x="191" y="405"/>
      <point x="202" y="391" type="curve" smooth="yes"/>
      <point x="216" y="373"/>
      <point x="225" y="359"/>
      <point x="237" y="359" type="curve" smooth="yes"/>
      <point x="249" y="359"/>
      <point x="272" y="379"/>
      <point x="295" y="399" type="curve" smooth="yes"/>
      <point x="310" y="412"/>
      <point x="319" y="411"/>
      <point x="325" y="401" type="curve" smooth="yes"/>
      <point x="332" y="389"/>
      <point x="343" y="370"/>
    </contour>
  </outline>
</glyph>
<glyph name="cent" format="1">
  <advance width="410"/>
  <unicode hex="00A2"/>
  <outline>
    <contour>
      <point x="380" y="164" type="curve" smooth="yes"/>
      <point x="380" y="70"/>
      <point x="321" y="29"/>
      <point x="289" y="13" type="curve" smooth="yes"/>
      <point x="285" y="11"/>
      <point x="284" y="4"/>
      <point x="284" y="0" type="curve" smooth="yes"/>
      <point x="284" y="-22"/>
      <point x="284" y="-37"/>
      <point x="284" y="-54" type="curve" smooth="yes"/>
      <point x="284" y="-65"/>
      <point x="230" y="-67"/>
      <point x="205" y="-67" type="curve" smooth="yes"/>
      <point x="182" y="-67"/>
      <point x="135" y="-64"/>
      <point x="135" y="-54" type="curve" smooth="yes"/>
      <point x="135" y="-40"/>
      <point x="135" y="-23"/>
      <point x="135" y="-2" type="curve" smooth="yes"/>
      <point x="135" y="2"/>
      <point x="136" y="10"/>
      <point x="131" y="12" type="curve" smooth="yes"/>
      <point x="84" y="31"/>
      <point x="30" y="80"/>
      <point x="30" y="164" type="curve" smooth="yes"/>
      <point x="30" y="313"/>
      <point x="30" y="167"/>
      <point x="30" y="316" type="curve" smooth="yes"/>
      <point x="30" y="415"/>
      <point x="93" y="447"/>
      <point x="128" y="468" type="curve" smooth="yes"/>
      <point x="138" y="474"/>
      <point x="135" y="478"/>
      <point x="135" y="483" type="curve" smooth="yes"/>
      <point x="135" y="503"/>
      <point x="135" y="539"/>
      <point x="135" y="553" type="curve" smooth="yes"/>
      <point x="135" y="564"/>
      <point x="182" y="564"/>
      <point x="205" y="564" type="curve" smooth="yes"/>
      <point x="229" y="564"/>
      <point x="285" y="563"/>
      <point x="285" y="556" type="curve" smooth="yes"/>
      <point x="285" y="540"/>
      <point x="285" y="493"/>
      <point x="285" y="478" type="curve" smooth="yes"/>
      <point x="285" y="473"/>
      <point x="283" y="469"/>
      <point x="291" y="464" type="curve" smooth="yes"/>
      <point x="320" y="447"/>
      <point x="380" y="417"/>
      <point x="380" y="316" type="curve" smooth="yes"/>
      <point x="380" y="301"/>
      <point x="377" y="300"/>
      <point x="295" y="300" type="curve" smooth="yes"/>
      <point x="234" y="300"/>
      <point x="230" y="300"/>
      <point x="230" y="310" type="curve" smooth="yes"/>
      <point x="230" y="314"/>
      <point x="227" y="335"/>
      <point x="205" y="335" type="curve" smooth="yes"/>
      <point x="175" y="335"/>
      <point x="180" y="303"/>
      <point x="180" y="275" type="curve" smooth="yes"/>
      <point x="180" y="239"/>
      <point x="180" y="235"/>
      <point x="180" y="205" type="curve" smooth="yes"/>
      <point x="180" y="177"/>
      <point x="175" y="145"/>
      <point x="205" y="145" type="curve" smooth="yes"/>
      <point x="225" y="145"/>
      <point x="230" y="165"/>
      <point x="230" y="170" type="curve" smooth="yes"/>
      <point x="230" y="181"/>
      <point x="231" y="186"/>
      <point x="304" y="186" type="curve" smooth="yes"/>
      <point x="376" y="186"/>
      <point x="380" y="183"/>
    </contour>
  </outline>
</glyph>
<glyph name="sterling" format="1">
  <advance width="420"/>
  <unicode hex="00A3"/>
  <outline>
    <contour>
      <point x="387" y="73" type="curve" smooth="yes"/>
      <point x="387" y="1"/>
      <point x="386" y="0"/>
      <point x="375" y="0" type="curve" smooth="yes"/>
      <point x="332" y="0"/>
      <point x="129" y="0"/>
      <point x="86" y="0" type="curve" smooth="yes"/>
      <point x="70" y="0"/>
      <point x="53" y="-2"/>
      <point x="46" y="4" type="curve" smooth="yes"/>
      <point x="38" y="11"/>
      <point x="40" y="26"/>
      <point x="40" y="38" type="curve" smooth="yes"/>
      <point x="40" y="278"/>
      <point x="40" y="387"/>
      <point x="40" y="536" type="curve" smooth="yes"/>
      <point x="40" y="635"/>
      <point x="114" y="700"/>
      <point x="215" y="700" type="curve" smooth="yes"/>
      <point x="320" y="700"/>
      <point x="382" y="639"/>
      <point x="382" y="536" type="curve" smooth="yes"/>
      <point x="382" y="525"/>
      <point x="382" y="479"/>
      <point x="382" y="472" type="curve" smooth="yes"/>
      <point x="382" y="463"/>
      <point x="380" y="458"/>
      <point x="306" y="458" type="curve" smooth="yes"/>
      <point x="260" y="458"/>
      <point x="244" y="455"/>
      <point x="244" y="468" type="curve" smooth="yes"/>
      <point x="244" y="482"/>
      <point x="244" y="519"/>
      <point x="244" y="526" type="curve" smooth="yes"/>
      <point x="244" y="532"/>
      <point x="238" y="559"/>
      <point x="215" y="559" type="curve" smooth="yes"/>
      <point x="189" y="559"/>
      <point x="186" y="523"/>
      <point x="186" y="495" type="curve" smooth="yes"/>
      <point x="186" y="476"/>
      <point x="186" y="440"/>
      <point x="186" y="428" type="curve" smooth="yes"/>
      <point x="186" y="419"/>
      <point x="184" y="408"/>
      <point x="192" y="402" type="curve" smooth="yes"/>
      <point x="199" y="397"/>
      <point x="206" y="398"/>
      <point x="214" y="398" type="curve" smooth="yes"/>
      <point x="231" y="398"/>
      <point x="254" y="398"/>
      <point x="263" y="398" type="curve" smooth="yes"/>
      <point x="275" y="398"/>
      <point x="274" y="394"/>
      <point x="274" y="327" type="curve" smooth="yes"/>
      <point x="274" y="263"/>
      <point x="276" y="259"/>
      <point x="263" y="259" type="curve" smooth="yes"/>
      <point x="255" y="259"/>
      <point x="236" y="259"/>
      <point x="218" y="259" type="curve" smooth="yes"/>
      <point x="208" y="259"/>
      <point x="197" y="258"/>
      <point x="193" y="256" type="curve"/>
      <point x="184" y="250"/>
      <point x="186" y="240"/>
      <point x="186" y="227" type="curve" smooth="yes"/>
      <point x="186" y="147"/>
      <point x="186" y="259"/>
      <point x="186" y="179" type="curve" smooth="yes"/>
      <point x="186" y="166"/>
      <point x="186" y="142"/>
      <point x="191" y="139" type="curve" smooth="yes"/>
      <point x="196" y="136"/>
      <point x="214" y="135"/>
      <point x="225" y="135" type="curve" smooth="yes"/>
      <point x="252" y="135"/>
      <point x="347" y="135"/>
      <point x="374" y="135" type="curve" smooth="yes"/>
      <point x="386" y="135"/>
      <point x="387" y="138"/>
    </contour>
  </outline>
</glyph>
